<svg width="85" height="26" viewBox="0 0 85 26" fill="none" xmlns="http://www.w3.org/2000/svg">
<path d="M78.0537 0.00905543H6.75733C6.49744 0.00905543 6.24068 0.00905543 5.98148 0.0103364C5.76451 0.0116173 5.54927 0.0153384 5.33021 0.0184703C4.85432 0.0235312 4.37955 0.0613665 3.91003 0.131648C3.44116 0.203459 2.98698 0.338843 2.56285 0.533221C2.13924 0.729244 1.75218 0.983956 1.4157 1.28812C1.07745 1.59142 0.795501 1.942 0.580682 2.32637C0.36527 2.70998 0.215902 3.12105 0.137738 3.54539C0.0588307 3.96919 0.0163701 4.39788 0.010737 4.82761C0.00416013 5.02398 0.00346559 5.221 0 5.41739V20.2214C0.00346559 20.4202 0.00416013 20.6129 0.010737 20.8118C0.0163718 21.2415 0.0588325 21.6702 0.137738 22.094C0.215686 22.5185 0.365063 22.9298 0.580682 23.3136C0.795404 23.6967 1.0774 24.0459 1.4157 24.3475C1.7509 24.653 2.13822 24.9079 2.56285 25.1024C2.98698 25.2973 3.44111 25.4335 3.91003 25.5064C4.37963 25.5762 4.85435 25.614 5.33021 25.6197C5.54927 25.624 5.76451 25.6265 5.98148 25.6265C6.24067 25.6278 6.49746 25.6278 6.75733 25.6278H78.0537C78.3084 25.6278 78.5672 25.6278 78.8219 25.6265C79.0378 25.6265 79.2593 25.624 79.4753 25.6197C79.9502 25.6143 80.424 25.5765 80.8927 25.5064C81.3631 25.433 81.8189 25.2969 82.245 25.1024C82.6693 24.9078 83.0563 24.6529 83.3912 24.3475C83.7286 24.0447 84.0112 23.6958 84.2286 23.3136C84.4426 22.9296 84.5905 22.5183 84.6673 22.094C84.7464 21.6701 84.7903 21.2415 84.7989 20.8118C84.8016 20.6129 84.8016 20.4202 84.8016 20.2214C84.8072 19.9887 84.8072 19.7573 84.8072 19.5208V6.11665C84.8072 5.8821 84.8072 5.64943 84.8016 5.41739C84.8016 5.221 84.8016 5.02398 84.7989 4.82758C84.7903 4.39782 84.7464 3.96922 84.6673 3.54537C84.5903 3.12127 84.4424 2.71023 84.2286 2.32635C83.7911 1.55591 83.0974 0.928785 82.245 0.533164C81.8189 0.33926 81.3631 0.203912 80.8927 0.13159C80.4241 0.0609992 79.9503 0.0231507 79.4753 0.0183807C79.2593 0.0152552 79.0378 0.011502 78.8219 0.0102531C78.5672 0.00897217 78.3084 0.00897217 78.0537 0.00897217V0.00905543Z" fill="#0A0A0A"/>
<path d="M5.99329 24.9861C5.77741 24.9861 5.56675 24.9836 5.35256 24.9793C4.90885 24.9741 4.46618 24.9394 4.02818 24.8755C3.61977 24.8123 3.22412 24.6948 2.8543 24.5269C2.48787 24.3603 2.15365 24.1419 1.86446 23.8801C1.57108 23.6213 1.32682 23.3211 1.14138 22.9915C0.953886 22.6598 0.824131 22.3042 0.756633 21.9371C0.683741 21.5427 0.644303 21.1439 0.63866 20.7442C0.634167 20.61 0.628286 20.1632 0.628286 20.1632V5.46545C0.628286 5.46545 0.63455 5.02554 0.638695 4.8963C0.644098 4.49716 0.683307 4.09898 0.755981 3.70519C0.823604 3.33713 0.953459 2.98051 1.14105 2.64768C1.32581 2.3183 1.56871 2.01793 1.86033 1.75823C2.15161 1.49605 2.4869 1.27654 2.85395 1.10768C3.22293 0.940271 3.61782 0.823607 4.02541 0.761597C4.46485 0.697059 4.90906 0.662167 5.3543 0.657213L5.99364 0.649445H78.8102L79.4572 0.657525C79.8984 0.662233 80.3386 0.696814 80.774 0.760973C81.1857 0.823762 81.5847 0.941239 81.9579 1.10954C82.6932 1.44984 83.2916 1.98822 83.669 2.64923C83.8536 2.97977 83.9815 3.33348 84.0483 3.69836C84.1218 4.09538 84.163 4.49669 84.1714 4.8991C84.1735 5.07928 84.1735 5.27283 84.1735 5.46545C84.1791 5.70404 84.1791 5.93114 84.1791 6.1601V19.476C84.1791 19.7071 84.1791 19.9327 84.1735 20.1601C84.1735 20.367 84.1735 20.5565 84.1707 20.7516C84.1624 21.1468 84.122 21.541 84.0496 21.9309C83.9835 22.3006 83.8544 22.659 83.667 22.9935C83.4802 23.3195 83.2374 23.617 82.9474 23.8751C82.6579 24.1384 82.3231 24.358 81.9558 24.5257C81.5837 24.6949 81.1853 24.8128 80.774 24.8755C80.336 24.9397 79.8933 24.9744 79.4496 24.9793C79.242 24.9836 79.0247 24.9861 78.8137 24.9861L78.0456 24.9873L5.99329 24.9861Z" fill="black"/>
<path d="M20.6033 13.0111C20.6101 12.4765 20.7493 11.9524 21.0082 11.4874C21.267 11.0225 21.637 10.6318 22.0837 10.3518C21.7999 9.93863 21.4255 9.59858 20.9903 9.35869C20.5551 9.1188 20.071 8.98568 19.5765 8.96991C18.5216 8.85702 17.4989 9.61347 16.9613 9.61347C16.4134 9.61347 15.5857 8.98111 14.6944 8.99981C14.118 9.0188 13.5561 9.18971 13.0637 9.49589C12.5713 9.80207 12.165 10.2331 11.8846 10.7469C10.6696 12.8915 11.5758 16.0433 12.7397 17.7768C13.3219 18.6256 14.0025 19.5738 14.8929 19.5402C15.7643 19.5034 16.0897 18.9737 17.1415 18.9737C18.1835 18.9737 18.4888 19.5402 19.3974 19.5188C20.3324 19.5033 20.9215 18.6662 21.4833 17.8093C21.9017 17.2045 22.2236 16.536 22.4372 15.8287C21.894 15.5944 21.4304 15.2023 21.1043 14.7013C20.7782 14.2003 20.6039 13.6124 20.6033 13.0111V13.0111Z" fill="white"/>
<path d="M18.8873 7.82986C19.3971 7.20591 19.6483 6.40393 19.5874 5.59422C18.8086 5.67763 18.0891 6.05714 17.5724 6.65716C17.3198 6.95028 17.1263 7.29129 17.003 7.66069C16.8798 8.0301 16.8291 8.42065 16.8539 8.81003C17.2435 8.81412 17.6289 8.72803 17.9811 8.55825C18.3333 8.38847 18.6432 8.13942 18.8873 7.82986Z" fill="white"/>
<path d="M31.6179 17.392H28.6444L27.9303 19.5417H26.6709L29.4873 11.5884H30.7959L33.6124 19.5417H32.3314L31.6179 17.392ZM28.9524 16.4H31.3094L30.1475 12.9112H30.1149L28.9524 16.4Z" fill="white"/>
<path d="M39.695 16.642C39.695 18.444 38.749 19.6017 37.3215 19.6017C36.9598 19.621 36.6002 19.5361 36.2837 19.3566C35.9672 19.1772 35.7067 18.9106 35.5319 18.5872H35.5049V21.4593H34.3375V13.7424H35.4675V14.7068H35.489C35.6718 14.385 35.9367 14.1198 36.2556 13.9392C36.5745 13.7587 36.9354 13.6697 37.3 13.6817C38.7435 13.6817 39.695 14.8451 39.695 16.642ZM38.495 16.642C38.495 15.468 37.9 14.6962 36.992 14.6962C36.1 14.6962 35.5 15.4843 35.5 16.642C35.5 17.8104 36.1 18.5928 36.992 18.5928C37.9 18.5928 38.495 17.8266 38.495 16.642Z" fill="white"/>
<path d="M45.9549 16.642C45.9549 18.444 45.0089 19.6017 43.5814 19.6017C43.2198 19.621 42.8601 19.536 42.5436 19.3566C42.2271 19.1772 41.9666 18.9106 41.7919 18.5872H41.7649V21.4593H40.5974V13.7424H41.7274V14.7068H41.7489C41.9317 14.385 42.1966 14.1198 42.5155 13.9392C42.8344 13.7587 43.1953 13.6697 43.5599 13.6817C45.0034 13.6817 45.9549 14.8451 45.9549 16.642ZM44.755 16.642C44.755 15.468 44.1599 14.6962 43.2519 14.6962C42.3599 14.6962 41.76 15.4843 41.76 16.642C41.76 17.8104 42.3599 18.5928 43.2519 18.5928C44.1599 18.5928 44.755 17.8266 44.755 16.642H44.755Z" fill="white"/>
<path d="M50.0922 17.3251C50.1787 18.1138 50.9302 18.6316 51.9572 18.6316C52.9412 18.6316 53.6492 18.1138 53.6492 17.4026C53.6492 16.7853 53.2222 16.4156 52.2112 16.1623L51.2002 15.914C49.7677 15.5613 49.1027 14.8783 49.1027 13.7699C49.1027 12.3977 50.2756 11.4551 51.9412 11.4551C53.5896 11.4551 54.7197 12.3977 54.7577 13.7699H53.5792C53.5087 12.9762 52.8651 12.4971 51.9247 12.4971C50.9842 12.4971 50.3407 12.9819 50.3407 13.6874C50.3407 14.2497 50.7517 14.5805 51.7572 14.8338L52.6166 15.049C54.2172 15.4349 54.8822 16.0904 54.8822 17.2537C54.8822 18.7417 53.7197 19.6736 51.8707 19.6736C50.1407 19.6736 48.9726 18.7636 48.8971 17.325L50.0922 17.3251Z" fill="white"/>
<path d="M57.4018 12.3701V13.7424H58.4834V14.685H57.4018V17.8817C57.4018 18.3783 57.6184 18.6097 58.0938 18.6097C58.2222 18.6075 58.3504 18.5983 58.4778 18.5822V19.5191C58.2641 19.5599 58.0468 19.5783 57.8294 19.5742C56.6779 19.5742 56.2288 19.1332 56.2288 18.0086V14.685H55.4019V13.7424H56.2288V12.3701H57.4018Z" fill="white"/>
<path d="M59.1097 16.642C59.1097 14.8176 60.1637 13.6711 61.8072 13.6711C63.4562 13.6711 64.5053 14.8175 64.5053 16.642C64.5053 18.4715 63.4617 19.613 61.8072 19.613C60.1532 19.613 59.1097 18.4715 59.1097 16.642ZM63.3157 16.642C63.3157 15.3905 62.7532 14.6518 61.8072 14.6518C60.8612 14.6518 60.2992 15.3961 60.2992 16.642C60.2992 17.8986 60.8612 18.6316 61.8072 18.6316C62.7532 18.6316 63.3157 17.8986 63.3157 16.642H63.3157Z" fill="white"/>
<path d="M65.4678 13.7425H66.5813V14.7294H66.6083C66.6836 14.4212 66.8607 14.1488 67.1099 13.958C67.359 13.7672 67.665 13.6697 67.9763 13.6818C68.1109 13.6813 68.245 13.6962 68.3763 13.7262V14.8395C68.2065 14.7866 68.0293 14.7623 67.8518 14.7676C67.6822 14.7606 67.5131 14.7911 67.3561 14.857C67.1992 14.9229 67.0581 15.0226 66.9425 15.1493C66.8269 15.2761 66.7396 15.4268 66.6866 15.5912C66.6335 15.7556 66.616 15.9298 66.6352 16.1017V19.5411H65.4678L65.4678 13.7425Z" fill="white"/>
<path d="M73.759 17.8379C73.6019 18.8906 72.5964 19.613 71.31 19.613C69.6554 19.613 68.6284 18.4828 68.6284 16.6695C68.6284 14.8507 69.6609 13.6711 71.2609 13.6711C72.8345 13.6711 73.824 14.7732 73.824 16.5313V16.9391H69.8069V17.011C69.7884 17.2245 69.8146 17.4394 69.8838 17.6417C69.953 17.844 70.0637 18.029 70.2084 18.1843C70.3531 18.3397 70.5286 18.4618 70.7231 18.5427C70.9177 18.6236 71.127 18.6614 71.337 18.6535C71.6128 18.6799 71.8897 18.6147 72.1263 18.4678C72.363 18.3208 72.5468 18.0999 72.6504 17.8379L73.759 17.8379ZM69.8125 16.1073H72.6559C72.6664 15.9154 72.6379 15.7234 72.5721 15.5433C72.5064 15.3631 72.4048 15.1988 72.2738 15.0606C72.1428 14.9225 71.9852 14.8134 71.8109 14.7402C71.6366 14.6671 71.4493 14.6314 71.2609 14.6356C71.0708 14.6344 70.8823 14.6716 70.7064 14.7451C70.5305 14.8186 70.3706 14.9269 70.2359 15.0637C70.1012 15.2006 69.9945 15.3632 69.9218 15.5423C69.8491 15.7214 69.812 15.9134 69.8125 16.1073V16.1073Z" fill="white"/>
<path d="M28.8059 5.60178C29.0506 5.58387 29.2962 5.62157 29.525 5.71215C29.7537 5.80274 29.9599 5.94395 30.1286 6.1256C30.2973 6.30726 30.4244 6.52482 30.5007 6.76261C30.5769 7.0004 30.6005 7.25248 30.5696 7.50067C30.5696 8.72157 29.9224 9.42336 28.8059 9.42336H27.4519V5.60178H28.8059ZM28.0341 8.88291H28.7408C28.9157 8.89357 29.0908 8.86433 29.2532 8.79733C29.4156 8.73033 29.5613 8.62725 29.6797 8.49559C29.7981 8.36393 29.8863 8.20701 29.9377 8.03625C29.9891 7.86548 30.0025 7.68518 29.977 7.50846C30.0007 7.33244 29.9859 7.15325 29.9337 6.98374C29.8815 6.81423 29.7931 6.6586 29.675 6.52799C29.5568 6.39737 29.4118 6.29502 29.2503 6.22826C29.0888 6.1615 28.9148 6.13199 28.7408 6.14183H28.0341V8.88291Z" fill="white"/>
<path d="M31.2273 7.97917C31.2095 7.78964 31.2308 7.59842 31.2897 7.41776C31.3487 7.23711 31.444 7.071 31.5696 6.93011C31.6952 6.78922 31.8483 6.67665 32.0191 6.59961C32.1899 6.52258 32.3745 6.48279 32.5613 6.48279C32.748 6.48279 32.9327 6.52258 33.1035 6.59961C33.2743 6.67665 33.4274 6.78922 33.553 6.93011C33.6786 7.071 33.7739 7.23711 33.8329 7.41776C33.8918 7.59842 33.9131 7.78964 33.8953 7.97917C33.9134 8.16889 33.8924 8.36038 33.8336 8.54133C33.7748 8.72228 33.6795 8.88868 33.5539 9.02985C33.4283 9.17102 33.275 9.28383 33.1041 9.36103C32.9331 9.43823 32.7482 9.47811 32.5613 9.47811C32.3743 9.47811 32.1894 9.43823 32.0185 9.36103C31.8475 9.28383 31.6943 9.17102 31.5687 9.02985C31.443 8.88868 31.3478 8.72228 31.289 8.54133C31.2302 8.36038 31.2092 8.16889 31.2273 7.97917V7.97917ZM33.3211 7.97917C33.3211 7.35403 33.0456 6.98845 32.5622 6.98845C32.0769 6.98845 31.804 7.35403 31.804 7.97918C31.804 8.60933 32.077 8.97209 32.5622 8.97209C33.0456 8.97209 33.3211 8.60682 33.3211 7.97917H33.3211Z" fill="white"/>
<path d="M37.4418 9.42245H36.8627L36.278 7.29838H36.2339L35.6517 9.42245H35.0781L34.2983 6.53845H34.8646L35.3713 8.73911H35.413L35.9946 6.53845H36.5302L37.1118 8.73911H37.1559L37.6602 6.53845H38.2185L37.4418 9.42245Z" fill="white"/>
<path d="M38.8743 6.53847H39.4117V6.99662H39.4534C39.5242 6.83207 39.6435 6.69413 39.7948 6.60203C39.9461 6.50993 40.1219 6.46825 40.2975 6.4828C40.4352 6.47225 40.5734 6.49341 40.7019 6.54471C40.8304 6.59601 40.946 6.67614 41.04 6.77915C41.1341 6.88217 41.2041 7.00543 41.2451 7.13982C41.2861 7.2742 41.2968 7.41626 41.2766 7.55547V9.42244H40.7184V7.69839C40.7184 7.23493 40.5208 7.00444 40.108 7.00444C40.0145 7.00001 39.9212 7.01622 39.8345 7.05198C39.7478 7.08774 39.6697 7.14219 39.6055 7.21161C39.5413 7.28102 39.4927 7.36376 39.4628 7.45415C39.433 7.54454 39.4226 7.64045 39.4325 7.73529V9.42247H38.8743L38.8743 6.53847Z" fill="white"/>
<path d="M42.1662 5.41263H42.7245V9.42245H42.1662V5.41263Z" fill="white"/>
<path d="M43.5005 7.97922C43.4827 7.78968 43.504 7.59845 43.563 7.41779C43.6219 7.23712 43.7173 7.07102 43.8429 6.93012C43.9685 6.78922 44.1216 6.67665 44.2924 6.59962C44.4632 6.52258 44.6479 6.48279 44.8347 6.48279C45.0214 6.48279 45.2061 6.52258 45.3769 6.59962C45.5477 6.67665 45.7008 6.78922 45.8264 6.93012C45.952 7.07102 46.0474 7.23712 46.1063 7.41779C46.1653 7.59845 46.1866 7.78968 46.1688 7.97922C46.1869 8.16895 46.1659 8.36044 46.1071 8.54139C46.0483 8.72234 45.953 8.88874 45.8273 9.02991C45.7017 9.17107 45.5484 9.28388 45.3775 9.36107C45.2065 9.43827 45.0216 9.47815 44.8347 9.47815C44.6477 9.47815 44.4628 9.43827 44.2918 9.36107C44.1209 9.28388 43.9676 9.17107 43.842 9.02991C43.7163 8.88874 43.6211 8.72234 43.5622 8.54139C43.5034 8.36044 43.4824 8.16895 43.5005 7.97922V7.97922ZM45.5943 7.97922C45.5943 7.35408 45.3188 6.9885 44.8354 6.9885C44.3502 6.9885 44.0772 7.35408 44.0772 7.97923C44.0772 8.60938 44.3502 8.97215 44.8354 8.97215C45.3188 8.97214 45.5943 8.60687 45.5943 7.97922H45.5943Z" fill="white"/>
<path d="M46.7565 8.60685C46.7565 8.08771 47.1357 7.78843 47.8086 7.7459L48.5749 7.70087V7.45194C48.5749 7.14733 48.3773 6.97534 47.9957 6.97534C47.6841 6.97534 47.4682 7.09198 47.4062 7.29588H46.8657C46.9228 6.80052 47.3798 6.48279 48.0215 6.48279C48.7307 6.48279 49.1307 6.84273 49.1307 7.45194V9.42245H48.5933V9.01715H48.5491C48.4594 9.16253 48.3336 9.28105 48.1843 9.3606C48.035 9.44016 47.8677 9.47789 47.6994 9.46996C47.5807 9.48256 47.4607 9.46964 47.3471 9.43204C47.2336 9.39445 47.129 9.33301 47.0402 9.25169C46.9513 9.17037 46.8802 9.07097 46.8313 8.95991C46.7825 8.84884 46.757 8.72857 46.7565 8.60685V8.60685ZM48.5749 8.36041V8.1193L47.8841 8.16433C47.4945 8.19091 47.3179 8.32601 47.3179 8.58026C47.3179 8.83982 47.5387 8.99087 47.8424 8.99087C47.9314 9.00005 48.0213 8.99089 48.1067 8.96394C48.1921 8.93698 48.2714 8.89277 48.3397 8.83395C48.4081 8.77513 48.4641 8.7029 48.5045 8.62154C48.5449 8.54019 48.5688 8.45139 48.5749 8.36041V8.36041Z" fill="white"/>
<path d="M49.8644 7.97921C49.8644 7.06792 50.3239 6.49062 51.0386 6.49062C51.2154 6.48231 51.3909 6.52548 51.5445 6.61508C51.6981 6.70468 51.8235 6.837 51.9061 6.99659H51.9478V5.41263H52.5061V9.42245H51.9711V8.9668H51.9269C51.838 9.12531 51.7082 9.25599 51.5516 9.34468C51.395 9.43338 51.2176 9.47671 51.0386 9.46998C50.319 9.47001 49.8644 8.8927 49.8644 7.97921ZM50.4411 7.97921C50.4411 8.59091 50.7239 8.959 51.1969 8.959C51.6674 8.959 51.9582 8.5856 51.9582 7.98172C51.9582 7.38065 51.6644 7.00193 51.1969 7.00193C50.727 7.00193 50.4411 7.37251 50.4411 7.97921H50.4411Z" fill="white"/>
<path d="M54.8158 7.97917C54.798 7.78964 54.8193 7.59842 54.8782 7.41776C54.9372 7.23711 55.0325 7.071 55.1581 6.93011C55.2837 6.78922 55.4368 6.67665 55.6076 6.59961C55.7784 6.52258 55.9631 6.48279 56.1498 6.48279C56.3366 6.48279 56.5212 6.52258 56.692 6.59961C56.8628 6.67665 57.0159 6.78922 57.1415 6.93011C57.2671 7.071 57.3624 7.23711 57.4214 7.41776C57.4803 7.59842 57.5016 7.78964 57.4838 7.97917C57.5019 8.16889 57.4809 8.36038 57.4221 8.54133C57.3633 8.72228 57.2681 8.88868 57.1424 9.02985C57.0168 9.17102 56.8636 9.28383 56.6926 9.36103C56.5217 9.43823 56.3368 9.47811 56.1498 9.47811C55.9628 9.47811 55.7779 9.43823 55.607 9.36103C55.4361 9.28383 55.2828 9.17102 55.1572 9.02985C55.0316 8.88868 54.9363 8.72228 54.8775 8.54133C54.8187 8.36038 54.7977 8.16889 54.8158 7.97917V7.97917ZM56.9096 7.97917C56.9096 7.35403 56.6341 6.98845 56.1507 6.98845C55.6655 6.98845 55.3925 7.35403 55.3925 7.97918C55.3925 8.60933 55.6655 8.97209 56.1507 8.97209C56.6342 8.97209 56.9096 8.60682 56.9096 7.97917Z" fill="white"/>
<path d="M58.2328 6.53847H58.7703V6.99662H58.812C58.8827 6.83207 59.0021 6.69413 59.1534 6.60203C59.3047 6.50993 59.4805 6.46825 59.6561 6.4828C59.7938 6.47225 59.932 6.49341 60.0605 6.54471C60.189 6.59601 60.3046 6.67614 60.3986 6.77915C60.4926 6.88217 60.5627 7.00543 60.6037 7.13982C60.6447 7.2742 60.6554 7.41626 60.6352 7.55547V9.42244H60.077V7.69839C60.077 7.23493 59.8794 7.00444 59.4666 7.00444C59.3731 7.00001 59.2798 7.01622 59.1931 7.05198C59.1064 7.08774 59.0282 7.14219 58.9641 7.21161C58.8999 7.28102 58.8513 7.36376 58.8214 7.45415C58.7915 7.54454 58.7812 7.64045 58.7911 7.73529V9.42247H58.2328V6.53847Z" fill="white"/>
<path d="M63.7898 5.82042V6.55158H64.4026V7.031H63.7898V8.51396C63.7898 8.81606 63.9118 8.94834 64.1897 8.94834C64.2609 8.94811 64.332 8.94373 64.4026 8.93521V9.4093C64.3024 9.42759 64.2008 9.43732 64.0989 9.43839C63.4781 9.43839 63.2309 9.21572 63.2309 8.65969V7.03097H62.7818V6.55155H63.2309V5.82042H63.7898Z" fill="white"/>
<path d="M65.1652 5.41263H65.7185V7.00192H65.7627C65.8369 6.83584 65.9595 6.69712 66.1139 6.60467C66.2682 6.51222 66.4468 6.47053 66.6252 6.48529C66.7621 6.4777 66.899 6.501 67.0261 6.55355C67.1531 6.6061 67.2673 6.68659 67.3603 6.78928C67.4534 6.89197 67.5231 7.01433 67.5644 7.14764C67.6057 7.28094 67.6177 7.4219 67.5994 7.56046V9.42246H67.0406V7.70087C67.0406 7.24022 66.8301 7.00692 66.4357 7.00692C66.3397 6.9989 66.2432 7.01235 66.1529 7.04632C66.0626 7.0803 65.9806 7.13399 65.9128 7.20364C65.845 7.27328 65.7929 7.35719 65.7602 7.44951C65.7275 7.54183 65.7149 7.64031 65.7234 7.73808V9.42244H65.1652L65.1652 5.41263Z" fill="white"/>
<path d="M70.8545 8.6438C70.7787 8.90738 70.6143 9.13537 70.3902 9.2879C70.1662 9.44043 69.8966 9.50778 69.6288 9.47816C69.4424 9.48317 69.2572 9.44678 69.086 9.37151C68.9148 9.29623 68.7618 9.18388 68.6374 9.04225C68.5131 8.90062 68.4205 8.7331 68.366 8.55132C68.3116 8.36954 68.2966 8.17786 68.3221 7.98957C68.2972 7.8007 68.3125 7.60861 68.3668 7.42628C68.4212 7.24396 68.5133 7.07566 68.637 6.93279C68.7606 6.78992 68.913 6.67581 69.0837 6.59818C69.2544 6.52055 69.4394 6.48121 69.6263 6.48284C70.4134 6.48284 70.8882 7.03108 70.8882 7.9367V8.13531H68.8908V8.1672C68.882 8.27304 68.8951 8.37957 68.9291 8.47996C68.9631 8.58036 69.0173 8.6724 69.0882 8.75019C69.1591 8.82798 69.2452 8.88979 69.3409 8.93168C69.4367 8.97356 69.5399 8.99459 69.6441 8.99341C69.7776 9.00976 69.9129 8.98524 70.0328 8.92298C70.1526 8.86072 70.2516 8.76354 70.3171 8.64378L70.8545 8.6438ZM68.8907 7.71437H70.3195C70.3266 7.61757 70.3137 7.52035 70.2817 7.42894C70.2496 7.33754 70.1992 7.25397 70.1337 7.18361C70.0681 7.11325 69.9888 7.05765 69.9009 7.02039C69.813 6.98313 69.7184 6.96503 69.6232 6.96726C69.5267 6.96602 69.4309 6.9845 69.3414 7.02161C69.252 7.05873 69.1707 7.11372 69.1025 7.18334C69.0342 7.25297 68.9803 7.33583 68.9439 7.42703C68.9076 7.51823 68.8895 7.61593 68.8908 7.71437H68.8907Z" fill="white"/>
</svg>
