<svg xmlns="http://www.w3.org/2000/svg" width="42" height="42" viewBox="0 0 42 42">
    <g fill="none" fill-rule="evenodd">
        <g>
            <g>
                <path d="M0 0H42V42H0z" transform="translate(-785 -686) translate(785 686)"/>
                <g>
                    <g>
                        <path d="M0 0H42V42H0z" transform="translate(-785 -686) translate(785 686)"/>
                        <g fill="#E9F4F5" transform="translate(-785 -686) translate(785 686)">
                            <circle cx="21" cy="21.02" r="20.344"/>
                        </g>
                    </g>
                    <g transform="translate(-785 -686) translate(785 686) translate(2.625 3.938)">
                        <rect width="38.063" height="27.563" y="2.625" fill="#FFF" rx="3"/>
                        <g>
                            <path fill="#EF4050" stroke="#FF2449" stroke-width=".2" d="M4.594 9.188c-.362 0-.657.294-.657.656 0 .361.295.656.657.656.361 0 .656-.295.656-.656 0-.362-.295-.656-.656-.656zM7.219 9.188c-.362 0-.657.294-.657.656 0 .361.295.656.657.656.361 0 .656-.295.656-.656 0-.362-.295-.656-.656-.656zM9.844 9.188c-.362 0-.656.294-.656.656 0 .361.294.656.656.656.361 0 .656-.295.656-.656 0-.362-.295-.656-.656-.656zM13.781 9.188c-.361 0-.656.294-.656.656 0 .361.295.656.656.656.362 0 .656-.295.656-.656 0-.362-.294-.656-.656-.656zM3.281 26.25c-.361 0-.656.295-.656.656 0 .362.295.657.656.657.362 0 .656-.295.656-.657 0-.361-.294-.656-.656-.656zM7.219 26.25c-.362 0-.657.295-.657.656 0 .362.295.657.657.657.361 0 .656-.295.656-.657 0-.361-.295-.656-.656-.656zM9.844 26.25c-.362 0-.656.295-.656.656 0 .362.294.657.656.657.361 0 .656-.295.656-.657 0-.361-.295-.656-.656-.656zM13.781 26.25c-.361 0-.656.295-.656.656 0 .362.295.657.656.657.362 0 .656-.295.656-.657 0-.361-.294-.656-.656-.656zM16.406 26.25c-.361 0-.656.295-.656.656 0 .362.295.657.656.657.362 0 .657-.295.657-.657 0-.361-.295-.656-.657-.656zM20.344 26.25c-.362 0-.657.295-.657.656 0 .362.295.657.657.657.361 0 .656-.295.656-.657 0-.361-.295-.656-.656-.656zM24.281 26.25c-.361 0-.656.295-.656.656 0 .362.295.657.656.657.362 0 .657-.295.657-.657 0-.361-.295-.656-.657-.656zM26.906 26.25c-.361 0-.656.295-.656.656 0 .362.295.657.656.657.362 0 .657-.295.657-.657 0-.361-.295-.656-.657-.656zM30.844 26.25c-.362 0-.657.295-.657.656 0 .362.295.657.657.657.361 0 .656-.295.656-.657 0-.361-.295-.656-.656-.656zM33.469 26.25c-.362 0-.657.295-.657.656 0 .362.295.657.657.657.361 0 .656-.295.656-.657 0-.361-.295-.656-.656-.656zM30.844 9.188c-.362 0-.657.294-.657.656 0 .361.295.656.657.656.361 0 .656-.295.656-.656 0-.362-.295-.656-.656-.656zM33.469 9.188c-.362 0-.657.294-.657.656 0 .361.295.656.657.656.361 0 .656-.295.656-.656 0-.362-.295-.656-.656-.656z"/>
                            <path fill="#02647A" fill-rule="nonzero" d="M3.806 0c-.195-.002-.378.099-.478.267-.097.169-.097.375 0 .544.1.168.283.27.478.267v1.078H2.72C1.223 2.156 0 3.37 0 4.852v22.64c0 1.483 1.223 2.695 2.719 2.695h32.625c1.495 0 2.718-1.212 2.718-2.695V4.852c0-1.483-1.223-2.696-2.718-2.696H16.312V1.078c.196.002.379-.099.478-.267.098-.169.098-.375 0-.544-.1-.168-.282-.269-.477-.267H10.33c-.195-.002-.378.099-.478.267-.097.169-.097.375 0 .544.1.168.283.27.478.267v1.078H7.613V1.078c.195.002.378-.099.477-.267.098-.169.098-.375 0-.544C7.99.1 7.808-.002 7.612 0H3.806zm1.088 1.078h1.631v1.078H4.894V1.078zm6.525 0h3.806v1.078h-3.806V1.078zm-8.7 2.156h32.625c.907 0 1.631.718 1.631 1.618v22.64c0 .9-.724 1.617-1.631 1.617H2.719c-.907 0-1.631-.718-1.631-1.617V4.852c0-.9.724-1.618 1.63-1.618zM30.45 5.391v1.617h4.894V5.39H30.45zm-8.156 1.078c-5.1 0-9.244 4.108-9.244 9.164s4.144 9.164 9.244 9.164 9.244-4.108 9.244-9.164-4.144-9.164-9.244-9.164zm0 1.078c4.511 0 8.156 3.613 8.156 8.086 0 4.472-3.645 8.086-8.156 8.086-4.512 0-8.157-3.614-8.157-8.086 0-4.473 3.645-8.086 8.157-8.086zm0 1.617c-3.598 0-6.525 2.902-6.525 6.469s2.927 6.469 6.525 6.469c3.598 0 6.525-2.902 6.525-6.47 0-3.566-2.927-6.468-6.525-6.468zm-11.419 5.39c-.601 0-1.088.483-1.088 1.079s.487 1.078 1.088 1.078c.601 0 1.088-.482 1.088-1.078 0-.596-.487-1.078-1.088-1.078z"/>
                            <path fill="#E9F4F5" d="M22.313 10.5c2.905 0 5.25 2.344 5.25 5.25S25.218 21 22.313 21c-2.906 0-5.25-2.344-5.25-5.25s2.344-5.25 5.25-5.25z"/>
                        </g>
                    </g>
                </g>
            </g>
        </g>
    </g>
</svg>
