<svg width="85" height="27" viewBox="0 0 85 27" fill="none" xmlns="http://www.w3.org/2000/svg">
<g clip-path="url(#clip0_1_470)">
<path fill-rule="evenodd" clip-rule="evenodd" d="M81.665 26.2466H3.14216C1.41038 26.2466 0 24.8028 0 23.0443V3.83016C0 2.06527 1.41038 0.627808 3.14216 0.627808H81.665C83.3952 0.627808 84.8072 2.06527 84.8072 3.83016V23.0443C84.8072 24.8028 83.3952 26.2466 81.665 26.2466Z" fill="black"/>
<path fill-rule="evenodd" clip-rule="evenodd" d="M81.665 1.1405C83.1175 1.1405 84.3064 2.34957 84.3064 3.83016V23.0443C84.3064 24.5249 83.1253 25.7339 81.665 25.7339H3.14216C1.68965 25.7339 0.500811 24.5249 0.500811 23.0443V3.83016C0.500811 2.34957 1.68185 1.1405 3.14216 1.1405C3.14216 1.1405 81.665 1.1405 81.665 1.1405ZM81.665 0.627808H3.14216C1.41038 0.627808 0 2.07166 0 3.83016V23.0443C0 24.8092 1.41038 26.2466 3.14216 26.2466H81.665C83.3952 26.2466 84.8072 24.8092 84.8072 23.0443V3.83016C84.8072 2.07166 83.3952 0.627808 81.665 0.627808Z" fill="#090909"/>
<path d="M44.6766 9.10242C44.1103 9.10242 43.6329 8.89958 43.2553 8.50028C42.8809 8.11217 42.6718 7.57711 42.6812 7.03087C42.6812 6.4479 42.8747 5.95437 43.2553 5.56306C43.6313 5.16376 44.1087 4.96092 44.6751 4.96092C45.2352 4.96092 45.7126 5.16376 46.0964 5.56306C46.477 5.96715 46.6705 6.46068 46.6705 7.03087C46.6643 7.61544 46.4708 8.10897 46.0964 8.49869C45.7204 8.90118 45.243 9.10242 44.6766 9.10242ZM27.8254 9.10242C27.2716 9.10242 26.7911 8.90277 26.3979 8.50827C26.0079 8.11536 25.8097 7.61864 25.8097 7.03247C25.8097 6.4463 26.0079 5.94958 26.3979 5.55667C26.7833 5.16217 27.2638 4.96252 27.8254 4.96252C28.1 4.96252 28.3668 5.01842 28.6227 5.13182C28.8739 5.24203 29.0782 5.39216 29.2296 5.57584L29.267 5.62216L28.8442 6.04701L28.8005 5.9943C28.5618 5.70361 28.242 5.56146 27.8192 5.56146C27.4416 5.56146 27.1125 5.69882 26.841 5.97034C26.568 6.24346 26.4291 6.60123 26.4291 7.03407C26.4291 7.46691 26.568 7.82467 26.841 8.09779C27.1125 8.36931 27.4416 8.50667 27.8192 8.50667C28.2217 8.50667 28.5603 8.36931 28.8239 8.09779C28.98 7.93807 29.0767 7.71447 29.111 7.43177H27.7552V6.83442H29.6929L29.7007 6.88872C29.7148 6.98935 29.7288 7.09316 29.7288 7.18899C29.7288 7.74002 29.5666 8.18564 29.2452 8.51466C28.8801 8.90437 28.4027 9.10242 27.8254 9.10242ZM50.2308 9.01777H49.6332L47.8032 6.01986L47.8188 6.5597V9.01617H47.2212V5.04717H47.903L47.9217 5.07752L49.6426 7.90134L49.627 7.36309V5.04717H50.2308V9.01777V9.01777ZM40.1865 9.01777H39.5812V5.64452H38.5312V5.04717H41.2349V5.64452H40.185V9.01777H40.1865ZM38.0382 9.01777H37.4344V5.04717H38.0382V9.01777ZM34.6449 9.01777H34.0411V5.64452H32.9911V5.04717H35.6948V5.64452H34.6449V9.01777ZM32.6089 9.01138H30.2936V5.04717H32.6089V5.64452H30.8989V6.7338H32.4419V7.32476H30.8989V8.41404H32.6089V9.01138ZM43.6984 8.08981C43.9683 8.36612 44.296 8.50508 44.6766 8.50508C45.0682 8.50508 45.3881 8.36931 45.6548 8.08981C45.9201 7.81829 46.0542 7.46211 46.0542 7.03247C46.0542 6.60283 45.9201 6.24506 45.6564 5.97513C45.3865 5.69882 45.0573 5.55987 44.6782 5.55987C44.2866 5.55987 43.9668 5.69563 43.7015 5.97513C43.4363 6.24666 43.3021 6.60283 43.3021 7.03247C43.3021 7.46211 43.4347 7.81988 43.6984 8.08981Z" fill="white"/>
<path fill-rule="evenodd" clip-rule="evenodd" d="M42.6251 14.5616C41.1507 14.5616 39.9556 15.7068 39.9556 17.2864C39.9556 18.8517 41.1585 20.0112 42.6251 20.0112C44.0994 20.0112 45.2945 18.8581 45.2945 17.2864C45.2945 15.7068 44.0994 14.5616 42.6251 14.5616ZM42.6251 18.9315C41.8185 18.9315 41.1242 18.2479 41.1242 17.28C41.1242 16.2978 41.82 15.6286 42.6251 15.6286C43.4317 15.6286 44.126 16.2978 44.126 17.28C44.1275 18.2543 43.4317 18.9315 42.6251 18.9315ZM36.801 14.5616C35.3266 14.5616 34.1316 15.7068 34.1316 17.2864C34.1316 18.8517 35.3344 20.0112 36.801 20.0112C38.2753 20.0112 39.4704 18.8581 39.4704 17.2864C39.4704 15.7068 38.2738 14.5616 36.801 14.5616ZM36.801 18.9315C35.9944 18.9315 35.3001 18.2479 35.3001 17.28C35.3001 16.2978 35.996 15.6286 36.801 15.6286C37.6076 15.6286 38.3019 16.2978 38.3019 17.28C38.3019 18.2543 37.6076 18.9315 36.801 18.9315ZM29.8708 15.3938V16.5469H32.5745C32.4918 17.1938 32.2828 17.6714 31.9629 17.9988C31.5666 18.4045 30.9551 18.8453 29.877 18.8453C28.2154 18.8453 26.9158 17.4717 26.9158 15.7707C26.9158 14.0697 28.2154 12.6961 29.877 12.6961C30.7741 12.6961 31.4278 13.0587 31.913 13.5219L32.7118 12.7041C32.0378 12.0429 31.1407 11.5366 29.8832 11.5366C27.6038 11.5366 25.6911 13.4372 25.6911 15.7643C25.6911 18.0978 27.6023 19.9921 29.8832 19.9921C31.1142 19.9921 32.0378 19.58 32.768 18.8038C33.5122 18.0419 33.7478 16.967 33.7478 16.0997C33.7478 15.8298 33.7275 15.587 33.6854 15.381H29.8692C29.8708 15.3794 29.8708 15.3938 29.8708 15.3938ZM58.2173 16.2914C57.9942 15.6797 57.3202 14.5553 55.9379 14.5553C54.5681 14.5553 53.4292 15.6589 53.4292 17.28C53.4292 18.8102 54.5556 20.0048 56.0706 20.0048C57.2875 20.0048 57.9958 19.243 58.2875 18.7958L57.3842 18.1761C57.0847 18.6313 56.6681 18.9299 56.0768 18.9299C55.4793 18.9299 55.0611 18.652 54.7834 18.1042L58.3422 16.5949C58.3422 16.5965 58.2173 16.2914 58.2173 16.2914ZM54.5884 17.2018C54.5603 16.1492 55.3872 15.6142 55.9785 15.6142C56.445 15.6142 56.8335 15.849 56.9661 16.1908L54.5884 17.2018ZM51.6974 19.8419H52.866V11.8368H51.6974V19.8419ZM49.7784 15.167H49.7363C49.4726 14.8459 48.9718 14.5553 48.3321 14.5553C47.0045 14.5553 45.7813 15.7515 45.7813 17.288C45.7813 18.8181 46.9982 20.0001 48.3321 20.0001C48.964 20.0001 49.4726 19.7078 49.7363 19.3803H49.7784V19.7717C49.7784 20.8114 49.2355 21.372 48.3602 21.372C47.6441 21.372 47.1995 20.845 47.0185 20.4041L46.0028 20.8386C46.2946 21.5573 47.0731 22.4469 48.3587 22.4469C49.7285 22.4469 50.8893 21.6212 50.8893 19.6071V14.7182H49.7847V15.167C49.7862 15.167 49.7784 15.167 49.7784 15.167ZM48.4367 18.9315C47.6301 18.9315 46.9561 18.2416 46.9561 17.288C46.9561 16.3265 47.6301 15.6302 48.4367 15.6302C49.2355 15.6302 49.8549 16.3345 49.8549 17.288C49.8627 18.2416 49.237 18.9315 48.4367 18.9315ZM63.6888 11.8368H60.8946V19.8419H62.0631V16.8105H63.6904C64.9838 16.8105 66.2553 15.8506 66.2553 14.3269C66.2553 12.8031 64.9884 11.8368 63.6888 11.8368ZM63.7231 15.6924H62.0616V12.9453H63.7231C64.5984 12.9453 65.093 13.6848 65.093 14.3189C65.093 14.9466 64.5922 15.6924 63.7231 15.6924ZM70.9389 14.5473C70.0902 14.5473 69.2149 14.9322 68.853 15.7707L69.8889 16.2115C70.112 15.7707 70.5208 15.6206 70.9529 15.6206C71.5583 15.6206 72.1699 15.9911 72.1839 16.6524V16.737C71.9749 16.6156 71.5162 16.4303 70.967 16.4303C69.8483 16.4303 68.7141 17.0564 68.7141 18.2304C68.7141 19.3053 69.6315 19.9953 70.6534 19.9953C71.4382 19.9953 71.8703 19.6327 72.1402 19.2126H72.1824V19.8324H73.3088V16.7658C73.3088 15.3379 72.2728 14.5473 70.9389 14.5473ZM70.7922 18.9315C70.41 18.9315 69.8749 18.7399 69.8749 18.2479C69.8749 17.6282 70.5426 17.3934 71.1121 17.3934C71.6269 17.3934 71.8703 17.5068 72.1761 17.6634C72.0919 18.3821 71.499 18.9251 70.7922 18.9315ZM77.4183 14.7182L76.0765 18.1904H76.0344L74.6443 14.7182H73.3868L75.4727 19.572L74.2839 22.2697H75.5008L78.7101 14.7182H77.4183ZM66.8996 19.8419H68.0682V11.8368H66.8996V19.8419Z" fill="white"/>
<path fill-rule="evenodd" clip-rule="evenodd" d="M6.52773 5.45288C6.34675 5.65253 6.24222 5.95759 6.24222 6.35689V20.5191C6.24222 20.9184 6.34675 21.2235 6.53397 21.4151L6.58233 21.4583L14.3332 13.5235V13.3462L6.57609 5.40976L6.52773 5.45288Z" fill="url(#paint0_linear_1_470)"/>
<path fill-rule="evenodd" clip-rule="evenodd" d="M16.9121 16.1764L14.3269 13.5299V13.3446L16.9121 10.6981L16.9682 10.7332L20.0262 12.5125C20.9014 13.0172 20.9014 13.8509 20.0262 14.362L16.9682 16.1413L16.9121 16.1764Z" fill="url(#paint1_linear_1_470)"/>
<path fill-rule="evenodd" clip-rule="evenodd" d="M16.9683 16.1413L14.3269 13.4372L6.52769 21.4215C6.8132 21.7346 7.29217 21.7697 7.8273 21.4647L16.9683 16.1413Z" fill="url(#paint2_linear_1_470)"/>
<path fill-rule="evenodd" clip-rule="evenodd" d="M16.9683 10.7332L7.8273 5.41776C7.29217 5.10472 6.81164 5.14784 6.52769 5.46089L14.3269 13.4372L16.9683 10.7332Z" fill="url(#paint3_linear_1_470)"/>
<path opacity="0.2" fill-rule="evenodd" clip-rule="evenodd" d="M16.9121 16.0838L7.83352 21.3641C7.32646 21.6627 6.87401 21.642 6.58226 21.3705L6.5339 21.42L6.58226 21.4631C6.87401 21.733 7.32646 21.7554 7.83352 21.4567L16.9745 16.1413L16.9121 16.0838Z" fill="black"/>
<path opacity="0.12" fill-rule="evenodd" clip-rule="evenodd" d="M20.0262 14.2694L16.9043 16.0838L16.9605 16.1413L20.0184 14.362C20.4568 14.1064 20.6721 13.771 20.6721 13.4372C20.6456 13.7439 20.4225 14.0346 20.0262 14.2694Z" fill="black"/>
<path opacity="0.25" fill-rule="evenodd" clip-rule="evenodd" d="M7.82734 5.51041L20.0262 12.6051C20.4225 12.8335 20.6456 13.1322 20.6799 13.4372C20.6799 13.1034 20.4646 12.768 20.0262 12.5125L7.82734 5.41778C6.95209 4.90508 6.24222 5.33313 6.24222 6.35692V6.44956C6.24222 5.42417 6.95209 5.00411 7.82734 5.51041Z" fill="white"/>
</g>
<defs>
<linearGradient id="paint0_linear_1_470" x1="13.638" y1="6.20409" x2="1.18458" y2="9.4454" gradientUnits="userSpaceOnUse">
<stop stop-color="#00A0FF"/>
<stop offset="0.00657" stop-color="#00A1FF"/>
<stop offset="0.2601" stop-color="#00BEFF"/>
<stop offset="0.5122" stop-color="#00D2FF"/>
<stop offset="0.7604" stop-color="#00DFFF"/>
<stop offset="1" stop-color="#00E3FF"/>
</linearGradient>
<linearGradient id="paint1_linear_1_470" x1="21.1676" y1="13.4373" x2="6.02935" y2="13.4373" gradientUnits="userSpaceOnUse">
<stop stop-color="#FFE000"/>
<stop offset="0.4087" stop-color="#FFBD00"/>
<stop offset="0.7754" stop-color="#FFA500"/>
<stop offset="1" stop-color="#FF9C00"/>
</linearGradient>
<linearGradient id="paint2_linear_1_470" x1="15.532" y1="14.9086" x2="5.21546" y2="31.8697" gradientUnits="userSpaceOnUse">
<stop stop-color="#FF3A44"/>
<stop offset="1" stop-color="#C31162"/>
</linearGradient>
<linearGradient id="paint3_linear_1_470" x1="4.56376" y1="0.742321" x2="9.16648" y2="8.31757" gradientUnits="userSpaceOnUse">
<stop stop-color="#32A071"/>
<stop offset="0.0685" stop-color="#2DA771"/>
<stop offset="0.4762" stop-color="#15CF74"/>
<stop offset="0.8009" stop-color="#06E775"/>
<stop offset="1" stop-color="#00F076"/>
</linearGradient>
<clipPath id="clip0_1_470">
<rect width="84.8072" height="25.6188" fill="white" transform="translate(0 0.627808)"/>
</clipPath>
</defs>
</svg>
