<svg xmlns="http://www.w3.org/2000/svg" width="38" height="38" viewBox="0 0 38 38">
    <g fill="none" fill-rule="evenodd">
        <path d="M0 0H38V38H0z"/>
        <circle cx="19" cy="19.018" r="18.406" fill="#E9F4F5"/>
        <path fill="#EF4050" d="M26.248 5.938c-.182 0-.364.067-.504.206l-1.018.984c-.28.271-.28.709 0 .98.14.137.325.204.51.204.183 0 .368-.067.508-.203l1.011-.981c.284-.275.284-.712 0-.984-.14-.139-.322-.207-.507-.207zM28.701 8.313c-.185 0-.367.068-.507.204l-1.016.982c-.28.274-.28.712 0 .987.14.133.323.201.508.201s.367-.068.508-.2l1.015-.988c.28-.272.28-.71 0-.982-.14-.14-.323-.207-.508-.204zM32.379 11.875c-.183 0-.368.068-.508.204l-1.015.983c-.281.272-.281.712 0 .984.14.136.322.204.507.204s.368-.068.508-.204l1.015-.983c.28-.272.28-.712 0-.984-.14-.136-.325-.204-.507-.204zM34.83 14.25c-.182 0-.367.068-.507.204l-1.016.983c-.28.272-.28.712 0 .984.14.136.323.204.508.204s.367-.068.508-.204l1.015-.983c.28-.272.28-.712 0-.984-.14-.136-.325-.204-.508-.204z"/>
        <path fill="#FFF" d="M18.734 36.275l-11.49-9.847-6.018-10.682.51-1.745 9.027-8.862 1.7-.389 4.378 1.757-3.879 1.923-4.948 3.644c-.878.97-.878 1.612 0 1.927.88.316 2.07.638 3.57.968l5.499-2.554 3.66.456 2.01 1.13 9.793 10.746.55 1.989-.666 1.38-1.483.545-1.38-.546v2.537l-.971 1.093h-1.43l-1.434-.987-.183 2.198-.97 1.187-2.252-.32-.374 1.472-1.21 1.517-2.009-.537z"/>
        <path fill="#02647A" fill-rule="nonzero" stroke="#FFF" stroke-width=".1" d="M26.622 3.566c-.416-.021-.84.049-1.245.21L22.91 4.78l-3.812.412c-.52.057-1.03.15-1.532.267-.007-.002-.01-.004-.014-.008l-3.668-1.609c-1.08-.473-2.366-.243-3.2.575l-8.621 8.428c-.892.874-1.096 2.24-.493 3.324l3.905 7.02L4.3 24.394c-.981 1.01-.963 2.572.047 3.558.49.482 1.147.747 1.842.747.07 0 .137-.015.206-.02l-.092.097c-.871.907-.849 2.311.056 3.197.46.449 1.058.674 1.658.674.576 0 1.152-.208 1.61-.626l.098-.09c-.007.068-.023.134-.023.204 0 .681.271 1.32.767 1.803.51.502 1.178.754 1.844.754.643 0 1.286-.233 1.792-.701l.05-.047c.062.575.32 1.127.752 1.55.513.501 1.188.755 1.862.755.616 0 1.235-.214 1.732-.64l.645.557c.5.432 1.125.647 1.748.647.681 0 1.358-.255 1.871-.756.5-.489.775-1.138.775-1.83 0-.096-.006-.195-.018-.291.968.346 2.089.131 2.848-.612.551-.539.814-1.253.791-1.96 1.044.591 2.39.433 3.267-.421.681-.666.923-1.606.721-2.465.886.197 1.847-.044 2.526-.708 1.057-1.034 1.113-2.708.12-3.814l-.732-.789c.959-.874 1.766-1.884 2.39-3.015l2.205-3.985c.601-1.085.397-2.448-.495-3.317l-8.655-8.464c-.516-.504-1.188-.787-1.885-.82zm-.056 1.12c.417.02.82.19 1.13.493l8.657 8.462c.534.523.655 1.343.296 1.991l-2.205 3.986c-.562 1.018-1.29 1.928-2.153 2.716l-8.568-9.213c-1.826-1.783-4.537-2.305-6.914-1.323l-3.872 1.595c-1.28.528-2.714.454-3.93-.208-.17-.092-.276-.252-.294-.443-.016-.188.06-.366.213-.486L13.6 8.588c1.618-1.27 3.563-2.057 5.624-2.28l3.892-.421c.029-.003.051-.018.078-.024.027-.007.054-.005.08-.016l2.544-1.034c.242-.099.497-.14.748-.127zm-13.91.033c.258-.007.518.04.76.147l2.52 1.106c-1.093.43-2.123 1.012-3.053 1.742l-4.674 3.668c-.448.35-.686.896-.636 1.454.047.56.376 1.057.878 1.33 1.526.829 3.323.923 4.934.261l3.87-1.597c1.944-.802 4.165-.375 5.637 1.065L32.94 24.7c.587.657.553 1.656-.08 2.276-.556.541-1.441.596-2.06.125l-2.164-1.648c-.24-.181-.583-.149-.782.073-.202.221-.19.558.022.769l1.739 1.698c.607.594.607 1.56 0 2.156-.556.54-1.44.596-2.061.125l-2.163-1.648c-.24-.182-.582-.149-.782.072-.201.222-.19.559.023.77l.927.902c.608.596.608 1.562 0 2.156-.555.543-1.44.598-2.059.127l-2.166-1.645c-.238-.182-.58-.152-.782.07-.2.221-.189.558.026.767l1.374 1.345c.282.276.44.644.44 1.036 0 .39-.158.758-.44 1.034-.558.546-1.456.574-2.048.062l-7.322-6.317-3.491-3.008c-.957-.828-1.752-1.803-2.364-2.901l-4.15-7.465c-.36-.648-.24-1.47.296-1.991l8.62-8.431c.313-.307.735-.476 1.163-.491zm12.555 15.523c-.148 0-.294.055-.406.164-.224.222-.224.574 0 .794l.811.793c.112.11.26.164.406.164.148 0 .296-.055.408-.164.224-.22.224-.574 0-.793l-.814-.794c-.112-.11-.257-.164-.405-.164zm-2.028 1.985c-.148 0-.293.053-.405.162-.225.222-.225.576 0 .796l.813.79c.11.11.258.165.403.165.148 0 .296-.055.406-.165.226-.219.226-.574 0-.79l-.811-.796c-.112-.11-.258-.162-.406-.162zm-17.11 1.976c.523.826 1.148 1.582 1.86 2.26l-.714.698c-.552.537-1.508.54-2.064-.002-.562-.552-.574-1.426-.022-1.992l.94-.964zm15.082.007c-.145 0-.293.053-.405.164-.224.217-.224.572 0 .791l.81.796c.113.107.259.162.406.162.148 0 .294-.055.406-.162.224-.22.224-.575 0-.796l-.811-.79c-.112-.112-.26-.165-.406-.165zm-2.027 1.98c-.146 0-.294.055-.406.167-.224.22-.224.572 0 .791l.811.795c.112.108.258.165.406.165.148 0 .293-.057.405-.165.224-.22.224-.574 0-.795l-.81-.79c-.113-.113-.26-.167-.406-.167zM9.103 27.5l1.94 1.677-2.204 2.027c-.475.436-1.208.425-1.674-.029-.462-.451-.473-1.168-.027-1.632L9.103 27.5zm7.997.673c-.148 0-.294.055-.408.165-.224.221-.224.574 0 .795l.813.791c.11.11.258.167.404.167.148 0 .295-.057.405-.167.227-.22.227-.572 0-.79l-.809-.796c-.114-.11-.26-.165-.405-.165zm-4.874 2.023l2.23 1.923-1.14 1.054c-.579.535-1.475.524-2.04-.026-.275-.272-.428-.631-.428-1.014 0-.382.153-.739.428-1.008l.95-.93zm3.157 2.725l2.239 1.93c-.583.406-1.387.356-1.907-.153-.401-.392-.54-.986-.352-1.512.034-.09.034-.18.02-.265z"/>
    </g>
</svg>
