<svg xmlns="http://www.w3.org/2000/svg" width="38" height="38" viewBox="0 0 38 38">
    <g fill="none" fill-rule="evenodd">
        <circle cx="19" cy="19" r="19" fill="#E9F4F5"/>
        <path fill="#02647A" fill-rule="nonzero" stroke="#FFF" stroke-width=".2" d="M12.542 2.733c-2.34 0-4.4 1.608-5.004 3.913L6.416 10.93H3.251c-.95 0-1.726.79-1.726 1.757v1.17c0 .968.775 1.757 1.726 1.757h.272c-.55 1.08-.848 2.292-.848 3.513v6.44c0 .954.457 1.793 1.151 2.326v2.943c0 .428.122.826.32 1.171H.949c-.32 0-.575.263-.575.586 0 .322.256.585.575.585h35.68c.32 0 .576-.263.576-.585 0-.323-.257-.586-.576-.586H33.43c.2-.345.322-.743.322-1.17v-2.944c.694-.533 1.15-1.374 1.15-2.326v-6.44c0-1.221-.296-2.434-.847-3.513h.272c.951 0 1.727-.79 1.727-1.757v-1.17c0-.968-.776-1.757-1.727-1.757h-3.165l-1.124-4.284c-.602-2.305-2.662-3.913-5.002-3.913H12.542zm0 1.171h12.494c1.821 0 3.422 1.251 3.891 3.042l1.163 4.43c.17.654.46 1.26.858 1.805l.344.464-1.007.498c-.39.197-.83.3-1.265.3h-.5c-.274-1.658-1.692-2.927-3.4-2.927-1.71 0-3.125 1.269-3.402 2.927H8.612c-.438 0-.879-.105-1.274-.304l-1.034-.52.326-.438c.398-.543.688-1.15.858-1.805l1.163-4.43c.47-1.79 2.07-3.042 3.89-3.042zm12.577 8.783c1.07 0 1.963.75 2.221 1.756h-4.442c.259-1.006 1.151-1.756 2.221-1.756zM3.826 19.232l4.793.812c.558.096.962.583.962 1.157v.268H3.826v-2.237zm29.926.002v2.235h-5.755V21.2c0-.574.404-1.061.962-1.157l4.793-.81zm-24.17 9.26h18.415v2.342c0 .428.121.826.321 1.171H9.26c.2-.345.321-.743.321-1.17v-2.342z"/>
        <path fill="#A3C8D0" d="M3.251 12.101h2.702c-.076.128-.155.254-.245.375l-1.45 1.967H3.251c-.317 0-.576-.263-.576-.586v-1.17c0-.323.259-.586.576-.586zM31.627 12.101h2.7c.317 0 .576.263.576.586v1.17c0 .323-.259.586-.576.586H33.32l-1.45-1.967c-.09-.121-.169-.247-.243-.375z"/>
        <path fill="#FFF" d="M5.602 14.571l1.228.62c.55.277 1.169.423 1.782.423H29.02c.611 0 1.223-.144 1.771-.419l1.205-.597.49.666c.607.823 1.012 1.793 1.178 2.809-.034.002-.067-.003-.101.004l-4.793.812c-1.115.19-1.924 1.162-1.924 2.312v.268c0 .645.517 1.17 1.15 1.17h5.756v2.928c0 .968-.776 1.757-1.727 1.757H5.553c-.951 0-1.727-.79-1.727-1.757V22.64h5.755c.634 0 1.151-.526 1.151-1.171V21.2c0-1.15-.809-2.122-1.924-2.312l-4.793-.812c-.033-.007-.067-.002-.1-.004.165-1.016.57-1.986 1.177-2.809l.51-.693z"/>
        <path fill="#EF4050" d="M5.506 23.81c-.32 0-.576.264-.576.586 0 .323.256.586.576.586h2.446c.319 0 .575-.263.575-.586 0-.322-.256-.585-.575-.585H5.506zM29.676 23.81c-.32 0-.575.264-.575.586 0 .323.256.586.575.586h2.446c.32 0 .575-.263.575-.586 0-.322-.256-.585-.575-.585h-2.446z"/>
        <path fill="#02647A" d="M13.034 20.298c-.319 0-.575.263-.575.585v1.171c0 .323.256.586.575.586.32 0 .576-.263.576-.586v-1.17c0-.323-.257-.586-.576-.586zM15.912 20.298c-.32 0-.576.263-.576.585v1.171c0 .323.256.586.576.586.319 0 .575-.263.575-.586v-1.17c0-.323-.256-.586-.575-.586zM18.79 20.298c-.32 0-.576.263-.576.585v1.171c0 .323.256.586.575.586.32 0 .576-.263.576-.586v-1.17c0-.323-.257-.586-.576-.586zM21.666 20.298c-.319 0-.575.263-.575.585v1.171c0 .323.256.586.575.586.32 0 .576-.263.576-.586v-1.17c0-.323-.256-.586-.576-.586zM24.544 20.298c-.32 0-.576.263-.576.585v1.171c0 .323.257.586.576.586.32 0 .575-.263.575-.586v-1.17c0-.323-.256-.586-.575-.586z"/>
        <path fill="#EF4050" d="M10.11 23.81c-.32 0-.576.264-.576.586 0 .323.256.586.576.586h17.408c.32 0 .575-.263.575-.586 0-.322-.256-.585-.575-.585H10.11z"/>
        <path fill="#A3C8D0" d="M4.977 28.495H8.43v2.341c0 .645-.517 1.171-1.15 1.171H6.127c-.634 0-1.15-.526-1.15-1.17v-2.342zM29.148 28.495H32.6v2.341c0 .645-.517 1.171-1.151 1.171h-1.151c-.634 0-1.151-.526-1.151-1.17v-2.342z"/>
        <path fill="#02647A" fill-rule="nonzero" stroke="#FFF" stroke-width=".3" d="M12.542 2.733c-2.34 0-4.4 1.608-5.004 3.913L6.416 10.93H3.251c-.95 0-1.726.79-1.726 1.757v1.17c0 .968.775 1.757 1.726 1.757h.272c-.55 1.08-.848 2.292-.848 3.513v6.44c0 .954.457 1.793 1.151 2.326v2.943c0 .428.122.826.32 1.171H.949c-.32 0-.575.263-.575.586 0 .322.256.585.575.585h35.68c.32 0 .576-.263.576-.585 0-.323-.257-.586-.576-.586H33.43c.2-.345.322-.743.322-1.17v-2.944c.694-.533 1.15-1.374 1.15-2.326v-6.44c0-1.221-.296-2.434-.847-3.513h.272c.951 0 1.727-.79 1.727-1.757v-1.17c0-.968-.776-1.757-1.727-1.757h-3.165l-1.124-4.284c-.602-2.305-2.662-3.913-5.002-3.913H12.542zm0 1.171h12.494c1.821 0 3.422 1.251 3.891 3.042l1.163 4.43c.17.654.46 1.26.858 1.805l.344.464-1.007.498c-.39.197-.83.3-1.265.3h-.5c-.274-1.658-1.692-2.927-3.4-2.927-1.71 0-3.125 1.269-3.402 2.927H8.612c-.438 0-.879-.105-1.274-.304l-1.034-.52.326-.438c.398-.543.688-1.15.858-1.805l1.163-4.43c.47-1.79 2.07-3.042 3.89-3.042zm12.577 8.783c1.07 0 1.963.75 2.221 1.756h-4.442c.259-1.006 1.151-1.756 2.221-1.756zM3.826 19.232l4.793.812c.558.096.962.583.962 1.157v.268H3.826v-2.237zm29.926.002v2.235h-5.755V21.2c0-.574.404-1.061.962-1.157l4.793-.81zm-24.17 9.26h18.415v2.342c0 .428.121.826.321 1.171H9.26c.2-.345.321-.743.321-1.17v-2.342z"/>
        <path fill="#A3C8D0" d="M3.251 12.101h2.702c-.076.128-.155.254-.245.375l-1.45 1.967H3.251c-.317 0-.576-.263-.576-.586v-1.17c0-.323.259-.586.576-.586zM31.627 12.101h2.7c.317 0 .576.263.576.586v1.17c0 .323-.259.586-.576.586H33.32l-1.45-1.967c-.09-.121-.169-.247-.243-.375z"/>
        <path fill="#FFF" d="M5.602 14.571l1.228.62c.55.277 1.169.423 1.782.423H29.02c.611 0 1.223-.144 1.771-.419l1.205-.597.49.666c.607.823 1.012 1.793 1.178 2.809-.034.002-.067-.003-.101.004l-4.793.812c-1.115.19-1.924 1.162-1.924 2.312v.268c0 .645.517 1.17 1.15 1.17h5.756v2.928c0 .968-.776 1.757-1.727 1.757H5.553c-.951 0-1.727-.79-1.727-1.757V22.64h5.755c.634 0 1.151-.526 1.151-1.171V21.2c0-1.15-.809-2.122-1.924-2.312l-4.793-.812c-.033-.007-.067-.002-.1-.004.165-1.016.57-1.986 1.177-2.809l.51-.693z"/>
        <path fill="#EF4050" d="M5.506 23.81c-.32 0-.576.264-.576.586 0 .323.256.586.576.586h2.446c.319 0 .575-.263.575-.586 0-.322-.256-.585-.575-.585H5.506zM29.676 23.81c-.32 0-.575.264-.575.586 0 .323.256.586.575.586h2.446c.32 0 .575-.263.575-.586 0-.322-.256-.585-.575-.585h-2.446z"/>
        <path fill="#02647A" d="M13.034 20.298c-.319 0-.575.263-.575.585v1.171c0 .323.256.586.575.586.32 0 .576-.263.576-.586v-1.17c0-.323-.257-.586-.576-.586zM15.912 20.298c-.32 0-.576.263-.576.585v1.171c0 .323.256.586.576.586.319 0 .575-.263.575-.586v-1.17c0-.323-.256-.586-.575-.586zM18.79 20.298c-.32 0-.576.263-.576.585v1.171c0 .323.256.586.575.586.32 0 .576-.263.576-.586v-1.17c0-.323-.257-.586-.576-.586zM21.666 20.298c-.319 0-.575.263-.575.585v1.171c0 .323.256.586.575.586.32 0 .576-.263.576-.586v-1.17c0-.323-.256-.586-.576-.586zM24.544 20.298c-.32 0-.576.263-.576.585v1.171c0 .323.257.586.576.586.32 0 .575-.263.575-.586v-1.17c0-.323-.256-.586-.575-.586z"/>
        <path fill="#EF4050" d="M10.11 23.81c-.32 0-.576.264-.576.586 0 .323.256.586.576.586h17.408c.32 0 .575-.263.575-.586 0-.322-.256-.585-.575-.585H10.11z"/>
        <path fill="#A3C8D0" d="M4.977 28.495H8.43v2.341c0 .645-.517 1.171-1.15 1.171H6.127c-.634 0-1.15-.526-1.15-1.17v-2.342zM29.148 28.495H32.6v2.341c0 .645-.517 1.171-1.151 1.171h-1.151c-.634 0-1.151-.526-1.151-1.17v-2.342z"/>
    </g>
</svg>
