<svg xmlns="http://www.w3.org/2000/svg" width="38" height="38" viewBox="0 0 38 38">
    <g fill="none" fill-rule="evenodd">
        <circle cx="18.406" cy="18.406" r="18.406" fill="#E9F4F5"/>
        <path fill="#FFF" stroke="#02647A" stroke-width=".9" d="M27.47 35.38h-.668v-5.897H10.757v5.896h-.669c-.738 0-1.337.587-1.337 1.31 0 .725.599 1.311 1.337 1.311H27.47c.74 0 1.338-.586 1.338-1.31 0-.724-.599-1.31-1.338-1.31zM32.15 0H5.41C4.669 0 4.07.586 4.07 1.31c0 .724.599 1.31 1.338 1.31 0 16.38 10.028 26.863 10.028 26.863h6.685S32.15 19.655 32.15 2.62c.739 0 1.337-.587 1.337-1.31C33.487.585 32.89 0 32.15 0z"/>
        <path stroke="#02647A" stroke-width=".9" d="M28.306 21.99c0-4.94 9.452-6.793 9.452-12.66 0-1.543-1.27-2.778-2.836-2.778h0c-1.566 0-2.835 1.244-2.835 2.778h0c0 1.151.714 2.139 1.731 2.56M9.452 21.99C9.452 17.05 0 15.196 0 9.33c0-1.543 1.27-2.778 2.835-2.778h0c1.566 0 2.836 1.244 2.836 2.778h0c0 1.151-.714 2.139-1.732 2.56"/>
        <path fill="#EF4050" fill-rule="nonzero" d="M26.635 1.966c-.37 0-.669.293-.669.655 0 .362.3.655.669.655.369 0 .668-.293.668-.655 0-.362-.299-.655-.668-.655zm2.674 0c-.37 0-.669.293-.669.655 0 .362.3.655.669.655.37 0 .668-.293.668-.655 0-.362-.299-.655-.668-.655zm-5.348 0c-.37 0-.669.293-.669.655 0 .362.3.655.669.655.369 0 .668-.293.668-.655 0-.362-.3-.655-.668-.655zm-2.675 0c-.369 0-.668.293-.668.655 0 .362.3.655.668.655.37 0 .669-.293.669-.655 0-.362-.3-.655-.669-.655zm-2.674 0c-.369 0-.668.293-.668.655 0 .362.299.655.668.655.37 0 .669-.293.669-.655 0-.362-.3-.655-.669-.655zm-2.674 0c-.37 0-.668.293-.668.655 0 .362.299.655.668.655.37 0 .669-.293.669-.655 0-.362-.3-.655-.669-.655zm-2.674 0c-.37 0-.669.293-.669.655 0 .362.3.655.669.655.37 0 .668-.293.668-.655 0-.362-.299-.655-.668-.655zM23.96 34.724c-.37 0-.669.293-.669.655 0 .362.3.655.669.655.369 0 .668-.293.668-.655 0-.362-.3-.655-.668-.655zm-2.675 0c-.369 0-.668.293-.668.655 0 .362.3.655.668.655.37 0 .669-.293.669-.655 0-.362-.3-.655-.669-.655zm-2.674 0c-.369 0-.668.293-.668.655 0 .362.299.655.668.655.37 0 .669-.293.669-.655 0-.362-.3-.655-.669-.655zm-2.674 0c-.37 0-.668.293-.668.655 0 .362.299.655.668.655.37 0 .669-.293.669-.655 0-.362-.3-.655-.669-.655zm-2.674 0c-.37 0-.669.293-.669.655 0 .362.3.655.669.655.37 0 .668-.293.668-.655 0-.362-.299-.655-.668-.655zM10.59 1.966c-.37 0-.669.293-.669.655 0 .362.3.655.669.655.369 0 .668-.293.668-.655 0-.362-.299-.655-.668-.655zm-2.674 0c-.37 0-.669.293-.669.655 0 .362.3.655.669.655.369 0 .668-.293.668-.655 0-.362-.3-.655-.668-.655z"/>
        <path stroke="#02647A" stroke-width=".9" d="M16.625 8.404L21.565 8.404M16.625 15.197L21.565 15.197"/>
    </g>
</svg>
