<svg xmlns="http://www.w3.org/2000/svg" width="38" height="38" viewBox="0 0 38 38">
    <g fill="none" fill-rule="evenodd">
        <path d="M0 0H38V38H0z"/>
        <circle cx="19" cy="19.018" r="18.406" fill="#E9F4F5"/>
        <path fill="#EF4050" d="M16.42 17.549c-.13 0-.235.237-.235.527 0 .291.105.528.235.528h.469c.13 0 .234-.237.234-.528 0-.29-.104-.527-.234-.527h-.47zM18.296 17.549c-.13 0-.234.237-.234.527 0 .291.104.528.234.528h.47c.13 0 .234-.237.234-.528 0-.29-.104-.527-.235-.527h-.469zM20.173 17.549c-.13 0-.235.237-.235.527 0 .291.105.528.235.528h.469c.13 0 .235-.237.235-.528 0-.29-.105-.527-.235-.527h-.47zM22.988 17.549c-.13 0-.235.237-.235.527 0 .291.105.528.235.528h.469c.13 0 .234-.237.234-.528 0-.29-.104-.527-.234-.527h-.47zM24.864 17.549c-.13 0-.234.237-.234.527 0 .291.104.528.234.528h.47c.13 0 .234-.237.234-.528 0-.29-.105-.527-.235-.527h-.469zM26.74 17.549c-.13 0-.234.237-.234.527 0 .291.105.528.235.528h.469c.13 0 .234-.237.234-.528 0-.29-.104-.527-.234-.527h-.47zM28.617 17.549c-.13 0-.234.237-.234.527 0 .291.104.528.234.528h.47c.13 0 .234-.237.234-.528 0-.29-.104-.527-.235-.527h-.469zM22.05 23.882c-.13 0-.235.237-.235.528 0 .29.104.527.234.527h.47c.13 0 .234-.237.234-.527 0-.291-.104-.528-.234-.528h-.47zM20.173 23.882c-.13 0-.235.237-.235.528 0 .29.105.527.235.527h.469c.13 0 .235-.237.235-.527 0-.291-.105-.528-.235-.528h-.47zM18.296 23.882c-.13 0-.234.237-.234.528 0 .29.104.527.234.527h.47c.13 0 .234-.237.234-.527 0-.291-.104-.528-.235-.528h-.469zM15.481 23.882c-.13 0-.234.237-.234.528 0 .29.104.527.234.527h.47c.13 0 .234-.237.234-.527 0-.291-.104-.528-.234-.528h-.47zM13.605 23.882c-.13 0-.235.237-.235.528 0 .29.105.527.235.527h.47c.13 0 .234-.237.234-.527 0-.291-.105-.528-.235-.528h-.47zM11.728 23.882c-.13 0-.234.237-.234.528 0 .29.104.527.234.527h.47c.13 0 .234-.237.234-.527 0-.291-.104-.528-.234-.528h-.47zM9.852 23.882c-.13 0-.235.237-.235.528 0 .29.105.527.235.527h.469c.13 0 .235-.237.235-.527 0-.291-.105-.528-.235-.528h-.47z"/>
        <path fill="#FFF" d="M11.494 30.793L1.74 21.771 11.494 12.736 13.272 13.827 5.44 20.873 23.282 20.873 23.691 22.531 5.44 22.531 12.716 29.399z"/>
        <path fill="#02647A" fill-rule="nonzero" d="M24.043 20.766c0-.186-.17-.336-.38-.336H6.308l6.964-6.13c.149-.13.149-.342 0-.473l-1.522-1.34c-.15-.132-.39-.132-.539 0L.933 21.533c-.075.065-.112.15-.112.237 0 .086.037.171.112.237l10.278 9.047c.149.131.39.131.539 0l1.522-1.34c.149-.13.149-.343 0-.474l-6.964-6.13h17.355c.21 0 .38-.149.38-.335v-2.01zm-.761.335v1.34H5.389c-.153 0-.293.081-.35.207-.06.126-.027.27.081.365l7.345 6.465-.985.867-9.74-8.574 9.74-8.574.985.867-7.345 6.465c-.108.095-.141.24-.082.365.058.125.198.207.351.207h17.893z"/>
        <path fill="#A3C8D0" d="M24.389 24.41L14.309 15.437 24.389 6.773 25.406 7.834 18.647 14.425 36.587 14.425 36.587 16.383 18.647 16.658 25.797 22.826z" transform="matrix(-1 0 0 1 50.895 0)"/>
        <path fill="#02647A" fill-rule="nonzero" d="M13.957 16.443c0 .186.17.335.38.335h17.355l-6.964 6.13c-.149.13-.149.343 0 .474l1.522 1.34c.15.13.39.13.539 0l10.278-9.048c.075-.065.112-.15.112-.237 0-.086-.037-.171-.112-.236L26.79 6.153c-.149-.13-.39-.13-.539 0l-1.522 1.34c-.149.131-.149.343 0 .474l6.964 6.13H14.337c-.21 0-.38.15-.38.335v2.01zm.761-.335v-1.34h17.893c.153 0 .293-.082.35-.208.06-.125.027-.27-.081-.365L25.535 7.73l.985-.866 9.74 8.573-9.74 8.574-.985-.866 7.345-6.465c.108-.096.141-.241.082-.365-.058-.126-.198-.207-.351-.207H14.718z"/>
    </g>
</svg>
