<svg width="747" height="547" viewBox="0 0 747 547" fill="none" xmlns="http://www.w3.org/2000/svg">
<path d="M658.42 288.553C661.408 259.485 652.175 229.138 639.805 202.127C621.503 161.912 585.767 120.701 525.708 111.183C491.077 105.713 455.834 111.577 426.133 125.317C397.583 138.533 375.337 155.61 340.213 158.914C304.701 162.262 268.262 160.916 232.57 160.916C140.794 160.916 66.3179 231.512 84.9332 305.051C103.548 378.589 191.336 429.581 265.812 429.581C332.743 429.581 387.812 400.185 451.382 392.286C482.905 388.37 514.563 393.008 545.757 387.144C582.017 380.318 616.11 364.05 636.204 340.496C649.889 324.436 656.552 306.746 658.42 288.553Z" fill="#28C76F"/>
<path opacity="0.7" d="M658.42 288.553C661.408 259.485 652.175 229.138 639.805 202.127C621.503 161.912 585.767 120.701 525.708 111.183C491.077 105.713 455.834 111.577 426.133 125.317C397.583 138.533 375.337 155.61 340.213 158.914C304.701 162.262 268.262 160.916 232.57 160.916C140.794 160.916 66.3179 231.512 84.9332 305.051C103.548 378.589 191.336 429.581 265.812 429.581C332.743 429.581 387.812 400.185 451.382 392.286C482.905 388.37 514.563 393.008 545.757 387.144C582.017 380.318 616.11 364.05 636.204 340.496C649.889 324.436 656.552 306.746 658.42 288.553Z" fill="white"/>
<path d="M647.68 278.346C647.68 278.346 647.68 272.876 637.222 265.295C626.764 257.713 620.131 253.315 620.131 253.315C620.131 253.315 614.931 265.831 624.613 273.456C631.72 278.811 639.426 283.722 647.65 288.137L647.68 278.346Z" fill="#28C76F"/>
<path d="M632.589 312.326C632.589 312.326 632.589 306.856 622.131 299.274C611.673 291.693 605.07 287.295 605.07 287.295C605.07 287.295 599.856 299.81 609.552 307.435C616.659 312.791 624.365 317.702 632.589 322.117V312.326Z" fill="#28C76F"/>
<path d="M647.022 287.613C647.022 287.613 647.813 282.208 659.257 275.436C670.701 268.665 677.977 264.857 677.977 264.857C677.977 264.857 681.339 277.701 670.642 284.549C662.802 289.326 654.432 293.615 645.617 297.371L647.022 287.613Z" fill="#28C76F"/>
<path d="M628.795 327.74C628.795 327.74 630.289 322.423 642.704 316.57C655.119 310.718 662.828 307.49 662.828 307.49C662.828 307.49 664.322 320.531 652.714 326.493C644.232 330.642 635.292 334.264 625.986 337.324L628.795 327.74Z" fill="#28C76F"/>
<path d="M632.217 371.5C632.217 371.5 632.217 366.03 642.675 358.438C653.133 350.846 659.751 346.47 659.751 346.47C659.751 346.47 664.965 358.985 655.269 366.599C648.165 371.96 640.459 376.875 632.232 381.292L632.217 371.5Z" fill="#28C76F"/>
<path d="M632.053 382.177C632.053 382.177 633.099 376.795 624.284 368.174C615.469 359.554 609.688 354.543 609.688 354.543C609.688 354.543 602.113 366.391 610.196 374.935C616.187 380.978 622.859 386.643 630.141 391.87L632.053 382.177Z" fill="#28C76F"/>
<path d="M621.789 413.828C621.789 413.828 621.789 408.358 632.247 400.776C642.705 393.195 649.338 388.797 649.338 388.797C649.338 388.797 654.538 401.312 644.856 408.937C637.747 414.295 630.042 419.209 621.819 423.63L621.789 413.828Z" fill="#28C76F"/>
<path d="M628.735 442.523C628.735 442.523 626.852 437.261 634.277 427.962C641.702 418.663 646.678 413.215 646.678 413.215C646.678 413.215 656.03 424.352 649.322 433.519C644.304 440.019 638.552 446.2 632.126 451.997L628.735 442.523Z" fill="#28C76F"/>
<path d="M648.62 276.957C648.097 282.621 647.149 288.26 645.781 293.848C641.658 309.405 631.379 319.448 627.27 333.495C623.162 347.542 634.964 365.648 631.752 383.699C628.54 401.75 619.009 411.782 621.743 423.827C624.477 435.871 638.879 468.495 638.879 468.495" stroke="#263238" stroke-linecap="round" stroke-linejoin="round"/>
<path d="M646.932 291.233L658.137 284.932" stroke="#263238" stroke-linecap="round" stroke-linejoin="round"/>
<path d="M647.454 283.981L642.748 277.865" stroke="#263238" stroke-linecap="round" stroke-linejoin="round"/>
<path d="M627.898 332.849C627.898 332.849 637.281 327.697 646.932 322.544" stroke="#263238" stroke-linecap="round" stroke-linejoin="round"/>
<path d="M632.59 322.117C632.59 322.117 624.762 310.892 615.902 303.453" stroke="#263238" stroke-linecap="round" stroke-linejoin="round"/>
<path d="M632.59 379.246C637.942 372.003 644.706 365.369 652.669 359.554" stroke="#263238" stroke-linecap="round" stroke-linejoin="round"/>
<path d="M630.768 386.882C627.921 381.971 624.518 377.243 620.594 372.748C615.126 366.829 614.334 366.063 614.334 366.063" stroke="#263238" stroke-linecap="round" stroke-linejoin="round"/>
<path d="M621.789 423.827C624.171 419.515 626.998 415.342 630.245 411.344C633.494 407.629 637.157 404.116 641.196 400.842" stroke="#263238" stroke-linecap="round" stroke-linejoin="round"/>
<path d="M632.126 451.997C631.581 447.874 632.551 443.719 634.935 439.963C638.849 434.427 643.271 427.174 645.094 424.308" stroke="#263238" stroke-linecap="round" stroke-linejoin="round"/>
<path d="M562.791 351.042C562.791 351.042 561.984 347.629 567.377 342.017C572.771 336.404 576.341 333.155 576.341 333.155C576.341 333.155 581.451 340.594 576.521 346.13C572.859 350.057 568.756 353.753 564.255 357.18L562.791 351.042Z" fill="#28C76F"/>
<path d="M577.297 371.151C577.297 371.151 576.49 367.737 581.883 362.125C587.277 356.513 590.847 353.264 590.847 353.264C590.847 353.264 595.957 360.703 591.027 366.249C587.362 370.171 583.26 373.863 578.761 377.288L577.297 371.151Z" fill="#28C76F"/>
<path d="M564.568 356.797C564.568 356.797 563.283 353.515 555.096 350.134C546.909 346.754 541.799 344.981 541.799 344.981C541.799 344.981 541.59 353.307 549.269 356.742C554.892 359.112 560.773 361.136 566.854 362.792L564.568 356.797Z" fill="#28C76F"/>
<path d="M581.958 380.515C581.958 380.515 580.195 377.298 571.589 374.607C562.984 371.916 557.605 370.516 557.605 370.516C557.605 370.516 558.591 378.808 566.779 381.631C572.711 383.555 578.853 385.114 585.14 386.291L581.958 380.515Z" fill="#28C76F"/>
<path d="M586.291 408.226C586.291 408.226 585.499 404.812 577.835 400.863C570.171 396.914 565.345 394.715 565.345 394.715C565.345 394.715 563.941 402.975 571.127 406.979C576.377 409.778 581.939 412.248 587.755 414.363L586.291 408.226Z" fill="#28C76F"/>
<path d="M587.994 414.91C587.994 414.91 586.5 411.628 590.788 405.502C595.076 399.375 597.914 395.798 597.914 395.798C597.914 395.798 604.413 402.624 600.618 408.63C597.759 412.894 594.416 416.975 590.624 420.829L587.994 414.91Z" fill="#28C76F"/>
<path d="M601.052 442.424C601.052 442.424 601.59 438.989 608.925 434.766C616.261 430.543 620.877 428.104 620.877 428.104C620.877 428.104 622.924 436.298 616.066 440.597C611.044 443.606 605.687 446.303 600.051 448.66L601.052 442.424Z" fill="#28C76F"/>
<path d="M599.095 433.935C599.095 433.935 598.288 430.521 590.639 426.572C582.99 422.623 578.179 420.424 578.179 420.424C578.179 420.424 576.775 428.684 583.961 432.699C589.215 435.493 594.777 437.963 600.589 440.083L599.095 433.935Z" fill="#28C76F"/>
<path d="M599.094 452.489C599.094 452.489 599.483 449.032 593.447 443.792C587.411 438.552 583.497 435.532 583.497 435.532C583.497 435.532 579.269 443.256 584.842 448.474C588.926 452.149 593.424 455.567 598.288 458.692L599.094 452.489Z" fill="#28C76F"/>
<path d="M561.998 350.232C563.167 353.744 564.598 357.207 566.286 360.604C571.171 370.034 579.104 375.515 583.766 383.993C588.427 392.472 583.766 404.779 588.367 415.84C592.969 426.9 600.588 432.436 600.588 440.203C600.588 447.97 596.465 469.577 596.465 469.577" stroke="#263238" stroke-linecap="round" stroke-linejoin="round"/>
<path d="M565.18 359.05L557.217 355.998" stroke="#263238" stroke-linecap="round" stroke-linejoin="round"/>
<path d="M563.775 354.543L565.807 350.342" stroke="#263238" stroke-linecap="round" stroke-linejoin="round"/>
<path d="M583.272 383.643C583.272 383.643 576.624 381.16 569.826 378.688" stroke="#263238" stroke-linecap="round" stroke-linejoin="round"/>
<path d="M578.746 377.288C580.706 372.78 583.284 368.429 586.44 364.302" stroke="#263238" stroke-linecap="round" stroke-linejoin="round"/>
<path d="M587.217 413.105C582.784 408.997 577.56 405.382 571.709 402.373" stroke="#263238" stroke-linecap="round" stroke-linejoin="round"/>
<path d="M589.488 417.744C590.552 414.443 591.986 411.212 593.776 408.084C596.331 403.938 596.764 403.391 596.764 403.391" stroke="#263238" stroke-linecap="round" stroke-linejoin="round"/>
<path d="M600.23 446.1C602.821 443.749 605.691 441.571 608.806 439.59C610.788 438.522 612.646 437.337 614.364 436.046" stroke="#263238" stroke-linecap="round" stroke-linejoin="round"/>
<path d="M600.588 440.204C598.454 437.683 596.062 435.283 593.432 433.027C590.842 430.957 588.024 429.047 585.006 427.316" stroke="#263238" stroke-linecap="round" stroke-linejoin="round"/>
<path d="M598.287 458.692C598.019 456.061 596.797 453.531 594.746 451.362C591.474 448.201 587.619 444 586.051 442.348" stroke="#263238" stroke-linecap="round" stroke-linejoin="round"/>
<path d="M138.45 303.388L131.906 289.702L138.45 295.511L133.311 274.976L141.259 289.702L144.067 260.94L148.744 288.323L153.883 282.853V289.702L159.964 280.457L156.692 296.539L162.294 293.804L153.42 302.698L138.45 303.388Z" fill="#28C76F"/>
<path d="M159.022 299.964H134.715L139.092 335.902H154.645L159.022 299.964Z" fill="#263238" stroke="#263238" stroke-linecap="round" stroke-linejoin="round"/>
<path d="M204.619 335.496H121.807V463.932H204.619V335.496Z" fill="white" stroke="#263238" stroke-linecap="round" stroke-linejoin="round"/>
<path d="M209.146 335.496H163.205V463.932H209.146V335.496Z" fill="white" stroke="#263238" stroke-linecap="round" stroke-linejoin="round"/>
<path d="M203.976 335.496H163.205V463.932H203.976V335.496Z" fill="#263238" stroke="#263238" stroke-linecap="round" stroke-linejoin="round"/>
<path d="M199.39 434.065H163.205V460.365H199.39V434.065Z" fill="#28C76F" stroke="#263238" stroke-linecap="round" stroke-linejoin="round"/>
<path d="M199.39 435.488H163.205V438.858H199.39V435.488Z" fill="white" stroke="#263238" stroke-linecap="round" stroke-linejoin="round"/>
<path d="M199.39 454.852H163.205V458.221H199.39V454.852Z" fill="white" stroke="#263238" stroke-linecap="round" stroke-linejoin="round"/>
<path d="M170.062 434.613V467.871" stroke="#263238" stroke-linecap="round" stroke-linejoin="round"/>
<path d="M182.688 434.613V467.871" stroke="#263238" stroke-linecap="round" stroke-linejoin="round"/>
<path d="M193.773 434.613V467.871" stroke="#263238" stroke-linecap="round" stroke-linejoin="round"/>
<path d="M199.39 340.267H163.205V378.94H199.39V340.267Z" fill="#28C76F" stroke="#263238" stroke-linecap="round" stroke-linejoin="round"/>
<path d="M199.39 341.886H163.205V345.715H199.39V341.886Z" fill="white" stroke="#263238" stroke-linecap="round" stroke-linejoin="round"/>
<path d="M199.39 366.676H163.205V370.505H199.39V366.676Z" fill="white" stroke="#263238" stroke-linecap="round" stroke-linejoin="round"/>
<path d="M170.062 340.879V378.677" stroke="#263238" stroke-linecap="round" stroke-linejoin="round"/>
<path d="M182.688 340.879V378.677" stroke="#263238" stroke-linecap="round" stroke-linejoin="round"/>
<path d="M193.773 340.879V378.677" stroke="#263238" stroke-linecap="round" stroke-linejoin="round"/>
<path d="M199.39 386.871H163.205V425.544H199.39V386.871Z" fill="#28C76F" stroke="#263238" stroke-linecap="round" stroke-linejoin="round"/>
<path d="M199.39 388.49H163.205V392.319H199.39V388.49Z" fill="white" stroke="#263238" stroke-linecap="round" stroke-linejoin="round"/>
<path d="M199.39 413.28H163.205V417.109H199.39V413.28Z" fill="white" stroke="#263238" stroke-linecap="round" stroke-linejoin="round"/>
<path d="M170.062 387.494V425.281" stroke="#263238" stroke-linecap="round" stroke-linejoin="round"/>
<path d="M182.688 387.494V425.281" stroke="#263238" stroke-linecap="round" stroke-linejoin="round"/>
<path d="M193.773 387.494V425.281" stroke="#263238" stroke-linecap="round" stroke-linejoin="round"/>
<path d="M204.604 378.403H163.205V382.801H204.604V378.403Z" fill="white" stroke="#263238" stroke-linecap="round" stroke-linejoin="round"/>
<path d="M204.604 425.303H163.205V429.701H204.604V425.303Z" fill="white" stroke="#263238" stroke-linecap="round" stroke-linejoin="round"/>
<path d="M204.604 335.496V463.921" stroke="#263238" stroke-linecap="round" stroke-linejoin="round"/>
<path d="M157.363 335.496V463.921H163.205V340.266H203.886V335.441L157.363 335.496Z" fill="white" stroke="#263238" stroke-linecap="round" stroke-linejoin="round"/>
<path d="M163.205 340.266V335.496" stroke="#263238" stroke-linecap="round" stroke-linejoin="round"/>
<path d="M204.289 276.497C199.942 270.36 198.119 265.962 198.119 264.944C198.119 262.931 204.095 261.728 204.095 261.728C213.418 258.118 257.267 263.336 277.002 265.743C288.05 267.153 299.227 267.958 310.438 268.15C310.438 268.15 313.172 266.553 316.414 264.54C319.656 262.527 335.044 249.289 341.08 248.13C347.116 246.97 352.584 249.738 352.584 249.738C352.584 249.738 362.459 254.114 360.801 254.956C359.142 255.799 335.044 271.005 329.008 273.817C322.973 276.628 310.378 275.425 299.412 277.033C289.97 278.412 251.724 280.118 242.954 280.643C236.368 281.787 229.455 281.366 223.218 279.44" fill="white"/>
<mask id="mask0_623_12" style="mask-type:luminance" maskUnits="userSpaceOnUse" x="198" y="247" width="163" height="35">
<path d="M204.289 276.497C199.942 270.36 198.119 265.962 198.119 264.944C198.119 262.931 204.095 261.728 204.095 261.728C213.418 258.118 257.267 263.336 277.002 265.743C288.05 267.153 299.227 267.958 310.438 268.15C310.438 268.15 313.172 266.553 316.414 264.54C319.656 262.527 335.044 249.289 341.08 248.13C347.116 246.97 352.584 249.738 352.584 249.738C352.584 249.738 362.459 254.114 360.801 254.956C359.142 255.799 335.044 271.005 329.008 273.817C322.973 276.628 310.378 275.425 299.412 277.033C289.97 278.412 251.724 280.118 242.954 280.643C236.368 281.787 229.455 281.366 223.218 279.44" fill="white"/>
</mask>
<g mask="url(#mask0_623_12)">
<path d="M352.689 249.694C352.689 249.694 347.206 246.882 341.185 248.086C335.165 249.289 319.806 262.537 316.52 264.496C313.233 266.454 310.544 268.106 310.544 268.106C299.332 267.914 288.156 267.109 277.108 265.699C257.372 263.292 213.523 258.041 204.201 261.684C204.201 261.684 198.225 262.887 198.225 264.9C198.432 266.026 198.829 267.128 199.405 268.182L200.227 268.401C200.227 268.401 211.178 267.559 234.813 267.975C258.448 268.39 313.113 270.764 316.624 271.694C318.118 272.11 328.711 270.359 340.453 267.318C349.417 261.969 359.95 255.284 361.011 254.814C362.565 254.103 352.689 249.694 352.689 249.694Z" fill="#28C76F"/>
<path opacity="0.5" d="M352.689 249.694C352.689 249.694 347.206 246.882 341.185 248.086C335.165 249.289 319.806 262.537 316.52 264.496C313.233 266.454 310.544 268.106 310.544 268.106C299.332 267.914 288.156 267.109 277.108 265.699C257.372 263.292 213.523 258.041 204.201 261.684C204.201 261.684 198.225 262.887 198.225 264.9C198.432 266.026 198.829 267.128 199.405 268.182L200.227 268.401C200.227 268.401 211.178 267.559 234.813 267.975C258.448 268.39 313.113 270.764 316.624 271.694C318.118 272.11 328.711 270.359 340.453 267.318C349.417 261.969 359.95 255.284 361.011 254.814C362.565 254.103 352.689 249.694 352.689 249.694Z" fill="white"/>
</g>
<path d="M204.289 276.497C199.942 270.36 198.119 265.962 198.119 264.944C198.119 262.931 204.095 261.728 204.095 261.728C213.418 258.118 257.267 263.336 277.002 265.743C288.05 267.153 299.227 267.958 310.438 268.15C310.438 268.15 313.172 266.553 316.414 264.54C319.656 262.527 335.044 249.289 341.08 248.13C347.116 246.97 352.584 249.738 352.584 249.738C352.584 249.738 362.459 254.114 360.801 254.956C359.142 255.799 335.044 271.005 329.008 273.817C322.973 276.628 310.378 275.425 299.412 277.033C289.97 278.412 251.724 280.118 242.954 280.643C236.368 281.787 229.455 281.366 223.218 279.44" stroke="#263238" stroke-linecap="round" stroke-linejoin="round"/>
<path d="M420.785 312.184C421.776 310.806 423.264 309.652 425.086 308.848C426.908 308.044 428.996 307.62 431.123 307.622H530.773C530.773 307.622 537.974 307.622 535.823 317.643C533.671 327.664 504.12 388.852 496.979 407.351C489.838 425.851 488.329 464.841 488.329 464.841H368.809C368.809 464.841 378.281 371.599 420.785 312.184Z" fill="white"/>
<mask id="mask1_623_12" style="mask-type:luminance" maskUnits="userSpaceOnUse" x="368" y="307" width="169" height="158">
<path d="M420.785 312.184C421.776 310.806 423.264 309.652 425.086 308.848C426.908 308.044 428.996 307.62 431.123 307.622H530.773C530.773 307.622 537.974 307.622 535.823 317.643C533.671 327.664 504.12 388.852 496.979 407.351C489.838 425.851 488.329 464.841 488.329 464.841H368.809C368.809 464.841 378.281 371.599 420.785 312.184Z" fill="white"/>
</mask>
<g mask="url(#mask1_623_12)">
<path opacity="0.16" d="M465.664 307.622H431.122C428.995 307.62 426.907 308.044 425.085 308.848C423.263 309.652 421.776 310.806 420.784 312.184C378.28 371.599 368.703 464.808 368.703 464.808H422.308L435.53 428.039L490.658 436.364C491.047 433.279 491.495 430.139 492.018 427.043L490.808 417.197C490.808 417.197 479.513 408.5 475.957 406.323C472.402 404.146 474.762 400.218 474.165 383.25C473.567 366.282 452.771 354.084 445.032 343.637C437.293 333.189 449.2 326.658 459.897 316.21C463.707 312.436 465.26 309.657 465.664 307.622Z" fill="black"/>
</g>
<path d="M420.785 312.184C421.776 310.806 423.264 309.652 425.086 308.848C426.908 308.044 428.996 307.62 431.123 307.622H530.773C530.773 307.622 537.974 307.622 535.823 317.643C533.671 327.664 504.12 388.852 496.979 407.351C489.838 425.851 488.329 464.841 488.329 464.841H368.809C368.809 464.841 378.281 371.599 420.785 312.184Z" stroke="#263238" stroke-linecap="round" stroke-linejoin="round"/>
<path d="M513.487 325.027C503.417 342.236 482.113 410.359 478.646 464.808H488.268C488.268 464.808 489.762 425.774 496.918 407.318C504.074 388.862 533.656 327.664 535.762 317.61C537.869 307.556 530.712 307.589 530.712 307.589C530.712 307.589 521.569 311.232 513.487 325.027Z" fill="#263238" stroke="#263238" stroke-linecap="round" stroke-linejoin="round"/>
<path d="M338.436 290.632C338.436 290.632 322.54 283.805 316.519 271.771C310.498 259.737 363.654 240.461 386.737 239.258C409.819 238.054 416.333 242.463 430.063 259.726C443.793 276.99 453.085 300.664 445.959 312.304C438.833 323.944 426.776 326.756 435.501 336.372C444.226 345.988 468.937 373.295 467.293 386.138C465.65 398.982 448.663 410.206 423.967 411.431C399.271 412.657 366.403 401.793 339.003 384.081C311.604 366.37 318.715 340.321 328.545 331.898C338.376 323.474 353.211 320.257 354.302 311.834C355.393 303.41 338.436 290.632 338.436 290.632Z" fill="#263238" stroke="#263238" stroke-linecap="round" stroke-linejoin="round"/>
<path d="M406.188 271.585C414.629 283.094 425.191 298.508 428.493 307.818C434.26 324.119 404.589 334.381 412.821 342.225" stroke="white" stroke-linecap="round" stroke-linejoin="round"/>
<path d="M394.684 256.51C394.684 256.51 397.97 260.612 402.512 266.651" stroke="white" stroke-linecap="round" stroke-linejoin="round"/>
<path d="M438.967 285.468C439.94 287.625 440.572 289.857 440.849 292.119" stroke="white" stroke-linecap="round" stroke-linejoin="round"/>
<path d="M400.391 250.526C400.391 250.526 426.356 264.573 436.725 281.388" stroke="white" stroke-linecap="round" stroke-linejoin="round"/>
<path d="M364.356 261.062C345.815 264.869 319.147 271.05 321.314 274.616" stroke="white" stroke-linecap="round" stroke-linejoin="round"/>
<path d="M381.491 257.714C381.491 257.714 377.532 258.436 371.631 259.596" stroke="white" stroke-linecap="round" stroke-linejoin="round"/>
<path d="M358.559 250.625C369.179 248.174 380.302 247.1 391.427 247.452" stroke="white" stroke-linecap="round" stroke-linejoin="round"/>
<path d="M351 252.888C352.679 252.248 354.416 251.692 356.199 251.226" stroke="white" stroke-linecap="round" stroke-linejoin="round"/>
<path d="M204.289 276.497C201.772 273.123 199.768 269.557 198.313 265.863C199.761 269.559 201.766 273.125 204.289 276.497ZM198.148 265.24C198.148 265.305 198.148 265.382 198.148 265.48C198.178 265.382 198.163 265.305 198.148 265.24ZM204.289 276.486C209.876 284.236 216.828 291.415 224.966 297.841C244.701 313.496 301.712 354.444 307.136 357.256C312.559 360.068 310.975 368.087 307.136 376.117C303.296 384.147 289.043 395.809 289.596 408.63C290.149 421.452 295.572 441.144 295.079 445.159C294.586 449.174 280.871 462.827 280.871 462.827H422.293C422.293 462.827 404.664 446.417 404.664 440.805C404.664 435.193 428.867 363.284 429.957 358.066C431.048 352.847 426.67 349.237 417.901 348.832C409.131 348.427 375.695 343.209 374.052 339.194C372.408 335.179 382.822 319.929 382.822 319.929L349.954 321.132C349.954 321.132 348.31 331.569 346.114 333.582C343.918 335.595 340.631 331.569 332.952 328.768C325.273 325.968 310.542 323.55 304.999 320.334C299.456 317.117 246.897 280.95 246.897 280.95" fill="white"/>
<mask id="mask2_623_12" style="mask-type:luminance" maskUnits="userSpaceOnUse" x="198" y="264" width="233" height="199">
<path d="M204.289 276.497C201.772 273.123 199.768 269.557 198.313 265.863C199.761 269.559 201.766 273.125 204.289 276.497ZM198.148 265.24C198.148 265.305 198.148 265.382 198.148 265.48C198.178 265.382 198.163 265.305 198.148 265.24ZM204.289 276.486C209.876 284.236 216.828 291.415 224.966 297.841C244.701 313.496 301.712 354.444 307.136 357.256C312.559 360.068 310.975 368.087 307.136 376.117C303.296 384.147 289.043 395.809 289.596 408.63C290.149 421.452 295.572 441.144 295.079 445.159C294.586 449.174 280.871 462.827 280.871 462.827H422.293C422.293 462.827 404.664 446.417 404.664 440.805C404.664 435.193 428.867 363.284 429.957 358.066C431.048 352.847 426.67 349.237 417.901 348.832C409.131 348.427 375.695 343.209 374.052 339.194C372.408 335.179 382.822 319.929 382.822 319.929L349.954 321.132C349.954 321.132 348.31 331.569 346.114 333.582C343.918 335.595 340.631 331.569 332.952 328.768C325.273 325.968 310.542 323.55 304.999 320.334C299.456 317.117 246.897 280.95 246.897 280.95" fill="white"/>
</mask>
<g mask="url(#mask2_623_12)">
<path d="M313.395 323.43C316.129 326.93 318.863 330.092 318.863 330.092C318.863 330.092 328.081 333.888 330.381 333.888C332.682 333.888 346.517 339.358 346.517 339.358C346.517 339.358 358.05 337.247 353.987 330.07C352.705 328.233 351.086 326.533 349.176 325.016C348.489 328.2 347.383 332.368 346.083 333.56C343.887 335.562 340.6 331.547 332.921 328.747C327.946 326.93 319.893 325.268 313.395 323.43Z" fill="#28C76F"/>
<path d="M285.248 307.184C268.321 295.708 246.897 280.993 246.897 280.993L234.437 279.681L232.943 280.293C232.943 280.293 268.112 303.081 275.597 305.619C278.625 306.639 281.916 307.172 285.248 307.184Z" fill="#28C76F"/>
<path d="M302.981 319.065L301.637 318.189C302.324 319.021 302.712 319.546 302.712 319.546L302.981 319.065Z" fill="#28C76F"/>
<g opacity="0.5">
<path d="M313.395 323.43C316.129 326.93 318.863 330.092 318.863 330.092C318.863 330.092 328.081 333.888 330.381 333.888C332.682 333.888 346.517 339.358 346.517 339.358C346.517 339.358 358.05 337.247 353.987 330.07C352.705 328.233 351.086 326.533 349.176 325.016C348.489 328.2 347.383 332.368 346.083 333.56C343.887 335.562 340.6 331.547 332.921 328.747C327.946 326.93 319.893 325.268 313.395 323.43Z" fill="white"/>
<path d="M285.248 307.184C268.321 295.708 246.897 280.993 246.897 280.993L234.437 279.681L232.943 280.293C232.943 280.293 268.112 303.081 275.597 305.619C278.625 306.639 281.916 307.172 285.248 307.184Z" fill="white"/>
<path d="M302.981 319.065L301.637 318.189C302.324 319.021 302.712 319.546 302.712 319.546L302.981 319.065Z" fill="white"/>
</g>
</g>
<path d="M198.118 264.944C198.112 265.021 198.112 265.098 198.118 265.174M198.313 265.863C199.768 269.557 201.772 273.123 204.289 276.497C201.766 273.125 199.761 269.559 198.313 265.863ZM198.313 265.863C198.271 265.759 198.241 265.653 198.223 265.546M204.289 276.486C209.876 284.236 216.828 291.415 224.966 297.841C244.701 313.496 301.712 354.444 307.136 357.256C312.559 360.068 310.975 368.087 307.136 376.117C303.296 384.147 289.043 395.809 289.596 408.63C290.149 421.452 295.572 441.144 295.079 445.159C294.586 449.174 280.871 462.827 280.871 462.827H422.293C422.293 462.827 404.664 446.417 404.664 440.805C404.664 435.193 428.867 363.284 429.957 358.066C431.048 352.847 426.67 349.237 417.901 348.832C409.131 348.427 375.695 343.209 374.052 339.194C372.408 335.179 382.822 319.929 382.822 319.929L349.954 321.132C349.954 321.132 348.31 331.569 346.114 333.582C343.918 335.595 340.631 331.569 332.952 328.768C325.273 325.968 310.542 323.55 304.999 320.334C299.456 317.117 246.897 280.95 246.897 280.95M198.148 265.24C198.148 265.305 198.148 265.382 198.148 265.48C198.178 265.382 198.163 265.305 198.148 265.24Z" stroke="#263238" stroke-linecap="round" stroke-linejoin="round"/>
<path d="M246.898 280.994C246.898 280.994 229.388 281.235 219.617 275.338" stroke="#263238" stroke-linecap="round" stroke-linejoin="round"/>
<path d="M374.067 339.195C372.424 335.191 382.837 319.93 382.837 319.93L349.969 321.133C349.969 321.133 348.325 331.57 346.129 333.583C343.933 335.596 340.646 331.57 332.967 328.769C332.384 328.55 331.742 328.343 331.085 328.135L329.098 351.01C329.098 351.01 331.981 373.164 366.552 368.952C380.551 367.245 395.491 358.099 408.384 347.816C395.118 346.033 375.322 342.269 374.067 339.195Z" fill="white"/>
<mask id="mask3_623_12" style="mask-type:luminance" maskUnits="userSpaceOnUse" x="329" y="319" width="80" height="51">
<path d="M374.067 339.195C372.424 335.191 382.837 319.93 382.837 319.93L349.969 321.133C349.969 321.133 348.325 331.57 346.129 333.583C343.933 335.596 340.646 331.57 332.967 328.769C332.384 328.55 331.742 328.343 331.085 328.135L329.098 351.01C329.098 351.01 331.981 373.164 366.552 368.952C380.551 367.245 395.491 358.099 408.384 347.816C395.118 346.033 375.322 342.269 374.067 339.195Z" fill="white"/>
</mask>
<g mask="url(#mask3_623_12)">
<path d="M373.14 322.96C373.14 322.96 371.153 331.121 369.554 340.147C367.956 349.172 366.775 355.889 366.775 355.889L374.066 339.195L382.283 321.505C382.283 321.505 374.335 321.505 373.14 322.96Z" fill="#28C76F"/>
<path opacity="0.5" d="M373.14 322.96C373.14 322.96 371.153 331.121 369.554 340.147C367.956 349.172 366.775 355.889 366.775 355.889L374.066 339.195L382.283 321.505C382.283 321.505 374.335 321.505 373.14 322.96Z" fill="white"/>
</g>
<path d="M374.067 339.195C372.424 335.191 382.837 319.93 382.837 319.93L349.969 321.133C349.969 321.133 348.325 331.57 346.129 333.583C343.933 335.596 340.646 331.57 332.967 328.769C332.384 328.55 331.742 328.343 331.085 328.135L329.098 351.01C329.098 351.01 331.981 373.164 366.552 368.952C380.551 367.245 395.491 358.099 408.384 347.816C395.118 346.033 375.322 342.269 374.067 339.195Z" stroke="#263238" stroke-linecap="round" stroke-linejoin="round"/>
<path d="M346.114 333.582C343.918 335.584 340.632 331.569 332.952 328.768C328.112 326.985 320.403 325.366 314.023 323.616C312.216 320.476 309.825 316.384 308.286 313.912C305.552 309.536 301.16 312.304 301.16 312.304C298.869 310.395 297.017 308.226 295.677 305.882C292.943 301.506 288.551 301.867 282.53 301.068C276.509 300.27 263.885 291.835 263.885 291.835C263.885 291.835 257.983 288.553 255.548 286.923C252.71 291.014 245.912 298.213 231.211 302.709C254.652 320.64 302.206 354.707 307.196 357.267C312.679 360.068 311.035 368.098 307.196 376.128C303.356 384.158 289.103 395.82 289.656 408.641C290.209 421.463 295.632 441.155 295.139 445.17C294.646 448.747 283.71 459.961 281.335 462.368L286.907 462.827H315.921C315.756 452.062 315.771 408.127 325.826 390.623C337.345 370.504 346.114 333.582 346.114 333.582Z" fill="#28C76F"/>
<mask id="mask4_623_12" style="mask-type:luminance" maskUnits="userSpaceOnUse" x="231" y="286" width="116" height="177">
<path d="M346.114 333.582C343.918 335.584 340.632 331.569 332.952 328.768C328.112 326.985 320.403 325.366 314.023 323.616C312.216 320.476 309.825 316.384 308.286 313.912C305.552 309.536 301.16 312.304 301.16 312.304C298.869 310.395 297.017 308.226 295.677 305.882C292.943 301.506 288.551 301.867 282.53 301.068C276.509 300.27 263.885 291.835 263.885 291.835C263.885 291.835 257.983 288.553 255.548 286.923C252.71 291.014 245.912 298.213 231.211 302.709C254.652 320.64 302.206 354.707 307.196 357.267C312.679 360.068 311.035 368.098 307.196 376.128C303.356 384.158 289.103 395.82 289.656 408.641C290.209 421.463 295.632 441.155 295.139 445.17C294.646 448.747 283.71 459.961 281.335 462.368L286.907 462.827H315.921C315.756 452.062 315.771 408.127 325.826 390.623C337.345 370.504 346.114 333.582 346.114 333.582Z" fill="white"/>
</mask>
<g mask="url(#mask4_623_12)">
<path opacity="0.16" d="M332.952 328.768C328.112 326.985 320.403 325.366 314.023 323.616C312.216 320.476 309.825 316.384 308.286 313.912C305.552 309.536 301.16 312.304 301.16 312.304C298.868 310.395 297.017 308.226 295.677 305.882C292.943 301.506 288.551 301.867 282.53 301.068C276.509 300.27 263.885 291.835 263.885 291.835C263.885 291.835 257.983 288.553 255.548 286.923C254.333 288.66 252.887 290.306 251.23 291.835C261.031 297.907 271.848 304.339 275.627 305.619C283.097 308.146 284.845 306.035 290.567 308.573C296.29 311.111 302.669 319.513 302.669 319.513C302.669 319.513 306.135 312.752 309.018 317.402C311.902 322.051 318.819 330.059 318.819 330.059C318.819 330.059 328.037 333.855 330.338 333.855C332.146 333.855 341.005 337.225 344.77 338.68C345.606 335.475 346.07 333.549 346.07 333.549C343.918 335.584 340.631 331.569 332.952 328.768Z" fill="black"/>
</g>
<path d="M346.114 333.582C343.918 335.584 340.632 331.569 332.952 328.768C328.112 326.985 320.403 325.366 314.023 323.616C312.216 320.476 309.825 316.384 308.286 313.912C305.552 309.536 301.16 312.304 301.16 312.304C298.869 310.395 297.017 308.226 295.677 305.882C292.943 301.506 288.551 301.867 282.53 301.068C276.509 300.27 263.885 291.835 263.885 291.835C263.885 291.835 257.983 288.553 255.548 286.923C252.71 291.014 245.912 298.213 231.211 302.709C254.652 320.64 302.206 354.707 307.196 357.267C312.679 360.068 311.035 368.098 307.196 376.128C303.356 384.158 289.103 395.82 289.656 408.641C290.209 421.463 295.632 441.155 295.139 445.17C294.646 448.747 283.71 459.961 281.335 462.368L286.907 462.827H315.921C315.756 452.062 315.771 408.127 325.826 390.623C337.345 370.504 346.114 333.582 346.114 333.582Z" stroke="#263238" stroke-linecap="round" stroke-linejoin="round"/>
<path d="M346.502 332.182C346.502 332.182 339.69 330.65 335.492 333.342C331.293 336.033 325.034 349.839 321.343 364.816C319.069 373.535 320.639 382.557 325.825 390.58C325.825 390.58 334.446 374.028 337.06 365.965C339.675 357.902 346.502 332.182 346.502 332.182Z" fill="#28C76F"/>
<mask id="mask5_623_12" style="mask-type:luminance" maskUnits="userSpaceOnUse" x="320" y="331" width="27" height="60">
<path d="M346.502 332.182C346.502 332.182 339.69 330.65 335.492 333.342C331.293 336.033 325.034 349.839 321.343 364.816C319.069 373.535 320.639 382.557 325.825 390.58C325.825 390.58 334.446 374.028 337.06 365.965C339.675 357.902 346.502 332.182 346.502 332.182Z" fill="white"/>
</mask>
<g mask="url(#mask5_623_12)">
<path opacity="0.16" d="M333.43 334.622C333.43 334.622 338.36 333.747 340.392 334.25C342.103 334.787 343.702 335.498 345.143 336.361L346.502 332.182C344.463 331.419 342.15 331.14 339.884 331.383C336.492 331.887 333.43 334.622 333.43 334.622Z" fill="black"/>
</g>
<path d="M346.502 332.182C346.502 332.182 339.69 330.65 335.492 333.342C331.293 336.033 325.034 349.839 321.343 364.816C319.069 373.535 320.639 382.557 325.825 390.58C325.825 390.58 334.446 374.028 337.06 365.965C339.675 357.902 346.502 332.182 346.502 332.182Z" stroke="#263238" stroke-linecap="round" stroke-linejoin="round"/>
<path d="M300.622 333.495L309.392 359.586L289.656 326.668" stroke="#263238" stroke-linecap="round" stroke-linejoin="round"/>
<path d="M358.394 462.827H422.308C422.308 462.827 404.678 446.417 404.678 440.805C404.678 435.193 428.881 363.284 429.972 358.066C431.062 352.847 426.685 349.237 417.915 348.832C409.146 348.428 375.71 343.209 374.066 339.194C374.066 339.194 361.457 371.708 357.08 393.785C353.315 412.722 357.214 452.019 358.394 462.827Z" fill="#28C76F"/>
<mask id="mask6_623_12" style="mask-type:luminance" maskUnits="userSpaceOnUse" x="355" y="339" width="76" height="124">
<path d="M358.394 462.827H422.308C422.308 462.827 404.678 446.417 404.678 440.805C404.678 435.193 428.881 363.284 429.972 358.066C431.062 352.847 426.685 349.237 417.915 348.832C409.146 348.428 375.71 343.209 374.066 339.194C374.066 339.194 361.457 371.708 357.08 393.785C353.315 412.722 357.214 452.019 358.394 462.827Z" fill="white"/>
</mask>
<g mask="url(#mask6_623_12)">
<path opacity="0.16" d="M417.916 348.833C410.73 348.504 386.99 344.938 377.742 341.459L381.104 347.148C387.194 349.514 393.744 351.182 400.526 352.093C411.656 353.548 422.009 353.263 428.777 360.549L429.106 360.91C429.524 359.51 429.808 358.525 429.898 358.066C431.078 352.848 426.686 349.237 417.916 348.833Z" fill="black"/>
</g>
<path d="M358.394 462.827H422.308C422.308 462.827 404.678 446.417 404.678 440.805C404.678 435.193 428.881 363.284 429.972 358.066C431.062 352.847 426.685 349.237 417.915 348.832C409.146 348.428 375.71 343.209 374.066 339.194C374.066 339.194 361.457 371.708 357.08 393.785C353.315 412.722 357.214 452.019 358.394 462.827Z" stroke="#263238" stroke-linecap="round" stroke-linejoin="round"/>
<path d="M374.067 339.194C374.067 339.194 357.155 378.578 357.08 393.785C357.08 393.785 381.104 372.485 384.241 357.519C387.378 342.553 374.067 339.194 374.067 339.194Z" fill="#28C76F"/>
<mask id="mask7_623_12" style="mask-type:luminance" maskUnits="userSpaceOnUse" x="357" y="339" width="28" height="55">
<path d="M374.067 339.194C374.067 339.194 357.155 378.578 357.08 393.785C357.08 393.785 381.104 372.485 384.241 357.519C387.378 342.553 374.067 339.194 374.067 339.194Z" fill="white"/>
</mask>
<g mask="url(#mask7_623_12)">
<path opacity="0.16" d="M371.154 344.227C373.695 344.164 376.219 344.556 378.507 345.368C380.795 346.18 382.779 347.388 384.287 348.887C384.287 348.887 380.97 341.743 374.068 339.194L371.154 344.227Z" fill="black"/>
</g>
<path d="M374.067 339.194C374.067 339.194 357.155 378.578 357.08 393.785C357.08 393.785 381.104 372.485 384.241 357.519C387.378 342.553 374.067 339.194 374.067 339.194Z" stroke="#263238" stroke-linecap="round" stroke-linejoin="round"/>
<path d="M554.617 455.421C554.617 455.421 567.002 455.793 575.115 456.647C580.525 457.184 585.971 457.501 591.429 457.598C591.429 457.598 586.947 450.969 582.166 449.098C577.385 447.227 568.72 443.88 561.459 444.624C554.199 445.368 543.815 450.728 544.682 452.435C545.548 454.141 549.418 454.907 554.617 455.421Z" fill="white"/>
<mask id="mask8_623_12" style="mask-type:luminance" maskUnits="userSpaceOnUse" x="544" y="444" width="48" height="14">
<path d="M554.617 455.421C554.617 455.421 567.002 455.793 575.115 456.647C580.525 457.184 585.971 457.501 591.429 457.598C591.429 457.598 586.947 450.969 582.166 449.098C577.385 447.227 568.72 443.88 561.459 444.624C554.199 445.368 543.815 450.728 544.682 452.435C545.548 454.141 549.418 454.907 554.617 455.421Z" fill="white"/>
</mask>
<g mask="url(#mask8_623_12)">
<path d="M554.617 455.421C554.617 455.421 567.002 455.793 575.115 456.647C580.525 457.184 585.971 457.501 591.429 457.598C591.429 457.598 586.947 450.969 582.166 449.098C577.385 447.227 568.72 443.88 561.459 444.624C554.199 445.368 543.815 450.728 544.682 452.435C545.548 454.141 549.418 454.907 554.617 455.421Z" fill="#28C76F"/>
<path opacity="0.5" d="M554.617 455.421C554.617 455.421 567.002 455.793 575.115 456.647C580.525 457.184 585.971 457.501 591.429 457.598C591.429 457.598 586.947 450.969 582.166 449.098C577.385 447.227 568.72 443.88 561.459 444.624C554.199 445.368 543.815 450.728 544.682 452.435C545.548 454.141 549.418 454.907 554.617 455.421Z" fill="white"/>
</g>
<path d="M554.617 455.421C554.617 455.421 567.002 455.793 575.115 456.647C580.525 457.184 585.971 457.501 591.429 457.598C591.429 457.598 586.947 450.969 582.166 449.098C577.385 447.227 568.72 443.88 561.459 444.624C554.199 445.368 543.815 450.728 544.682 452.435C545.548 454.141 549.418 454.907 554.617 455.421Z" stroke="#263238" stroke-linecap="round" stroke-linejoin="round"/>
<path d="M575.189 452.708C575.189 452.708 585.005 448.977 587.455 449.032C589.905 449.087 606.19 457.149 605.383 458.44C604.835 459.039 604.044 459.496 603.122 459.748C602.2 459.999 601.193 460.031 600.244 459.841C598.436 459.217 587.47 455.804 587.47 455.804L580.299 457.04L575.189 452.708Z" fill="white"/>
<mask id="mask9_623_12" style="mask-type:luminance" maskUnits="userSpaceOnUse" x="575" y="449" width="31" height="11">
<path d="M575.189 452.708C575.189 452.708 585.005 448.977 587.455 449.032C589.905 449.087 606.19 457.149 605.383 458.44C604.835 459.039 604.044 459.496 603.122 459.748C602.2 459.999 601.193 460.031 600.244 459.841C598.436 459.217 587.47 455.804 587.47 455.804L580.299 457.04L575.189 452.708Z" fill="white"/>
</mask>
<g mask="url(#mask9_623_12)">
<path d="M575.189 452.708C575.189 452.708 585.005 448.977 587.455 449.032C589.905 449.087 606.19 457.149 605.383 458.44C604.576 459.731 600.722 460.781 600.244 459.841C599.766 458.9 587.47 455.804 587.47 455.804L580.299 457.04L575.189 452.708Z" fill="#28C76F"/>
<path opacity="0.5" d="M575.189 452.708C575.189 452.708 585.005 448.977 587.455 449.032C589.905 449.087 606.19 457.149 605.383 458.44C604.576 459.731 600.722 460.781 600.244 459.841C599.766 458.9 587.47 455.804 587.47 455.804L580.299 457.04L575.189 452.708Z" fill="white"/>
</g>
<path d="M575.189 452.708C575.189 452.708 585.005 448.977 587.455 449.032C589.905 449.087 606.19 457.149 605.383 458.44C604.835 459.039 604.044 459.496 603.122 459.748C602.2 459.999 601.193 460.031 600.244 459.841C598.436 459.217 587.47 455.804 587.47 455.804L580.299 457.04L575.189 452.708Z" stroke="#263238" stroke-linecap="round" stroke-linejoin="round"/>
<path d="M568.182 446.571C568.182 446.571 581.269 446.264 583.869 447.227C586.468 448.19 598.211 462.937 596.448 464.009C594.685 465.081 589.815 464.764 589.964 463.571C590.114 462.379 579.148 454.48 579.148 454.48L570.617 453.113L568.182 446.571Z" fill="white"/>
<mask id="mask10_623_12" style="mask-type:luminance" maskUnits="userSpaceOnUse" x="568" y="446" width="29" height="19">
<path d="M568.182 446.571C568.182 446.571 581.269 446.264 583.869 447.227C586.468 448.19 598.211 462.937 596.448 464.009C594.685 465.081 589.815 464.764 589.964 463.571C590.114 462.379 579.148 454.48 579.148 454.48L570.617 453.113L568.182 446.571Z" fill="white"/>
</mask>
<g mask="url(#mask10_623_12)">
<path d="M568.182 446.571C568.182 446.571 581.269 446.264 583.869 447.227C586.468 448.19 598.211 462.937 596.448 464.009C594.685 465.081 589.815 464.764 589.964 463.571C590.114 462.379 579.148 454.48 579.148 454.48L570.617 453.113L568.182 446.571Z" fill="#28C76F"/>
<path opacity="0.5" d="M568.182 446.571C568.182 446.571 581.269 446.264 583.869 447.227C586.468 448.19 598.211 462.937 596.448 464.009C594.685 465.081 589.815 464.764 589.964 463.571C590.114 462.379 579.148 454.48 579.148 454.48L570.617 453.113L568.182 446.571Z" fill="white"/>
</g>
<path d="M568.182 446.571C568.182 446.571 581.269 446.264 583.869 447.227C586.468 448.19 598.211 462.937 596.448 464.009C594.685 465.081 589.815 464.764 589.964 463.571C590.114 462.379 579.148 454.48 579.148 454.48L570.617 453.113L568.182 446.571Z" stroke="#263238" stroke-linecap="round" stroke-linejoin="round"/>
<path d="M560.428 444.591C560.428 444.591 573.68 444.273 576.309 445.258C578.938 446.243 590.831 461.154 589.038 462.248C587.245 463.342 582.345 463.003 582.494 461.799C582.644 460.596 571.543 452.599 571.543 452.599L562.908 451.209L560.428 444.591Z" fill="white"/>
<mask id="mask11_623_12" style="mask-type:luminance" maskUnits="userSpaceOnUse" x="560" y="444" width="30" height="19">
<path d="M560.428 444.591C560.428 444.591 573.68 444.273 576.309 445.258C578.938 446.243 590.831 461.154 589.038 462.248C587.245 463.342 582.345 463.003 582.494 461.799C582.644 460.596 571.543 452.599 571.543 452.599L562.908 451.209L560.428 444.591Z" fill="white"/>
</mask>
<g mask="url(#mask11_623_12)">
<path d="M560.428 444.591C560.428 444.591 573.68 444.273 576.309 445.258C578.938 446.243 590.831 461.154 589.038 462.248C587.245 463.342 582.345 463.003 582.494 461.799C582.644 460.596 571.543 452.599 571.543 452.599L562.908 451.209L560.428 444.591Z" fill="#28C76F"/>
<path opacity="0.5" d="M560.428 444.591C560.428 444.591 573.68 444.273 576.309 445.258C578.938 446.243 590.831 461.154 589.038 462.248C587.245 463.342 582.345 463.003 582.494 461.799C582.644 460.596 571.543 452.599 571.543 452.599L562.908 451.209L560.428 444.591Z" fill="white"/>
</g>
<path d="M560.428 444.591C560.428 444.591 573.68 444.273 576.309 445.258C578.938 446.243 590.831 461.154 589.038 462.248C587.245 463.342 582.345 463.003 582.494 461.799C582.644 460.596 571.543 452.599 571.543 452.599L562.908 451.209L560.428 444.591Z" stroke="#263238" stroke-linecap="round" stroke-linejoin="round"/>
<path d="M409.759 388.994C419.351 399.813 438.608 427.229 444.226 430.314C452.996 435.128 511.62 446.812 517.268 450.006C522.915 453.201 522.526 456.406 527.875 457.577C533.223 458.747 553.273 462.106 560.922 462.631C568.571 463.156 565.15 459.688 565.15 459.688L552.108 453.124L563.477 451.067C563.477 451.067 574.876 461.11 577.013 461.657C579.149 462.204 582.914 461.657 582.675 460.421C582.257 458.441 570.095 442.239 565.778 441.549C561.46 440.86 535.255 443.519 535.255 443.519C535.255 443.519 480.291 416.377 479.305 415.414C479.305 415.414 476.018 408.587 473.329 405.776C470.64 402.964 468.937 403.774 468.937 403.774C468.937 403.774 470.042 400.153 468.399 398.949L459.629 392.527L459.315 392.834C457.821 390.646 456.327 388.151 454.684 385.307C450.097 377.397 433.857 355.2 431.123 351.995C429.077 349.599 411.926 347.881 403.23 347.159" fill="#28C76F"/>
<mask id="mask12_623_12" style="mask-type:luminance" maskUnits="userSpaceOnUse" x="403" y="347" width="180" height="116">
<path d="M409.759 388.994C419.351 399.813 438.608 427.229 444.226 430.314C452.996 435.128 511.62 446.812 517.268 450.006C522.915 453.201 522.526 456.406 527.875 457.577C533.223 458.747 553.273 462.106 560.922 462.631C568.571 463.156 565.15 459.688 565.15 459.688L552.108 453.124L563.477 451.067C563.477 451.067 574.876 461.11 577.013 461.657C579.149 462.204 582.914 461.657 582.675 460.421C582.257 458.441 570.095 442.239 565.778 441.549C561.46 440.86 535.255 443.519 535.255 443.519C535.255 443.519 480.291 416.377 479.305 415.414C479.305 415.414 476.018 408.587 473.329 405.776C470.64 402.964 468.937 403.774 468.937 403.774C468.937 403.774 470.042 400.153 468.399 398.949L459.629 392.527L459.315 392.834C457.821 390.646 456.327 388.151 454.684 385.307C450.097 377.397 433.857 355.2 431.123 351.995C429.077 349.599 411.926 347.881 403.23 347.159" fill="white"/>
</mask>
<g mask="url(#mask12_623_12)">
<path opacity="0.16" d="M447.946 389.683C455.117 394.343 452.727 394.343 451.128 398.435C449.529 402.526 452.323 396.98 459.091 397.275C465.859 397.57 463.872 403.97 463.065 405.141C462.258 406.312 471.431 407.767 469.833 410.381C468.234 412.996 459.091 416.792 453.922 420.588C448.753 424.384 467.443 414.462 473.807 414.177C475.749 414.079 477.348 414.265 478.692 414.243C477.282 411.316 475.47 408.501 473.284 405.841C470.535 403.03 468.892 403.839 468.892 403.839C468.892 403.839 469.997 400.218 468.354 399.015L459.584 392.593L459.27 392.899C457.776 390.711 456.282 388.217 454.639 385.372C450.052 377.463 433.813 355.265 431.079 352.06C429.032 349.664 411.881 347.947 403.186 347.225L403.977 352.29L404.172 352.399C404.172 352.399 414.913 353.854 418.499 354.15C422.085 354.445 426.462 356.764 426.059 358.526C425.655 360.287 415.317 368.142 418.499 368.733C421.681 369.323 425.267 362.902 428.852 363.777C432.438 364.652 440.73 385.022 447.946 389.683Z" fill="black"/>
</g>
<path d="M409.759 388.994C419.351 399.813 438.608 427.229 444.226 430.314C452.996 435.128 511.62 446.812 517.268 450.006C522.915 453.201 522.526 456.406 527.875 457.577C533.223 458.747 553.273 462.106 560.922 462.631C568.571 463.156 565.15 459.688 565.15 459.688L552.108 453.124L563.477 451.067C563.477 451.067 574.876 461.11 577.013 461.657C579.149 462.204 582.914 461.657 582.675 460.421C582.257 458.441 570.095 442.239 565.778 441.549C561.46 440.86 535.255 443.519 535.255 443.519C535.255 443.519 480.291 416.377 479.305 415.414C479.305 415.414 476.018 408.587 473.329 405.776C470.64 402.964 468.937 403.774 468.937 403.774C468.937 403.774 470.042 400.153 468.399 398.949L459.629 392.527L459.315 392.834C457.821 390.646 456.327 388.151 454.684 385.307C450.097 377.397 433.857 355.2 431.123 351.995C429.077 349.599 411.926 347.881 403.23 347.159" stroke="#263238" stroke-linecap="round" stroke-linejoin="round"/>
<path d="M409.908 374.147C409.505 375.132 409.161 376.117 408.893 377.123" stroke="#263238" stroke-linecap="round" stroke-linejoin="round"/>
<path d="M424.429 356.042C419.734 359.96 415.775 364.32 412.656 369.006" stroke="#263238" stroke-linecap="round" stroke-linejoin="round"/>
<path d="M446.377 418.159C450.411 413.783 456.835 408.237 463.916 406.65" stroke="#263238" stroke-linecap="round" stroke-linejoin="round"/>
<path d="M441.91 423.542C441.91 423.542 442.627 422.513 443.912 420.96" stroke="#263238" stroke-linecap="round" stroke-linejoin="round"/>
<path d="M441.91 416.628C441.91 416.628 449.246 403.194 456.581 399.737C463.917 396.279 459.719 403.194 459.719 403.194" stroke="#263238" stroke-linecap="round" stroke-linejoin="round"/>
<path d="M517.267 450.017C522.93 453.222 522.526 456.417 527.875 457.588C533.223 458.758 553.273 462.117 560.922 462.642C568.571 463.167 565.15 459.699 565.15 459.699L552.107 453.135L563.477 451.078C563.477 451.078 574.876 461.121 577.012 461.668C579.149 462.215 583.212 462.412 582.675 460.432C581.629 456.603 570.095 442.25 565.777 441.56C561.46 440.871 535.255 443.53 535.255 443.53C535.255 443.53 485.191 418.368 479.708 415.644C458.448 417.142 448.334 425.293 444.076 430.183L444.226 430.27C452.995 435.128 511.62 446.812 517.267 450.017Z" fill="white"/>
<mask id="mask13_623_12" style="mask-type:luminance" maskUnits="userSpaceOnUse" x="444" y="415" width="139" height="48">
<path d="M517.267 450.017C522.93 453.222 522.526 456.417 527.875 457.588C533.223 458.758 553.273 462.117 560.922 462.642C568.571 463.167 565.15 459.699 565.15 459.699L552.107 453.135L563.477 451.078C563.477 451.078 574.876 461.121 577.012 461.668C579.149 462.215 583.212 462.412 582.675 460.432C581.629 456.603 570.095 442.25 565.777 441.56C561.46 440.871 535.255 443.53 535.255 443.53C535.255 443.53 485.191 418.368 479.708 415.644C458.448 417.142 448.334 425.293 444.076 430.183L444.226 430.27C452.995 435.128 511.62 446.812 517.267 450.017Z" fill="white"/>
</mask>
<g mask="url(#mask13_623_12)">
<path d="M582.659 460.476C579.94 455.608 570.08 442.294 565.762 441.604C561.445 440.915 535.24 443.574 535.24 443.574C535.24 443.574 485.176 418.412 479.693 415.688C474.113 416.043 468.638 417.013 463.453 418.565C471.356 421.847 524.035 443.727 530.683 444.7C537.735 445.794 561.265 442.961 565.404 444.996C568.033 446.287 575.862 455.378 581.15 461.832C582.659 461.668 583.212 461.46 582.659 460.476Z" fill="#28C76F"/>
<path opacity="0.5" d="M582.659 460.476C578.416 453.507 570.08 442.294 565.762 441.604C561.445 440.915 535.24 443.574 535.24 443.574C535.24 443.574 485.176 418.412 479.693 415.688C474.113 416.043 468.638 417.013 463.453 418.565C471.356 421.847 524.035 443.727 530.683 444.7C537.735 445.794 561.265 442.961 565.404 444.996C568.033 446.287 575.862 455.378 581.15 461.832C582.659 461.668 583.257 461.45 582.659 460.476Z" fill="white"/>
</g>
<path d="M517.267 450.017C522.93 453.222 522.526 456.417 527.875 457.588C533.223 458.758 553.273 462.117 560.922 462.642C568.571 463.167 565.15 459.699 565.15 459.699L552.107 453.135L563.477 451.078C563.477 451.078 574.876 461.121 577.012 461.668C579.149 462.215 583.212 462.412 582.675 460.432C581.629 456.603 570.095 442.25 565.777 441.56C561.46 440.871 535.255 443.53 535.255 443.53C535.255 443.53 485.191 418.368 479.708 415.644C458.448 417.142 448.334 425.293 444.076 430.183L444.226 430.27C452.995 435.128 511.62 446.812 517.267 450.017Z" stroke="#263238" stroke-linecap="round" stroke-linejoin="round"/>
<path d="M385.227 258.982L340.228 272.734C339.683 278.525 337.725 284.198 334.446 289.483C329.128 297.721 332.235 313.31 337.345 321.723C342.454 330.136 364.969 326.843 373.201 325.793C378.784 325.015 384.252 323.847 389.53 322.303C391.933 322.981 394.533 323.201 397.084 322.94C399.635 322.68 402.053 321.949 404.112 320.815C404.112 320.815 380.028 271.312 385.227 258.982Z" fill="white"/>
<mask id="mask14_623_12" style="mask-type:luminance" maskUnits="userSpaceOnUse" x="331" y="258" width="74" height="70">
<path d="M385.227 258.982L340.228 272.734C339.683 278.525 337.725 284.198 334.446 289.483C329.128 297.721 332.235 313.31 337.345 321.723C342.454 330.136 364.969 326.843 373.201 325.793C378.784 325.015 384.252 323.847 389.53 322.303C391.933 322.981 394.533 323.201 397.084 322.94C399.635 322.68 402.053 321.949 404.112 320.815C404.112 320.815 380.028 271.312 385.227 258.982Z" fill="white"/>
</mask>
<g mask="url(#mask14_623_12)">
<path d="M385.227 258.982L340.228 272.734C339.683 278.525 337.725 284.198 334.446 289.483C329.128 297.721 332.235 313.31 337.345 321.723C338.2 323.076 339.576 324.217 341.304 325.005V324.371C341.304 324.371 332.952 309.219 334.536 300.478C336.12 291.737 342.902 287.35 343.694 281.825C344.486 276.3 344.083 273.675 359.217 269.594C374.351 265.514 380.701 261.728 382.284 265.798C383.868 269.868 390.247 296.693 394.625 303.103C399.002 309.514 398.599 316.231 391.846 319.131C385.021 322.131 377.708 324.49 370.078 326.154L373.26 325.749C378.844 324.972 384.312 323.803 389.59 322.259C391.993 322.938 394.593 323.157 397.143 322.897C399.694 322.636 402.113 321.905 404.171 320.772C404.171 320.772 380.028 271.312 385.227 258.982Z" fill="#28C76F"/>
<path opacity="0.5" d="M385.227 258.982L340.228 272.734C339.683 278.525 337.725 284.198 334.446 289.483C329.128 297.721 332.235 313.31 337.345 321.723C338.2 323.076 339.576 324.217 341.304 325.005V324.371C341.304 324.371 332.952 309.219 334.536 300.478C336.12 291.737 342.902 287.35 343.694 281.825C344.486 276.3 344.083 273.675 359.217 269.594C374.351 265.514 380.701 261.728 382.284 265.798C383.868 269.868 390.247 296.693 394.625 303.103C399.002 309.514 398.599 316.231 391.846 319.131C385.021 322.131 377.708 324.49 370.078 326.154L373.26 325.749C378.844 324.972 384.312 323.803 389.59 322.259C391.993 322.938 394.593 323.157 397.143 322.897C399.694 322.636 402.113 321.905 404.171 320.772C404.171 320.772 380.028 271.312 385.227 258.982Z" fill="white"/>
</g>
<path d="M385.227 258.982L340.228 272.734C339.683 278.525 337.725 284.198 334.446 289.483C329.128 297.721 332.235 313.31 337.345 321.723C342.454 330.136 364.969 326.843 373.201 325.793C378.784 325.015 384.252 323.847 389.53 322.303C391.933 322.981 394.533 323.201 397.084 322.94C399.635 322.68 402.053 321.949 404.112 320.815C404.112 320.815 380.028 271.312 385.227 258.982Z" stroke="#263238" stroke-linecap="round" stroke-linejoin="round"/>
<path d="M362.489 280.545C362.611 282.482 362.283 284.421 361.518 286.277C360.323 288.465 349.043 297.064 349.387 297.994C349.73 298.924 350.746 301.911 352.748 302.195" stroke="#263238" stroke-linecap="round" stroke-linejoin="round"/>
<path d="M374.992 288.236C376.561 285.938 381.715 288.181 381.64 293.356" stroke="#263238" stroke-linecap="round" stroke-linejoin="round"/>
<path d="M349.445 281.475C349.445 281.475 353.838 280.064 357.767 285.271" stroke="#263238" stroke-linecap="round" stroke-linejoin="round"/>
<path d="M368.748 295.817C373.824 296.004 378.65 297.487 382.388 300.007" stroke="#263238" stroke-width="0.5" stroke-linecap="round" stroke-linejoin="round"/>
<path d="M344.143 288.98C346.767 289.237 349.33 289.756 351.762 290.523" stroke="#263238" stroke-width="0.5" stroke-linecap="round" stroke-linejoin="round"/>
<path d="M361.996 275.688C360.836 275.239 359.549 274.993 358.237 274.971C356.925 274.948 355.624 275.149 354.436 275.557C350.417 276.968 347.952 278.522 348.221 276.717C348.49 274.912 353.211 272.92 354.63 272.658C356.05 272.395 362.399 271.673 361.996 275.688Z" fill="#263238"/>
<path d="M373.26 271.607C377.448 274.089 380.775 277.26 382.971 280.863C385.959 286.333 388.319 280.359 385.959 276.782C383.598 273.205 376.771 269.398 373.26 271.607Z" fill="#263238"/>
<path d="M404.768 330.169C404.768 332.718 402.796 334.786 400.375 334.786C397.955 334.786 395.998 332.718 395.998 330.169C395.998 327.62 397.955 321.133 400.375 321.133C402.796 321.133 404.768 327.62 404.768 330.169Z" fill="#28C76F" stroke="#263238" stroke-linecap="round" stroke-linejoin="round"/>
<path d="M375.382 287.24C375.21 287.575 375.076 287.918 374.979 288.269C374.546 289.888 374.112 293.268 374.979 293.41C375.845 293.553 377.967 290.391 378.34 288.772C378.424 288.454 378.474 288.132 378.49 287.809C377.47 287.575 376.432 287.385 375.382 287.24Z" fill="#263238"/>
<path d="M349.895 281.158C349.762 281.444 349.657 281.737 349.581 282.034C349.133 283.653 349.148 287.208 350.089 287.339C351.03 287.471 352.569 284.145 353.002 282.526C353.11 282.133 353.17 281.734 353.181 281.333C352.112 281.118 350.995 281.059 349.895 281.158Z" fill="#263238"/>
<path d="M374.992 288.291L376.486 286.256C378.855 286.594 381.001 287.503 382.582 288.838" stroke="#263238" stroke-width="0.75" stroke-linecap="round" stroke-linejoin="round"/>
<path d="M349.895 281.158L351.389 279.878C351.389 279.878 352.031 279.648 355.557 280.818" stroke="#263238" stroke-width="0.75" stroke-linecap="round" stroke-linejoin="round"/>
<path d="M344.232 310.827C344.232 310.827 346.742 307.446 350.104 307.446C353.465 307.446 355.975 312.971 355.975 312.971" stroke="#263238" stroke-linecap="round" stroke-linejoin="round"/>
<path d="M236.052 456.614C232.804 456.496 229.613 455.939 226.64 454.973C226.226 454.861 225.847 454.688 225.526 454.465C225.206 454.242 224.951 453.974 224.777 453.676C224.603 453.379 224.513 453.059 224.513 452.735C224.513 452.411 224.603 452.091 224.778 451.794C224.952 451.497 225.208 451.229 225.528 451.006C225.849 450.783 226.228 450.61 226.643 450.498C227.057 450.387 227.499 450.337 227.94 450.354C228.382 450.371 228.814 450.454 229.21 450.597C232.198 451.527 236.067 452.107 237.098 451.778C238.996 450.225 241.909 440.838 238.144 436.309C237.292 435.303 236.501 435.117 235.978 435.073C233.841 434.854 230.674 436.462 229.554 437.261C229.242 437.477 228.875 437.645 228.474 437.757C228.073 437.868 227.646 437.921 227.218 437.912C226.789 437.903 226.367 437.832 225.976 437.703C225.584 437.575 225.231 437.391 224.937 437.163C224.643 436.934 224.413 436.666 224.26 436.372C224.108 436.079 224.036 435.766 224.048 435.452C224.061 435.138 224.158 434.829 224.333 434.543C224.509 434.256 224.76 433.998 225.072 433.782C225.654 433.366 231.048 429.811 236.799 430.38C238.226 430.532 239.585 430.924 240.772 431.523C241.959 432.123 242.941 432.914 243.642 433.837C249.185 440.456 245.39 453.048 241.132 455.542C239.652 456.308 237.862 456.686 236.052 456.614Z" fill="white"/>
<mask id="mask15_623_12" style="mask-type:luminance" maskUnits="userSpaceOnUse" x="224" y="430" width="23" height="27">
<path d="M236.052 456.614C232.804 456.496 229.613 455.939 226.64 454.973C226.226 454.861 225.847 454.688 225.526 454.465C225.206 454.242 224.951 453.974 224.777 453.676C224.603 453.379 224.513 453.059 224.513 452.735C224.513 452.411 224.603 452.091 224.778 451.794C224.952 451.497 225.208 451.229 225.528 451.006C225.849 450.783 226.228 450.61 226.643 450.498C227.057 450.387 227.499 450.337 227.94 450.354C228.382 450.371 228.814 450.454 229.21 450.597C232.198 451.527 236.067 452.107 237.098 451.778C238.996 450.225 241.909 440.838 238.144 436.309C237.292 435.303 236.501 435.117 235.978 435.073C233.841 434.854 230.674 436.462 229.554 437.261C229.242 437.477 228.875 437.645 228.474 437.757C228.073 437.868 227.646 437.921 227.218 437.912C226.789 437.903 226.367 437.832 225.976 437.703C225.584 437.575 225.231 437.391 224.937 437.163C224.643 436.934 224.413 436.666 224.26 436.372C224.108 436.079 224.036 435.766 224.048 435.452C224.061 435.138 224.158 434.829 224.333 434.543C224.509 434.256 224.76 433.998 225.072 433.782C225.654 433.366 231.048 429.811 236.799 430.38C238.226 430.532 239.585 430.924 240.772 431.523C241.959 432.123 242.941 432.914 243.642 433.837C249.185 440.456 245.39 453.048 241.132 455.542C239.652 456.308 237.862 456.686 236.052 456.614Z" fill="white"/>
</mask>
<g mask="url(#mask15_623_12)">
<path d="M240.43 435.588C240.038 434.908 239.425 434.309 238.643 433.844C237.862 433.379 236.936 433.061 235.948 432.918C232.213 432.481 228.702 435.227 228.314 435.533C227.957 435.848 227.736 436.234 227.68 436.641C227.624 437.048 227.736 437.459 228 437.819C228.588 437.733 229.131 437.528 229.569 437.229C230.689 436.463 233.856 434.855 235.993 435.041C236.516 435.041 237.308 435.27 238.159 436.277C241.924 440.762 239.011 450.192 237.113 451.746C236.083 452.074 232.228 451.494 229.225 450.564C228.855 450.451 228.46 450.388 228.06 450.378C228.087 450.678 228.216 450.968 228.435 451.223C228.654 451.477 228.957 451.687 229.315 451.833C231.204 452.572 233.288 453.005 235.425 453.103C236.645 453.145 237.839 452.839 238.757 452.249C241.565 450.357 244.046 440.675 240.43 435.588Z" fill="#28C76F"/>
<path opacity="0.5" d="M240.43 435.588C240.038 434.908 239.425 434.309 238.643 433.844C237.862 433.379 236.936 433.061 235.948 432.918C232.213 432.481 228.702 435.227 228.314 435.533C227.957 435.848 227.736 436.234 227.68 436.641C227.624 437.048 227.736 437.459 228 437.819C228.588 437.733 229.131 437.528 229.569 437.229C230.689 436.463 233.856 434.855 235.993 435.041C236.516 435.041 237.308 435.27 238.159 436.277C241.924 440.762 239.011 450.192 237.113 451.746C236.083 452.074 232.228 451.494 229.225 450.564C228.855 450.451 228.46 450.388 228.06 450.378C228.087 450.678 228.216 450.968 228.435 451.223C228.654 451.477 228.957 451.687 229.315 451.833C231.204 452.572 233.288 453.005 235.425 453.103C236.645 453.145 237.839 452.839 238.757 452.249C241.565 450.357 244.046 440.675 240.43 435.588Z" fill="white"/>
</g>
<path d="M236.052 456.614C232.804 456.496 229.613 455.939 226.64 454.973C226.226 454.861 225.847 454.688 225.526 454.465C225.206 454.242 224.951 453.974 224.777 453.676C224.603 453.379 224.513 453.059 224.513 452.735C224.513 452.411 224.603 452.091 224.778 451.794C224.952 451.497 225.208 451.229 225.528 451.006C225.849 450.783 226.228 450.61 226.643 450.498C227.057 450.387 227.499 450.337 227.94 450.354C228.382 450.371 228.814 450.454 229.21 450.597C232.198 451.527 236.067 452.107 237.098 451.778C238.996 450.225 241.909 440.838 238.144 436.309C237.292 435.303 236.501 435.117 235.978 435.073C233.841 434.854 230.674 436.462 229.554 437.261C229.242 437.477 228.875 437.645 228.474 437.757C228.073 437.868 227.646 437.921 227.218 437.912C226.789 437.903 226.367 437.832 225.976 437.703C225.584 437.575 225.231 437.391 224.937 437.163C224.643 436.934 224.413 436.666 224.26 436.372C224.108 436.079 224.036 435.766 224.048 435.452C224.061 435.138 224.158 434.829 224.333 434.543C224.509 434.256 224.76 433.998 225.072 433.782C225.654 433.366 231.048 429.811 236.799 430.38C238.226 430.532 239.585 430.924 240.772 431.523C241.959 432.123 242.941 432.914 243.642 433.837C249.185 440.456 245.39 453.048 241.132 455.542C239.652 456.308 237.862 456.686 236.052 456.614Z" stroke="#263238" stroke-linecap="round" stroke-linejoin="round"/>
<path d="M230.345 428.389H194.414V463.309H230.345V428.389Z" fill="white"/>
<mask id="mask16_623_12" style="mask-type:luminance" maskUnits="userSpaceOnUse" x="194" y="428" width="37" height="36">
<path d="M230.345 428.389H194.414V463.309H230.345V428.389Z" fill="white"/>
</mask>
<g mask="url(#mask16_623_12)">
<path d="M209.13 428.389H194.414V463.309H209.13V428.389Z" fill="#28C76F"/>
<path opacity="0.5" d="M209.13 428.389H194.414V463.309H209.13V428.389Z" fill="white"/>
</g>
<path d="M230.345 428.389H194.414V463.309H230.345V428.389Z" stroke="#263238" stroke-linecap="round" stroke-linejoin="round"/>
<path d="M427.792 462.828H274.298L269.293 401.039C269.155 400.44 269.196 399.826 269.413 399.239C269.63 398.653 270.018 398.108 270.551 397.642C271.083 397.176 271.748 396.8 272.498 396.541C273.248 396.281 274.066 396.143 274.896 396.138H427.134C427.969 396.137 428.794 396.27 429.551 396.527C430.309 396.784 430.981 397.159 431.52 397.625C432.059 398.092 432.452 398.639 432.673 399.229C432.894 399.818 432.936 400.436 432.797 401.039L427.792 462.828Z" fill="#263238" stroke="#263238" stroke-linecap="round" stroke-linejoin="round"/>
<path d="M281.857 397.614H426.028C426.843 397.608 427.649 397.733 428.391 397.979C429.133 398.225 429.793 398.587 430.323 399.039C430.854 399.491 431.244 400.023 431.464 400.597C431.685 401.171 431.732 401.774 431.601 402.362" stroke="white" stroke-linecap="round" stroke-linejoin="round"/>
<path d="M270.414 401.389C270.534 400.355 271.182 399.392 272.229 398.692C273.276 397.993 274.644 397.608 276.061 397.614" stroke="white" stroke-linecap="round" stroke-linejoin="round"/>
<path d="M428.435 456.811H273.656V462.828H428.435V456.811Z" fill="white" stroke="#263238" stroke-linecap="round" stroke-linejoin="round"/>
<path d="M350.491 434.537C356.548 434.537 361.457 432.382 361.457 429.724C361.457 427.065 356.548 424.91 350.491 424.91C344.435 424.91 339.525 427.065 339.525 429.724C339.525 432.382 344.435 434.537 350.491 434.537Z" fill="white" stroke="#263238" stroke-linecap="round" stroke-linejoin="round"/>
<path d="M661.887 462.116H85.4121V472.367H661.887V462.116Z" fill="#263238"/>
<path d="M512.413 82.0498H235.081C225.733 82.0498 218.154 87.5992 218.154 94.4448V210.967C218.154 217.812 225.733 223.362 235.081 223.362H512.413C521.761 223.362 529.34 217.812 529.34 210.967V94.4448C529.34 87.5992 521.761 82.0498 512.413 82.0498Z" fill="#28C76F"/>
<path d="M381.064 163.257C406.221 160.297 423.337 142.963 419.294 124.542C415.251 106.121 391.58 93.5872 366.423 96.5477C341.267 99.5082 324.151 116.842 328.193 135.263C332.236 153.684 355.907 166.218 381.064 163.257Z" fill="#263238"/>
<path d="M373.396 136.148L358.022 150.6C357.5 151.202 356.781 151.698 355.931 152.046C355.081 152.394 354.126 152.581 353.152 152.591C351.816 152.604 350.528 152.231 349.566 151.552C349.078 151.223 348.691 150.822 348.433 150.375C348.176 149.927 348.052 149.444 348.072 148.959C348.121 147.872 348.644 146.825 349.566 145.972L367.091 130.098L350.657 114.213C349.893 113.468 349.475 112.563 349.462 111.632C349.458 111.076 349.611 110.526 349.912 110.015C350.213 109.505 350.655 109.046 351.21 108.667C351.731 108.268 352.357 107.951 353.051 107.735C353.744 107.519 354.49 107.408 355.244 107.409C356.209 107.42 357.155 107.608 357.995 107.956C358.835 108.304 359.543 108.8 360.054 109.4L374.905 123.72L389.845 109.641C390.379 108.984 391.126 108.433 392.02 108.038C392.913 107.643 393.926 107.416 394.969 107.376C395.616 107.375 396.257 107.471 396.85 107.66C397.444 107.848 397.979 108.124 398.42 108.47C398.891 108.795 399.266 109.186 399.523 109.621C399.78 110.055 399.913 110.524 399.914 110.997C399.898 111.844 399.499 112.664 398.779 113.327L381.194 129.803L398.181 146.213C398.984 146.946 399.431 147.855 399.451 148.795C399.456 149.338 399.299 149.876 398.992 150.371C398.686 150.866 398.235 151.306 397.673 151.661C396.577 152.433 395.115 152.864 393.595 152.865C392.625 152.856 391.673 152.669 390.828 152.321C389.982 151.973 389.269 151.475 388.754 150.873L373.396 136.148Z" fill="white"/>
<path d="M461.647 198.889H285.788C282.222 198.889 278.802 197.852 276.28 196.005C273.758 194.159 272.342 191.655 272.342 189.043C272.342 186.432 273.758 183.928 276.28 182.081C278.802 180.235 282.222 179.197 285.788 179.197H461.647C465.213 179.197 468.633 180.235 471.154 182.081C473.676 183.928 475.093 186.432 475.093 189.043C475.093 191.655 473.676 194.159 471.154 196.005C468.633 197.852 465.213 198.889 461.647 198.889Z" fill="white"/>
<path d="M309.886 192.216C309.769 192.216 309.652 192.198 309.545 192.165C309.437 192.131 309.339 192.081 309.258 192.019C309.17 191.955 309.101 191.878 309.054 191.793C309.008 191.708 308.986 191.618 308.989 191.527C308.989 191.373 309.046 191.221 309.154 191.089L310.498 189.557H307.749C307.622 189.562 307.495 189.547 307.377 189.513C307.258 189.479 307.151 189.427 307.062 189.36C306.909 189.23 306.824 189.063 306.824 188.89C306.824 188.717 306.909 188.551 307.062 188.42C307.151 188.353 307.258 188.301 307.377 188.267C307.495 188.233 307.622 188.218 307.749 188.223L310.454 188.277L309.258 186.855C309.139 186.71 309.072 186.544 309.064 186.374C309.061 186.283 309.083 186.192 309.129 186.107C309.175 186.023 309.245 185.946 309.333 185.882C309.417 185.819 309.517 185.769 309.627 185.736C309.737 185.702 309.856 185.684 309.976 185.685C310.143 185.683 310.307 185.717 310.448 185.783C310.589 185.849 310.7 185.945 310.767 186.057L312.082 187.774L313.337 186.133C313.416 186.005 313.541 185.896 313.7 185.817C313.858 185.738 314.042 185.692 314.233 185.685C314.351 185.685 314.467 185.702 314.575 185.736C314.683 185.77 314.78 185.819 314.861 185.882C314.948 185.942 315.018 186.015 315.064 186.096C315.11 186.177 315.133 186.264 315.13 186.352C315.128 186.507 315.066 186.659 314.951 186.79L313.636 188.332L316.37 188.277C316.497 188.272 316.624 188.287 316.743 188.321C316.862 188.355 316.969 188.407 317.057 188.474C317.211 188.605 317.295 188.772 317.295 188.945C317.295 189.117 317.211 189.284 317.057 189.415C316.969 189.482 316.862 189.535 316.743 189.569C316.624 189.603 316.497 189.618 316.37 189.612H313.606L314.831 191.012C314.969 191.181 315.046 191.373 315.055 191.57C315.059 191.659 315.039 191.747 314.995 191.83C314.952 191.913 314.886 191.988 314.801 192.052C314.722 192.113 314.628 192.162 314.522 192.196C314.417 192.23 314.304 192.248 314.189 192.249C314.004 192.245 313.824 192.203 313.67 192.128C313.517 192.052 313.396 191.946 313.322 191.822L312.082 190.214L310.842 191.822C310.752 191.949 310.614 192.053 310.444 192.123C310.274 192.193 310.08 192.225 309.886 192.216Z" fill="black"/>
<path d="M323.601 192.216C323.483 192.216 323.367 192.198 323.259 192.165C323.151 192.131 323.054 192.081 322.973 192.019C322.885 191.955 322.815 191.878 322.769 191.793C322.723 191.708 322.701 191.618 322.704 191.527C322.704 191.373 322.761 191.221 322.869 191.089L324.213 189.557H321.464C321.337 189.562 321.21 189.547 321.092 189.513C320.973 189.479 320.866 189.427 320.777 189.36C320.623 189.23 320.539 189.063 320.539 188.89C320.539 188.717 320.623 188.551 320.777 188.42C320.866 188.353 320.973 188.301 321.092 188.267C321.21 188.233 321.337 188.218 321.464 188.223L324.168 188.277L322.899 186.801C322.779 186.655 322.712 186.489 322.704 186.319C322.701 186.228 322.723 186.137 322.769 186.053C322.815 185.968 322.885 185.891 322.973 185.827C323.057 185.764 323.157 185.715 323.267 185.681C323.378 185.647 323.496 185.63 323.616 185.63C323.783 185.628 323.947 185.662 324.088 185.729C324.229 185.795 324.34 185.89 324.407 186.002L325.722 187.719L326.977 186.078C327.056 185.951 327.182 185.841 327.34 185.762C327.498 185.683 327.682 185.637 327.874 185.63C327.991 185.63 328.107 185.647 328.215 185.681C328.323 185.715 328.42 185.765 328.501 185.827C328.589 185.887 328.658 185.96 328.704 186.041C328.75 186.122 328.773 186.209 328.77 186.297C328.768 186.453 328.706 186.604 328.591 186.735L327.276 188.277L330.01 188.223C330.137 188.217 330.264 188.232 330.383 188.266C330.502 188.3 330.609 188.352 330.697 188.42C330.851 188.551 330.935 188.717 330.935 188.89C330.935 189.063 330.851 189.23 330.697 189.36C330.609 189.428 330.502 189.48 330.383 189.514C330.264 189.548 330.137 189.563 330.01 189.557H327.246L328.471 190.958C328.609 191.127 328.686 191.319 328.695 191.516C328.7 191.604 328.679 191.693 328.636 191.775C328.592 191.858 328.526 191.934 328.441 191.997C328.363 192.058 328.268 192.108 328.163 192.141C328.057 192.175 327.944 192.193 327.829 192.194C327.643 192.192 327.463 192.151 327.309 192.075C327.155 191.999 327.035 191.892 326.962 191.767L325.722 190.159L324.482 191.767C324.409 191.896 324.287 192.006 324.13 192.085C323.974 192.165 323.791 192.21 323.601 192.216Z" fill="black"/>
<path d="M337.316 192.216C337.198 192.216 337.082 192.198 336.974 192.165C336.866 192.131 336.769 192.081 336.688 192.019C336.6 191.955 336.53 191.878 336.484 191.793C336.438 191.708 336.416 191.618 336.419 191.527C336.419 191.373 336.476 191.221 336.583 191.089L337.928 189.557H335.179C335.052 189.562 334.925 189.547 334.807 189.513C334.688 189.479 334.581 189.427 334.492 189.36C334.338 189.23 334.254 189.063 334.254 188.89C334.254 188.717 334.338 188.551 334.492 188.42C334.581 188.353 334.688 188.301 334.807 188.267C334.925 188.233 335.052 188.218 335.179 188.223L337.883 188.277L336.613 186.801C336.494 186.655 336.427 186.489 336.419 186.319C336.416 186.228 336.438 186.137 336.484 186.053C336.53 185.968 336.6 185.891 336.688 185.827C336.772 185.764 336.872 185.715 336.982 185.681C337.092 185.647 337.211 185.63 337.33 185.63C337.498 185.628 337.662 185.662 337.803 185.729C337.944 185.795 338.055 185.89 338.122 186.002L339.437 187.719L340.692 186.078C340.771 185.951 340.896 185.841 341.054 185.762C341.213 185.683 341.397 185.637 341.588 185.63C341.706 185.63 341.822 185.647 341.93 185.681C342.038 185.715 342.135 185.765 342.216 185.827C342.303 185.887 342.373 185.96 342.419 186.041C342.465 186.122 342.488 186.209 342.485 186.297C342.483 186.453 342.421 186.604 342.306 186.735L340.991 188.277L343.725 188.223C343.852 188.217 343.979 188.232 344.098 188.266C344.217 188.3 344.324 188.352 344.412 188.42C344.566 188.551 344.65 188.717 344.65 188.89C344.65 189.063 344.566 189.23 344.412 189.36C344.324 189.428 344.217 189.48 344.098 189.514C343.979 189.548 343.852 189.563 343.725 189.557H340.961L342.186 190.958C342.324 191.127 342.401 191.319 342.41 191.516C342.414 191.604 342.394 191.693 342.35 191.775C342.307 191.858 342.241 191.934 342.156 191.997C342.077 192.058 341.983 192.108 341.877 192.141C341.772 192.175 341.659 192.193 341.544 192.194C341.358 192.192 341.178 192.151 341.024 192.075C340.87 191.999 340.749 191.892 340.677 191.767L339.437 190.159L338.197 191.767C338.123 191.896 338.001 192.006 337.845 192.085C337.689 192.165 337.505 192.21 337.316 192.216Z" fill="black"/>
<path d="M351.091 192.216C350.974 192.216 350.857 192.198 350.75 192.165C350.642 192.131 350.544 192.081 350.463 192.019C350.375 191.955 350.306 191.878 350.259 191.793C350.213 191.708 350.191 191.618 350.195 191.527C350.194 191.373 350.251 191.221 350.359 191.089L351.703 189.557H348.955C348.827 189.562 348.7 189.547 348.582 189.513C348.463 189.479 348.356 189.427 348.267 189.36C348.114 189.23 348.029 189.063 348.029 188.89C348.029 188.717 348.114 188.551 348.267 188.42C348.356 188.353 348.463 188.301 348.582 188.267C348.7 188.233 348.827 188.218 348.955 188.223L351.659 188.277L350.389 186.801C350.269 186.655 350.202 186.489 350.195 186.319C350.191 186.228 350.213 186.137 350.259 186.053C350.306 185.968 350.375 185.891 350.463 185.827C350.547 185.764 350.647 185.715 350.758 185.681C350.868 185.647 350.986 185.63 351.106 185.63C351.273 185.628 351.438 185.662 351.578 185.729C351.719 185.795 351.83 185.89 351.898 186.002L353.212 187.719L354.467 186.078C354.546 185.951 354.672 185.841 354.83 185.762C354.988 185.683 355.173 185.637 355.364 185.63C355.481 185.63 355.597 185.647 355.705 185.681C355.813 185.715 355.91 185.765 355.991 185.827C356.079 185.887 356.148 185.96 356.194 186.041C356.241 186.122 356.263 186.209 356.26 186.297C356.258 186.453 356.196 186.604 356.081 186.735L354.766 188.277L357.5 188.223C357.627 188.217 357.755 188.232 357.873 188.266C357.992 188.3 358.099 188.352 358.187 188.42C358.341 188.551 358.425 188.717 358.425 188.89C358.425 189.063 358.341 189.23 358.187 189.36C358.099 189.428 357.992 189.48 357.873 189.514C357.755 189.548 357.627 189.563 357.5 189.557H354.736L355.961 190.958C356.1 191.127 356.177 191.319 356.185 191.516C356.19 191.604 356.169 191.693 356.126 191.775C356.082 191.858 356.016 191.934 355.932 191.997C355.853 192.058 355.758 192.108 355.653 192.141C355.547 192.175 355.434 192.193 355.319 192.194C355.134 192.191 354.954 192.149 354.801 192.073C354.647 191.998 354.526 191.891 354.452 191.767L353.212 190.159L351.972 191.767C351.899 191.896 351.777 192.006 351.621 192.085C351.465 192.165 351.281 192.21 351.091 192.216Z" fill="black"/>
<path d="M364.745 192.216C364.628 192.216 364.512 192.198 364.404 192.165C364.296 192.131 364.199 192.081 364.118 192.019C364.029 191.955 363.96 191.878 363.914 191.793C363.867 191.708 363.845 191.618 363.849 191.527C363.856 191.373 363.912 191.223 364.013 191.089L365.358 189.557H362.609C362.482 189.562 362.355 189.547 362.236 189.513C362.118 189.479 362.01 189.427 361.922 189.36C361.768 189.23 361.684 189.063 361.684 188.89C361.684 188.717 361.768 188.551 361.922 188.42C362.01 188.353 362.118 188.301 362.236 188.267C362.355 188.233 362.482 188.218 362.609 188.223L365.313 188.277L364.043 186.801C363.923 186.655 363.856 186.489 363.849 186.319C363.845 186.228 363.867 186.137 363.914 186.053C363.96 185.968 364.029 185.891 364.118 185.827C364.201 185.764 364.301 185.715 364.412 185.681C364.522 185.647 364.641 185.63 364.76 185.63C364.927 185.628 365.092 185.662 365.233 185.729C365.373 185.795 365.485 185.89 365.552 186.002L366.867 187.719L368.122 186.078C368.201 185.951 368.326 185.841 368.484 185.762C368.642 185.683 368.827 185.637 369.018 185.63C369.136 185.629 369.252 185.646 369.36 185.679C369.469 185.713 369.566 185.764 369.646 185.827C369.733 185.887 369.802 185.96 369.849 186.041C369.895 186.122 369.917 186.209 369.914 186.297C369.913 186.453 369.85 186.604 369.735 186.735L368.42 188.277L371.154 188.223C371.282 188.217 371.409 188.232 371.528 188.266C371.646 188.3 371.753 188.352 371.842 188.42C371.995 188.551 372.08 188.717 372.08 188.89C372.08 189.063 371.995 189.23 371.842 189.36C371.753 189.428 371.646 189.48 371.528 189.514C371.409 189.548 371.282 189.563 371.154 189.557H368.391L369.616 190.958C369.754 191.127 369.831 191.319 369.84 191.516C369.844 191.604 369.824 191.693 369.78 191.775C369.736 191.858 369.67 191.934 369.586 191.997C369.507 192.058 369.412 192.108 369.307 192.141C369.202 192.175 369.088 192.193 368.973 192.194C368.788 192.191 368.609 192.149 368.455 192.073C368.302 191.998 368.181 191.891 368.107 191.767L366.867 190.159L365.627 191.767C365.553 191.896 365.431 192.006 365.275 192.085C365.119 192.165 364.935 192.21 364.745 192.216Z" fill="black"/>
<path d="M378.46 192.216C378.343 192.216 378.227 192.198 378.119 192.165C378.011 192.131 377.914 192.081 377.833 192.019C377.744 191.955 377.675 191.878 377.629 191.793C377.582 191.708 377.56 191.618 377.564 191.527C377.571 191.373 377.627 191.223 377.728 191.089L379.073 189.557H376.339C376.209 189.563 376.08 189.548 375.958 189.514C375.837 189.481 375.728 189.428 375.636 189.36C375.483 189.23 375.398 189.063 375.398 188.89C375.398 188.717 375.483 188.551 375.636 188.42C375.728 188.352 375.837 188.3 375.958 188.266C376.08 188.232 376.209 188.217 376.339 188.223L379.028 188.277L377.758 186.801C377.638 186.655 377.571 186.489 377.564 186.319C377.56 186.228 377.582 186.137 377.629 186.053C377.675 185.968 377.744 185.891 377.833 185.827C377.916 185.764 378.016 185.715 378.127 185.681C378.237 185.647 378.355 185.63 378.475 185.63C378.642 185.628 378.807 185.662 378.947 185.729C379.088 185.795 379.199 185.89 379.267 186.002L380.582 187.719L381.837 186.078C381.916 185.951 382.041 185.841 382.199 185.762C382.357 185.683 382.542 185.637 382.733 185.63C382.851 185.629 382.967 185.646 383.075 185.679C383.183 185.713 383.281 185.764 383.36 185.827C383.448 185.887 383.517 185.96 383.564 186.041C383.61 186.122 383.632 186.209 383.629 186.297C383.627 186.453 383.565 186.604 383.45 186.735L382.135 188.277L384.869 188.223C384.997 188.217 385.124 188.232 385.242 188.266C385.361 188.3 385.468 188.352 385.557 188.42C385.71 188.551 385.795 188.717 385.795 188.89C385.795 189.063 385.71 189.23 385.557 189.36C385.468 189.428 385.361 189.48 385.242 189.514C385.124 189.548 384.997 189.563 384.869 189.557H382.105L383.331 190.958C383.469 191.127 383.546 191.319 383.555 191.516C383.559 191.604 383.539 191.693 383.495 191.775C383.451 191.858 383.385 191.934 383.301 191.997C383.222 192.058 383.127 192.108 383.022 192.141C382.917 192.175 382.803 192.193 382.688 192.194C382.503 192.191 382.323 192.149 382.17 192.073C382.016 191.998 381.896 191.891 381.822 191.767L380.582 190.159L379.342 191.767C379.268 191.896 379.146 192.006 378.99 192.085C378.834 192.165 378.65 192.21 378.46 192.216Z" fill="black"/>
<path d="M392.175 192.216C392.058 192.216 391.941 192.198 391.834 192.165C391.726 192.131 391.628 192.081 391.547 192.019C391.459 191.955 391.39 191.878 391.343 191.793C391.297 191.708 391.275 191.618 391.279 191.527C391.278 191.373 391.335 191.221 391.443 191.089L392.787 189.557H390.039C389.911 189.562 389.784 189.547 389.666 189.513C389.547 189.479 389.44 189.427 389.351 189.36C389.198 189.23 389.113 189.063 389.113 188.89C389.113 188.717 389.198 188.551 389.351 188.42C389.44 188.353 389.547 188.301 389.666 188.267C389.784 188.233 389.911 188.218 390.039 188.223L392.743 188.277L391.428 186.855C391.308 186.71 391.241 186.544 391.234 186.374C391.23 186.283 391.252 186.192 391.299 186.107C391.345 186.023 391.414 185.946 391.503 185.882C391.586 185.819 391.686 185.769 391.797 185.736C391.907 185.702 392.025 185.684 392.145 185.685C392.312 185.683 392.477 185.717 392.617 185.783C392.758 185.849 392.869 185.945 392.937 186.057L394.252 187.774L395.507 186.133C395.586 186.006 395.711 185.896 395.869 185.817C396.027 185.738 396.212 185.692 396.403 185.685C396.521 185.683 396.637 185.7 396.745 185.734C396.853 185.768 396.951 185.818 397.03 185.882C397.118 185.942 397.187 186.015 397.234 186.096C397.28 186.177 397.302 186.264 397.299 186.352C397.297 186.507 397.235 186.659 397.12 186.79L395.805 188.332L398.539 188.277C398.667 188.272 398.794 188.287 398.912 188.321C399.031 188.355 399.138 188.407 399.227 188.474C399.38 188.605 399.465 188.772 399.465 188.945C399.465 189.117 399.38 189.284 399.227 189.415C399.138 189.482 399.031 189.535 398.912 189.569C398.794 189.603 398.667 189.618 398.539 189.612H395.775L397.001 191.012C397.139 191.181 397.216 191.373 397.225 191.57C397.229 191.659 397.209 191.747 397.165 191.83C397.121 191.913 397.055 191.988 396.971 192.052C396.892 192.113 396.797 192.162 396.692 192.196C396.587 192.23 396.473 192.248 396.358 192.249C396.173 192.245 395.993 192.203 395.84 192.128C395.686 192.052 395.566 191.946 395.492 191.822L394.252 190.214L393.012 191.822C392.931 191.935 392.812 192.031 392.665 192.1C392.518 192.169 392.349 192.209 392.175 192.216Z" fill="black"/>
<path d="M405.89 192.216C405.773 192.216 405.657 192.199 405.549 192.165C405.441 192.131 405.344 192.081 405.263 192.019C405.174 191.955 405.105 191.878 405.059 191.793C405.012 191.709 404.99 191.618 404.994 191.527C405.001 191.374 405.057 191.224 405.158 191.089L406.503 189.558H403.769C403.641 189.565 403.513 189.551 403.394 189.517C403.275 189.482 403.168 189.429 403.081 189.361C402.919 189.233 402.828 189.065 402.828 188.89C402.828 188.716 402.919 188.548 403.081 188.42C403.168 188.351 403.275 188.298 403.394 188.264C403.513 188.23 403.641 188.216 403.769 188.223L406.458 188.278L405.188 186.801C405.068 186.655 405.001 186.489 404.994 186.319C404.99 186.23 405.01 186.141 405.054 186.057C405.098 185.974 405.165 185.898 405.25 185.833C405.335 185.769 405.437 185.718 405.549 185.683C405.662 185.648 405.783 185.63 405.905 185.63C406.072 185.628 406.237 185.663 406.378 185.729C406.518 185.795 406.629 185.89 406.697 186.002L408.012 187.72L409.267 186.079C409.346 185.951 409.471 185.842 409.629 185.763C409.787 185.684 409.972 185.638 410.163 185.63C410.281 185.627 410.398 185.644 410.507 185.678C410.615 185.712 410.712 185.763 410.79 185.827C410.878 185.887 410.947 185.96 410.994 186.041C411.04 186.122 411.062 186.21 411.059 186.298C411.057 186.453 410.995 186.605 410.88 186.735L409.565 188.278L412.299 188.223C412.427 188.217 412.554 188.232 412.673 188.266C412.791 188.3 412.898 188.353 412.987 188.42C413.14 188.551 413.225 188.718 413.225 188.89C413.225 189.063 413.14 189.23 412.987 189.361C412.898 189.428 412.791 189.48 412.673 189.514C412.554 189.548 412.427 189.563 412.299 189.558H409.536L410.761 190.958C410.899 191.127 410.976 191.319 410.985 191.516C410.989 191.602 410.969 191.688 410.928 191.769C410.887 191.85 410.824 191.924 410.743 191.987C410.663 192.05 410.566 192.1 410.459 192.136C410.352 192.172 410.236 192.191 410.118 192.194C409.933 192.191 409.753 192.149 409.6 192.073C409.446 191.998 409.326 191.892 409.252 191.768L408.012 190.159L406.772 191.768C406.698 191.896 406.576 192.006 406.42 192.086C406.264 192.165 406.08 192.21 405.89 192.216Z" fill="black"/>
<path d="M419.605 192.216C419.488 192.216 419.372 192.199 419.264 192.165C419.156 192.131 419.058 192.081 418.978 192.019C418.889 191.955 418.82 191.878 418.773 191.793C418.727 191.709 418.705 191.618 418.709 191.527C418.716 191.374 418.772 191.224 418.873 191.089L420.218 189.558H417.469C417.344 189.563 417.219 189.548 417.102 189.514C416.986 189.48 416.882 189.428 416.796 189.361C416.634 189.233 416.543 189.065 416.543 188.89C416.543 188.716 416.634 188.548 416.796 188.42C416.882 188.353 416.986 188.301 417.102 188.266C417.219 188.232 417.344 188.218 417.469 188.223L420.173 188.278L418.903 186.801C418.783 186.655 418.716 186.489 418.709 186.319C418.705 186.23 418.725 186.141 418.769 186.057C418.813 185.974 418.88 185.898 418.965 185.833C419.05 185.769 419.152 185.718 419.264 185.683C419.377 185.648 419.498 185.63 419.62 185.63C419.787 185.628 419.952 185.663 420.092 185.729C420.233 185.795 420.344 185.89 420.412 186.002L421.727 187.72L422.981 186.079C423.061 185.951 423.186 185.842 423.344 185.763C423.502 185.684 423.687 185.638 423.878 185.63C423.996 185.627 424.113 185.644 424.221 185.678C424.33 185.712 424.427 185.763 424.505 185.827C424.593 185.887 424.662 185.96 424.708 186.041C424.755 186.122 424.777 186.21 424.774 186.298C424.772 186.453 424.71 186.605 424.595 186.735L423.28 188.278L426.014 188.223C426.141 188.217 426.269 188.232 426.387 188.266C426.506 188.3 426.613 188.353 426.702 188.42C426.855 188.551 426.94 188.718 426.94 188.89C426.94 189.063 426.855 189.23 426.702 189.361C426.613 189.428 426.506 189.48 426.387 189.514C426.269 189.548 426.141 189.563 426.014 189.558H423.25L424.475 190.958C424.614 191.127 424.691 191.319 424.7 191.516C424.704 191.602 424.684 191.688 424.643 191.769C424.602 191.85 424.539 191.924 424.458 191.987C424.378 192.05 424.281 192.1 424.174 192.136C424.067 192.172 423.951 192.191 423.833 192.194C423.648 192.191 423.468 192.149 423.315 192.073C423.161 191.998 423.04 191.892 422.967 191.768L421.727 190.159L420.487 191.768C420.413 191.896 420.291 192.006 420.135 192.086C419.979 192.165 419.795 192.21 419.605 192.216Z" fill="black"/>
<path d="M433.261 192.216C433.144 192.216 433.028 192.199 432.92 192.165C432.812 192.131 432.715 192.081 432.634 192.019C432.545 191.955 432.476 191.878 432.43 191.793C432.383 191.709 432.361 191.618 432.365 191.527C432.372 191.374 432.428 191.224 432.529 191.089L433.874 189.558H431.125C431 189.563 430.875 189.548 430.759 189.514C430.642 189.48 430.538 189.428 430.453 189.361C430.29 189.233 430.199 189.065 430.199 188.89C430.199 188.716 430.29 188.548 430.453 188.42C430.538 188.353 430.642 188.301 430.759 188.266C430.875 188.232 431 188.218 431.125 188.223L433.829 188.278L432.559 186.801C432.439 186.655 432.372 186.489 432.365 186.319C432.361 186.228 432.383 186.138 432.43 186.053C432.476 185.968 432.545 185.891 432.634 185.827C432.717 185.765 432.817 185.715 432.928 185.681C433.038 185.647 433.157 185.63 433.276 185.63C433.444 185.628 433.608 185.663 433.749 185.729C433.889 185.795 434.001 185.89 434.068 186.002L435.383 187.72L436.638 186.079C436.717 185.951 436.842 185.842 437 185.763C437.158 185.684 437.343 185.638 437.534 185.63C437.652 185.627 437.769 185.644 437.878 185.678C437.986 185.712 438.083 185.763 438.162 185.827C438.249 185.887 438.318 185.96 438.365 186.041C438.411 186.122 438.433 186.21 438.43 186.298C438.429 186.453 438.366 186.605 438.251 186.735L436.936 188.278L439.671 188.223C439.798 188.217 439.925 188.232 440.044 188.266C440.162 188.3 440.269 188.353 440.358 188.42C440.511 188.551 440.596 188.718 440.596 188.89C440.596 189.063 440.511 189.23 440.358 189.361C440.269 189.428 440.162 189.48 440.044 189.514C439.925 189.548 439.798 189.563 439.671 189.558H436.907L438.132 190.958C438.27 191.127 438.347 191.319 438.356 191.516C438.36 191.605 438.34 191.693 438.296 191.776C438.252 191.858 438.186 191.934 438.102 191.997C438.023 192.059 437.928 192.108 437.823 192.142C437.718 192.175 437.604 192.193 437.489 192.194C437.304 192.191 437.125 192.149 436.971 192.073C436.818 191.998 436.697 191.892 436.623 191.768L435.383 190.159L434.143 191.768C434.069 191.896 433.947 192.006 433.791 192.086C433.635 192.165 433.451 192.21 433.261 192.216Z" fill="black"/>
<path d="M480.262 216.415H498.533" stroke="white" stroke-width="3" stroke-linecap="round" stroke-linejoin="round"/>
<path d="M226.834 117.9V206.766C226.834 209.34 228.23 211.808 230.715 213.628C233.201 215.447 236.571 216.47 240.086 216.47H462.916" stroke="white" stroke-width="3" stroke-linecap="round" stroke-linejoin="round"/>
<path d="M226.834 94.335V107.66" stroke="white" stroke-width="3" stroke-linecap="round" stroke-linejoin="round"/>
</svg>
