<svg width="747" height="547" viewBox="0 0 747 547" fill="none" xmlns="http://www.w3.org/2000/svg">
<path opacity="0.0845424" d="M674.32 166.248C683.698 153.73 701.454 151.18 713.979 160.551C726.379 169.83 729.005 187.315 719.957 199.81L719.68 200.187L645.38 299.373C635.916 312.006 618.34 315.209 605.041 306.802L604.639 306.543L557.865 275.947L510.705 344.593C501.937 357.355 484.564 360.693 471.702 352.17L471.313 351.908C458.543 343.145 455.204 325.782 463.732 312.927L463.994 312.539L525.793 222.585C534.999 209.184 553.141 205.491 566.841 214.144L567.255 214.41L614.898 245.574L674.32 166.248Z" fill="#02B596"/>
<path opacity="0.0845424" d="M431.118 5.29424C433.496 1.83984 438.232 0.961285 441.696 3.33194C445.115 5.67139 446.018 10.3009 443.756 13.7421L443.664 13.8791L425.148 40.779C422.433 44.5698 417.181 45.4829 413.345 42.8606L413.208 42.7654L402.574 35.1946L391.048 53.4538C388.839 56.9536 384.234 58.0368 380.696 55.9185L380.557 55.8332C377.047 53.6305 375.96 49.0392 378.085 45.5109L378.17 45.3722L393.455 21.158C395.973 17.169 401.257 15.9705 405.258 18.4812L405.467 18.6168L405.673 18.7584L416.53 26.4883L431.118 5.29424Z" fill="#02B596"/>
<path opacity="0.070266" fill-rule="evenodd" clip-rule="evenodd" d="M635.903 128.808V110.831H653.892C655.273 110.831 656.392 109.712 656.392 108.331V99.6761C656.392 98.2954 655.273 97.1761 653.892 97.1761H635.903V79.0664C635.903 77.6857 634.784 76.5664 633.403 76.5664H624.608C623.227 76.5664 622.108 77.6857 622.108 79.0664V97.1761H604.119C602.738 97.1761 601.619 98.2954 601.619 99.6761V108.331C601.619 109.712 602.738 110.831 604.119 110.831H622.108V128.808C622.108 130.189 623.227 131.308 624.608 131.308H633.403C634.784 131.308 635.903 130.189 635.903 128.808Z" fill="#00CFE8"/>
<path opacity="0.0739397" fill-rule="evenodd" clip-rule="evenodd" d="M92.6028 22C143.194 22 184.207 62.9886 184.207 113.551C184.207 164.113 143.194 205.101 92.6028 205.101C42.0113 205.101 0.998779 164.113 0.998779 113.551C0.998779 62.9886 42.0113 22 92.6028 22ZM92.6028 67.3034C67.0462 67.3034 46.3286 88.0089 46.3286 113.551C46.3286 139.092 67.0462 159.798 92.6028 159.798C118.159 159.798 138.877 139.092 138.877 113.551C138.877 88.0089 118.159 67.3034 92.6028 67.3034Z" fill="#00CFE8"/>
<path fill-rule="evenodd" clip-rule="evenodd" d="M77.5964 87H547.725C556.561 87 563.725 94.1634 563.725 103V307.224C563.725 316.061 556.561 323.224 547.725 323.224H77.5964C68.7599 323.224 61.5964 316.061 61.5964 307.224V103C61.5964 94.1634 68.7599 87 77.5964 87Z" fill="#E7FCFF"/>
<path opacity="0.383371" fill-rule="evenodd" clip-rule="evenodd" d="M85.1472 87H547.725C556.561 87 563.725 94.1634 563.725 103V307.224C563.725 316.061 556.561 323.224 547.725 323.224H85.1472C76.3107 323.224 69.1472 316.061 69.1472 307.224V103C69.1472 94.1634 76.3107 87 85.1472 87Z" fill="#00CFE8"/>
<path fill-rule="evenodd" clip-rule="evenodd" d="M86.698 94.5596H546.174C551.697 94.5596 556.174 99.0367 556.174 104.56V305.666C556.174 311.189 551.697 315.666 546.174 315.666H86.698C81.1752 315.666 76.698 311.189 76.698 305.666V104.56C76.698 99.0367 81.1752 94.5596 86.698 94.5596Z" fill="#E7FCFF"/>
<path fill-rule="evenodd" clip-rule="evenodd" d="M281.85 295.822H351.021C354.335 295.822 357.021 298.509 357.021 301.822V315.665H275.85V301.822C275.85 298.509 278.537 295.822 281.85 295.822Z" fill="#D4EFFF"/>
<path fill-rule="evenodd" clip-rule="evenodd" d="M289.401 295.822H358.572C361.886 295.822 364.572 298.509 364.572 301.822V323.224H283.401V301.822C283.401 298.509 286.088 295.822 289.401 295.822Z" fill="#91D6FF"/>
<g filter="url(#filter0_dd_533_357)">
<path d="M96.2445 104.008H221.268C224.244 104.008 226.657 106.42 226.657 109.397V150.047C226.657 153.023 224.244 155.435 221.268 155.435H96.2445C93.2683 155.435 90.8557 153.023 90.8557 150.047V109.397C90.8557 106.42 93.2683 104.008 96.2445 104.008Z" fill="black"/>
</g>
<path d="M96.2445 104.008H221.268C224.244 104.008 226.657 106.42 226.657 109.397V150.047C226.657 153.023 224.244 155.435 221.268 155.435H96.2445C93.2683 155.435 90.8557 153.023 90.8557 150.047V109.397C90.8557 106.42 93.2683 104.008 96.2445 104.008Z" fill="white"/>
<path opacity="0.454078" fill-rule="evenodd" clip-rule="evenodd" d="M132.564 133.031H157.992C158.835 133.031 159.519 133.715 159.519 134.559C159.519 135.402 158.835 136.086 157.992 136.086H132.564C131.721 136.086 131.037 135.402 131.037 134.559C131.037 133.715 131.721 133.031 132.564 133.031Z" fill="#C7C1FF"/>
<path fill-rule="evenodd" clip-rule="evenodd" d="M132.564 124.375H147.819C148.663 124.375 149.347 125.059 149.347 125.903C149.347 126.746 148.663 127.43 147.819 127.43H132.564C131.721 127.43 131.037 126.746 131.037 125.903C131.037 125.059 131.721 124.375 132.564 124.375Z" fill="#009B76"/>
<path fill-rule="evenodd" clip-rule="evenodd" d="M205.813 122.284C207.983 119.429 212.053 118.876 214.904 121.048C215.56 121.548 216.115 122.168 216.539 122.876C216.757 123.241 216.639 123.714 216.275 123.932C215.911 124.151 215.438 124.033 215.22 123.668C214.896 123.128 214.473 122.655 213.973 122.274C211.842 120.65 208.818 121.022 207.14 123.085L207.037 123.216L204.652 126.353C200.927 131.253 194.624 133.414 188.693 131.848L188.439 131.779L186.52 131.237C186.397 131.202 186.272 131.17 186.147 131.143C182.639 130.369 179.168 132.541 178.309 136.01L178.269 136.182L177.873 137.98C177.733 138.616 177.462 139.216 177.076 139.741C175.55 141.817 172.633 142.262 170.559 140.735C170.217 140.483 170.144 140.001 170.395 139.658C170.647 139.316 171.129 139.243 171.471 139.494C172.86 140.518 174.815 140.22 175.837 138.829C176.063 138.521 176.231 138.175 176.332 137.807L176.371 137.649L176.767 135.851C177.735 131.451 182.083 128.67 186.478 129.639L186.709 129.694L186.938 129.755L188.857 130.297C194.172 131.798 199.857 129.945 203.272 125.622L203.428 125.421L205.813 122.284Z" fill="#009B76"/>
<path fill-rule="evenodd" clip-rule="evenodd" d="M198.882 121.353C200.452 117.856 204.557 116.296 208.049 117.868C208.751 118.184 209.395 118.614 209.956 119.142C211.275 120.384 212.497 122.347 213.642 125.034C213.808 125.425 213.627 125.878 213.236 126.044C212.845 126.211 212.394 126.029 212.227 125.638C211.158 123.13 210.043 121.337 208.902 120.264C208.466 119.853 207.965 119.518 207.419 119.272C204.75 118.071 201.623 119.22 200.353 121.837L200.285 121.984L199.79 123.086C199.675 123.342 199.542 123.591 199.394 123.83C197.566 126.766 193.707 127.663 190.774 125.834C190.425 125.616 190.042 125.458 189.641 125.366C187.689 124.918 185.745 126.101 185.23 128.021L185.197 128.156L184.341 131.898C184.083 133.026 183.535 134.066 182.753 134.917C180.312 137.571 176.214 137.785 173.513 135.433L173.369 135.305L169.883 132.091C169.57 131.803 169.55 131.316 169.838 131.003C170.107 130.711 170.548 130.674 170.86 130.905L170.925 130.959L174.411 134.172C176.484 136.083 179.713 135.95 181.621 133.874C182.176 133.27 182.577 132.543 182.792 131.753L182.841 131.554L183.697 127.813C184.344 124.984 187.159 123.217 189.984 123.865C190.481 123.979 190.958 124.164 191.4 124.415L191.588 124.527C193.8 125.906 196.71 125.23 198.088 123.015C198.163 122.895 198.232 122.772 198.296 122.646L198.387 122.454L198.882 121.353Z" fill="#C7C1FF"/>
<path d="M113.489 140.669C119.248 140.669 123.916 135.996 123.916 130.231C123.916 124.466 119.248 119.793 113.489 119.793C107.731 119.793 103.062 124.466 103.062 130.231C103.062 135.996 107.731 140.669 113.489 140.669Z" fill="#009B76"/>
<mask id="mask0_533_357" style="mask-type:alpha" maskUnits="userSpaceOnUse" x="90" y="162" width="170" height="144">
<path d="M95.8557 162.592H254.805C257.566 162.592 259.805 164.83 259.805 167.592V300.271C259.805 303.033 257.566 305.271 254.805 305.271H95.8557C93.0943 305.271 90.8557 303.033 90.8557 300.271V167.592C90.8557 164.83 93.0943 162.592 95.8557 162.592Z" fill="white"/>
</mask>
<g mask="url(#mask0_533_357)">
<g filter="url(#filter1_dd_533_357)">
<path d="M95.8557 162.592H254.805C257.566 162.592 259.805 164.83 259.805 167.592V300.271C259.805 303.033 257.566 305.271 254.805 305.271H95.8557C93.0943 305.271 90.8557 303.033 90.8557 300.271V167.592C90.8557 164.83 93.0943 162.592 95.8557 162.592Z" fill="black"/>
</g>
<path d="M95.8557 162.592H254.805C257.566 162.592 259.805 164.83 259.805 167.592V300.271C259.805 303.033 257.566 305.271 254.805 305.271H95.8557C93.0943 305.271 90.8557 303.033 90.8557 300.271V167.592C90.8557 164.83 93.0943 162.592 95.8557 162.592Z" fill="white"/>
<g filter="url(#filter2_f_533_357)">
<path d="M113.508 272.2C126.898 268.35 136.545 262.497 142.449 254.639C151.305 242.853 154.291 231.428 169.522 231.428C184.754 231.428 186.707 248.925 203.172 248.925C219.638 248.925 220.538 226.612 226.011 217.752C229.659 211.845 234.632 208.892 240.928 208.892" fill="black"/>
</g>
<path d="M113.508 272.2C126.898 268.35 136.545 262.497 142.449 254.639C151.305 242.853 154.291 231.428 169.522 231.428C184.754 231.428 186.707 248.925 203.172 248.925C219.638 248.925 220.538 226.612 226.011 217.752C229.659 211.845 234.632 208.892 240.928 208.892" stroke="#8EEAF6" stroke-width="4.004" stroke-linecap="round"/>
<path opacity="0.414737" fill-rule="evenodd" clip-rule="evenodd" d="M113.508 270.982C126.898 267.149 136.545 261.321 142.449 253.497C151.305 241.762 154.291 230.387 169.522 230.387C184.754 230.387 186.707 247.808 203.172 247.808C219.638 247.808 220.538 225.591 226.011 216.769C229.659 210.888 234.632 207.947 240.928 207.947V282.349C240.928 284.05 239.549 285.429 237.848 285.429H116.588C114.887 285.429 113.508 284.05 113.508 282.349V270.982Z" fill="#CEF9FF"/>
<path d="M156.925 176.766H104.07V182.435H156.925V176.766Z" fill="#8EEAF6"/>
<path fill-rule="evenodd" clip-rule="evenodd" d="M106.904 190.938H125.775C127.341 190.938 128.61 192.208 128.61 193.773C128.61 195.339 127.341 196.608 125.775 196.608H106.904C105.339 196.608 104.07 195.339 104.07 193.773C104.07 192.208 105.339 190.938 106.904 190.938Z" fill="#8EEAF6" fill-opacity="0.401934"/>
<path fill-rule="evenodd" clip-rule="evenodd" d="M227.242 183.38C229.066 183.38 230.545 181.899 230.545 180.073C230.545 178.246 229.066 176.766 227.242 176.766C225.417 176.766 223.938 178.246 223.938 180.073C223.938 181.899 225.417 183.38 227.242 183.38Z" fill="#8EEAF6" fill-opacity="0.451705"/>
<path fill-rule="evenodd" clip-rule="evenodd" d="M236.681 183.38C238.505 183.38 239.984 181.899 239.984 180.073C239.984 178.246 238.505 176.766 236.681 176.766C234.856 176.766 233.377 178.246 233.377 180.073C233.377 181.899 234.856 183.38 236.681 183.38Z" fill="#8EEAF6" fill-opacity="0.451705"/>
<path fill-rule="evenodd" clip-rule="evenodd" d="M246.119 183.38C247.944 183.38 249.423 181.899 249.423 180.073C249.423 178.246 247.944 176.766 246.119 176.766C244.295 176.766 242.816 178.246 242.816 180.073C242.816 181.899 244.295 183.38 246.119 183.38Z" fill="#8EEAF6" fill-opacity="0.451705"/>
</g>
<g filter="url(#filter3_d_533_357)">
<path d="M293.717 117.236H518.93C523.063 117.236 526.414 120.587 526.414 124.721V275.237C526.414 279.37 523.063 282.721 518.93 282.721H293.717C289.584 282.721 286.233 279.37 286.233 275.237V124.721C286.233 120.587 289.584 117.236 293.717 117.236Z" fill="black"/>
</g>
<path d="M293.717 117.236H518.93C523.063 117.236 526.414 120.587 526.414 124.721V275.237C526.414 279.37 523.063 282.721 518.93 282.721H293.717C289.584 282.721 286.233 279.37 286.233 275.237V124.721C286.233 120.587 289.584 117.236 293.717 117.236Z" fill="white"/>
<path fill-rule="evenodd" clip-rule="evenodd" d="M326.852 202.101V261.287H318.021V202.101H326.852Z" fill="#E7E4FF"/>
<path fill-rule="evenodd" clip-rule="evenodd" d="M326.852 216.244V261.287H318.021V216.244H326.852Z" fill="#C7C1FF"/>
<path fill-rule="evenodd" clip-rule="evenodd" d="M326.852 244.532V261.287H318.021V244.532H326.852Z" fill="#009B76"/>
<path fill-rule="evenodd" clip-rule="evenodd" d="M348.044 187.956V261.286H339.214V187.956H348.044Z" fill="#E7E4FF"/>
<path fill-rule="evenodd" clip-rule="evenodd" d="M348.044 209.172V261.286H339.214V209.172H348.044Z" fill="#C7C1FF"/>
<path fill-rule="evenodd" clip-rule="evenodd" d="M348.044 244.532V261.287H339.214V244.532H348.044Z" fill="#009B76"/>
<path fill-rule="evenodd" clip-rule="evenodd" d="M369.237 198.564V261.287H360.406V198.564H369.237Z" fill="#E7E4FF"/>
<path fill-rule="evenodd" clip-rule="evenodd" d="M369.237 219.78V261.287H360.406V219.78H369.237Z" fill="#C7C1FF"/>
<path fill-rule="evenodd" clip-rule="evenodd" d="M369.237 248.068V261.287H360.406V248.068H369.237Z" fill="#009B76"/>
<path fill-rule="evenodd" clip-rule="evenodd" d="M390.429 180.885V261.287H381.599V180.885H390.429Z" fill="#E7E4FF"/>
<path fill-rule="evenodd" clip-rule="evenodd" d="M390.429 202.101V261.287H381.599V202.101H390.429Z" fill="#C7C1FF"/>
<path fill-rule="evenodd" clip-rule="evenodd" d="M390.429 230.389V261.287H381.599V230.389H390.429Z" fill="#009B76"/>
<path fill-rule="evenodd" clip-rule="evenodd" d="M411.622 166.74V261.287H402.792V166.74H411.622Z" fill="#E7E4FF"/>
<path fill-rule="evenodd" clip-rule="evenodd" d="M411.622 195.028V261.287H402.792V195.028H411.622Z" fill="#C7C1FF"/>
<path fill-rule="evenodd" clip-rule="evenodd" d="M411.622 237.46V261.286H402.792V237.46H411.622Z" fill="#009B76"/>
<path fill-rule="evenodd" clip-rule="evenodd" d="M432.814 187.956V261.286H423.984V187.956H432.814Z" fill="#E7E4FF"/>
<path fill-rule="evenodd" clip-rule="evenodd" d="M432.814 209.172V261.286H423.984V209.172H432.814Z" fill="#C7C1FF"/>
<path fill-rule="evenodd" clip-rule="evenodd" d="M432.814 241.703V261.286H423.984V241.703H432.814Z" fill="#009B76"/>
<path fill-rule="evenodd" clip-rule="evenodd" d="M454.006 195.028V261.287H445.176V195.028H454.006Z" fill="#E7E4FF"/>
<path fill-rule="evenodd" clip-rule="evenodd" d="M454.006 209.172V261.286H445.176V209.172H454.006Z" fill="#C7C1FF"/>
<path fill-rule="evenodd" clip-rule="evenodd" d="M454.006 236.753V261.287H445.176V236.753H454.006Z" fill="#009B76"/>
<path fill-rule="evenodd" clip-rule="evenodd" d="M475.199 180.885V261.287H466.369V180.885H475.199Z" fill="#E7E4FF"/>
<path fill-rule="evenodd" clip-rule="evenodd" d="M475.199 209.173V261.287H466.369V209.173H475.199Z" fill="#C7C1FF"/>
<path fill-rule="evenodd" clip-rule="evenodd" d="M475.199 243.825V261.287H466.369V243.825H475.199Z" fill="#009B76"/>
<path fill-rule="evenodd" clip-rule="evenodd" d="M496.391 195.028V261.287H487.561V195.028H496.391Z" fill="#E7E4FF"/>
<path fill-rule="evenodd" clip-rule="evenodd" d="M496.391 209.172V261.286H487.561V209.172H496.391Z" fill="#C7C1FF"/>
<path fill-rule="evenodd" clip-rule="evenodd" d="M496.391 243.825V261.287H487.561V243.825H496.391Z" fill="#009B76"/>
<path opacity="0.57573" fill-rule="evenodd" clip-rule="evenodd" d="M317.318 145.524H387.954C389.126 145.524 390.076 146.474 390.076 147.646C390.076 148.818 389.126 149.768 387.954 149.768H317.318C316.146 149.768 315.196 148.818 315.196 147.646C315.196 146.474 316.146 145.524 317.318 145.524Z" fill="#02B596"/>
<path d="M354.755 133.502H315.196V137.745H354.755V133.502Z" fill="#009B76"/>
<path fill-rule="evenodd" clip-rule="evenodd" d="M559.04 451.882L570.483 542.29L564.484 542.21L553.041 452.728L559.04 451.882Z" fill="#BFE7FF"/>
<path fill-rule="evenodd" clip-rule="evenodd" d="M472.171 456.648C472.171 451.431 476.4 447.203 481.617 447.203H519.379C525.1 447.203 529.882 442.849 530.418 437.153L536.456 372.96C536.992 367.263 541.774 362.91 547.495 362.91H571.196C577.319 362.91 582.284 367.874 582.284 373.998C582.284 374.282 582.273 374.565 582.251 374.848L576.027 455.854C575.583 461.632 570.765 466.093 564.971 466.093H481.617C476.4 466.093 472.171 461.864 472.171 456.648Z" fill="#91D6FF"/>
<path fill-rule="evenodd" clip-rule="evenodd" d="M570.942 362.91C571.517 362.91 572.081 362.954 572.633 363.038C572.721 363.6 572.767 364.176 572.767 364.762C572.767 365.046 572.756 365.331 572.734 365.614L566.515 446.332C566.069 452.108 561.253 456.568 555.459 456.568H472.329L472.173 456.567C472.172 456.506 472.171 456.445 472.171 456.384C472.171 451.181 476.389 446.963 481.592 446.963H519.242C524.962 446.963 529.744 442.611 530.281 436.916L536.314 372.957C536.851 367.262 541.633 362.91 547.353 362.91H570.942Z" fill="#BFE7FF"/>
<path fill-rule="evenodd" clip-rule="evenodd" d="M546.275 347.34C558.474 344.498 559.277 327.746 550.003 321.934C559.567 301.875 537.45 281.958 522.3 294.241C512.368 289.987 504.114 306.586 513.356 319.477C509.481 341.613 517.367 347.334 531.584 347.577L546.275 347.34Z" fill="#422851"/>
<path fill-rule="evenodd" clip-rule="evenodd" d="M546.124 343.339C546.124 343.339 540.19 341.946 539.984 332.217C539.778 322.489 539.923 319.169 539.923 319.169L526.852 318.933C526.852 318.933 526.71 329.774 526.708 333.696C526.702 344.229 519.367 343.339 519.367 343.339C519.367 343.339 520.892 351.88 532.735 352.546C541.982 353.067 546.124 343.339 546.124 343.339Z" fill="url(#paint0_linear_533_357)"/>
<path fill-rule="evenodd" clip-rule="evenodd" d="M542.969 314.31C548.8 314.084 547.849 322.625 541.792 322.613C541.792 322.613 538.274 334.745 526.06 334.745C516.141 334.745 515.495 320.605 515.405 317.784C515.309 314.777 515.296 304.896 515.296 304.896L543.196 304.883L542.969 314.31Z" fill="url(#paint1_linear_533_357)"/>
<path d="M528.415 326.596C528.415 326.596 525.506 329.06 522.136 326.752" stroke="#F77B7B" stroke-width="1.5" stroke-linecap="round"/>
<path d="M526.494 329.45C525.589 329.868 524.718 329.898 523.94 329.482" stroke="#F49494" stroke-linecap="round"/>
<path d="M542.375 318.903C542.315 317.533 542.733 316.445 544.129 316.227" stroke="#F77B7B" stroke-linecap="round"/>
<path fill-rule="evenodd" clip-rule="evenodd" d="M543.892 313.256C543.892 313.256 540.696 317.546 540.049 317.569C539.401 317.592 539.175 311.989 539.175 311.989C535.254 311.689 525.333 309.713 522.9 305.107C521.2 309.171 517.948 310.976 515.812 310.629L515.407 319.262L514.41 301.906H544.674L543.892 313.256Z" fill="#422851"/>
<path fill-rule="evenodd" clip-rule="evenodd" d="M486.404 514.891C486.404 514.891 491.635 525.462 487.347 528.793C483.052 532.124 471.708 538.368 471.708 538.368L501.762 536.478L495.082 513.424L486.404 514.891Z" fill="url(#paint2_linear_533_357)"/>
<path fill-rule="evenodd" clip-rule="evenodd" d="M498.855 524.951C497.372 525.124 498.956 530.12 495.745 530.5C492.54 530.88 490.982 526.146 487.345 527.647C483.709 529.148 470.445 536.906 469.923 540.078C469.394 543.249 474.336 544.182 481.113 543.466C487.89 542.749 489.139 540.337 494.227 541.309C499.308 542.28 503.114 540.732 502.947 537.017C502.779 533.303 500.338 524.778 498.855 524.951Z" fill="#222D4E"/>
<path fill-rule="evenodd" clip-rule="evenodd" d="M485.687 528.417L486.347 529.407C486.653 529.867 486.529 530.487 486.069 530.794C486.047 530.808 486.025 530.822 486.002 530.835L477.036 535.841C476.746 536.003 476.393 536.01 476.096 535.859L474.704 535.153C476.89 533.569 478.678 532.378 480.653 531.21C482.169 530.313 483.848 529.388 485.687 528.417Z" fill="white" fill-opacity="0.540975"/>
<path fill-rule="evenodd" clip-rule="evenodd" d="M531.677 421.725C522.578 422.131 471.938 433.338 462.738 435.242C453.538 437.145 445.759 447.448 452.775 459.377C460.655 472.768 480.986 510.799 485.922 519.372C488.366 523.616 500.691 521.237 497.796 514.114C492.399 500.838 489.892 467.485 476.132 455.324C476.132 455.324 522.408 463.382 542.398 454.151C556.926 447.442 553.639 420.742 531.677 421.725Z" fill="url(#paint3_linear_533_357)"/>
<path fill-rule="evenodd" clip-rule="evenodd" d="M467.209 367.892C467.209 367.892 467.312 360.485 464.723 356.614C462.133 352.743 462.03 348.631 460.07 348.766C458.11 348.901 460.051 358.458 460.051 358.458C460.051 358.458 457.564 357.507 455.778 356.305C453.991 355.103 448.574 349.175 447.309 350.226C445.162 352.015 448.619 362.111 450.502 364.129C452.391 366.148 462.711 372.787 462.711 372.787L467.209 367.892Z" fill="url(#paint4_linear_533_357)"/>
<path fill-rule="evenodd" clip-rule="evenodd" d="M523.123 363.454C518.89 373.276 511.141 391.319 507.946 396.702C503.942 403.444 497.629 406.414 490.237 401.412C482.469 396.156 461.082 375.657 460.455 371.013C459.833 366.37 465.068 360.798 469.805 363.683C474.541 366.567 494.223 382.955 494.223 382.955C494.223 382.955 502.166 362.583 508.556 350.781C514.089 340.571 529.565 348.522 523.123 363.454Z" fill="#009B76"/>
<path fill-rule="evenodd" clip-rule="evenodd" d="M494.141 382.965C492.719 387.792 491.841 390.066 491.509 389.786C491.176 389.507 491.303 386.602 491.89 381.073L494.141 382.965Z" fill="black" fill-opacity="0.302803"/>
<path fill-rule="evenodd" clip-rule="evenodd" d="M565.421 351.619C565.421 351.619 555.221 385.79 554.919 392.258C554.617 398.727 563.261 417.739 561.79 422.545C558.396 433.649 515.073 438.431 513.418 423.492C512.646 416.526 514.252 410.273 512.401 402.064C510.557 393.855 503.143 381.656 507.348 370.187C511.553 358.719 510.426 348.108 513.434 346.103C516.442 344.097 523.473 341.967 523.473 341.967C526.892 347.002 538.435 346.928 543.942 341.612C543.942 341.612 557.625 344.268 565.421 351.619Z" fill="#02B596"/>
<path fill-rule="evenodd" clip-rule="evenodd" d="M556.281 357.154C549.482 367.949 549.503 386.744 545.851 389.206C542.2 391.668 527.988 389.252 527.988 391.201C527.988 393.151 547.628 411.016 544.404 419.556C542.716 424.028 543.174 428.029 545.778 431.558L546.628 431.373C554.366 429.623 560.587 426.481 561.79 422.545C563.262 417.739 553.62 398.727 553.922 392.258C554.179 386.768 562.285 361.315 564.73 353.747C562.74 350.234 559.924 351.369 556.281 357.154Z" fill="black" fill-opacity="0.199355"/>
<path fill-rule="evenodd" clip-rule="evenodd" d="M544.688 385.794C544.688 385.794 536.097 378.186 533.467 377.303C530.837 376.421 515.434 375.36 515.532 377.355C515.642 379.492 523.915 379.369 524.772 380.421C525.629 381.472 525.824 388.658 529.064 389.465C532.298 390.272 541.993 391.663 541.993 391.663L544.688 385.794Z" fill="url(#paint5_linear_533_357)"/>
<path fill-rule="evenodd" clip-rule="evenodd" d="M567.543 353.583C576.594 366.364 584.321 385.832 587.288 393.423C590.254 401.013 587.262 412.461 574.218 410.214C561.199 407.972 540.483 395.792 538.191 392.239C535.899 388.685 539.381 382.22 543.766 383.066C547.829 383.849 567.979 392.422 567.979 392.422C567.979 392.422 555.016 369.431 551.85 363.268C546.562 352.975 559.57 342.322 567.543 353.583Z" fill="#009B76"/>
<path fill-rule="evenodd" clip-rule="evenodd" d="M567.774 392.265C572.301 394.515 574.288 395.168 573.736 394.224C573.184 393.281 570.333 391.151 565.183 387.836L567.774 392.265Z" fill="black" fill-opacity="0.302803"/>
<path fill-rule="evenodd" clip-rule="evenodd" d="M235.062 511.194C235.062 511.194 234.925 519.905 240.272 523C245.618 526.094 253.9 531.844 253.9 531.844L222.392 532.912L223.29 511.116L235.062 511.194Z" fill="#F8CFCF"/>
<path fill-rule="evenodd" clip-rule="evenodd" d="M221.292 520.794L220.779 534.926H228.098L228.599 533.105C228.599 533.105 231.355 532.992 232.947 533.778C234.63 534.61 234.856 535.014 234.856 535.014L258.07 535.063C258.07 535.063 259.215 530.495 252.139 527.191C245.063 523.887 239.91 519.197 238.932 518.717C237.946 518.233 235.957 517.96 234.556 519.096C233.156 520.232 232.048 523.218 228.874 523.312C224.789 523.433 222.442 518.404 221.292 520.794Z" fill="#4B4B4B"/>
<path d="M241.131 520.25L238.724 522.577" stroke="white" stroke-width="2" stroke-linecap="round"/>
<path d="M244.64 522.014L242.233 524.342" stroke="white" stroke-width="2" stroke-linecap="round"/>
<path d="M248.149 523.779L245.742 526.107" stroke="white" stroke-width="2" stroke-linecap="round"/>
<path fill-rule="evenodd" clip-rule="evenodd" d="M212 323C212 323 220.754 419.38 221.026 426.079C221.298 432.779 218.214 444.342 218.274 456.874C218.314 465.229 218.69 484.129 219.401 513.575L238.71 513.984C244.12 460.773 246.855 430.177 246.913 422.198C247 410.229 247.744 324.152 247.744 324.152L212 323Z" fill="#383838"/>
<path opacity="0.283552" fill-rule="evenodd" clip-rule="evenodd" d="M225.919 429.079L225.94 429.318C226.231 433.403 223.693 446.846 218.328 469.645L218.275 456.874C218.216 444.565 221.189 433.192 221.037 426.443L221.026 426.079C220.934 423.821 219.879 411.379 218.521 395.872L219.155 398.143C222.878 411.595 225.133 421.907 225.919 429.079Z" fill="white" fill-opacity="0.192499"/>
<path fill-rule="evenodd" clip-rule="evenodd" d="M188.477 509.966L184.753 532.525L198.481 532.457L198.916 509.613L188.477 509.966Z" fill="#F8CFCF"/>
<path fill-rule="evenodd" clip-rule="evenodd" d="M184.637 522.557L184.526 525.91C183.155 527.431 182.167 530.474 181.562 535.039C181.562 538.229 202.777 538.134 203.797 535.039C203.056 530.068 201.887 526.957 200.289 525.707L200.277 522.385C200.272 521.031 199.361 519.849 198.054 519.498L195.991 518.945C193.984 516.018 191.249 516.121 188.906 519.311L187 519.724C185.656 520.015 184.683 521.183 184.637 522.557Z" fill="#4B4B4B"/>
<path d="M189.686 521.749H195.243" stroke="white" stroke-width="2" stroke-linecap="round"/>
<path d="M189.686 524.394H195.243" stroke="white" stroke-width="2" stroke-linecap="round"/>
<path d="M190.569 527.038H194.359" stroke="white" stroke-width="2" stroke-linecap="round"/>
<path fill-rule="evenodd" clip-rule="evenodd" d="M195.401 324.265C195.401 324.265 189.267 390.331 189.35 402.983C189.434 415.635 191.238 421.191 188.67 430.267C186.958 436.318 185.372 463.491 183.912 511.786L202.903 513.865C210.991 462.186 215.475 432.764 216.355 425.599C217.674 414.852 233.98 323.354 233.98 323.354L195.401 324.265Z" fill="#2E2E2E"/>
<path opacity="0.283552" fill-rule="evenodd" clip-rule="evenodd" d="M200.53 369.105L199.372 373.299C195.98 385.674 192.849 398.761 193.669 417.456L193.709 418.309C193.91 422.359 191.334 445.861 185.98 488.817L185.471 491.836C184.946 494.915 184.478 497.543 184.068 499.718L184.185 495.913C184.867 474.915 186.704 437.216 188.67 430.268C191.238 421.192 189.434 415.635 189.35 402.983C189.292 394.127 192.28 359.098 194.078 338.877L195.401 324.265L203.417 324.076L203.437 326.327C203.578 347.099 202.609 361.359 200.53 369.105Z" fill="white" fill-opacity="0.192499"/>
<path fill-rule="evenodd" clip-rule="evenodd" d="M288.835 242.566C288.835 242.566 287.249 233.828 287.819 232.058C288.306 230.529 292.908 228.324 292.908 228.324C292.908 228.324 300.913 215.818 302.664 217.091C304.09 218.123 298.496 227.343 298.496 227.343C298.496 227.343 303.597 232.636 303.525 235.002C303.454 237.368 295.2 244.774 295.2 244.774L288.835 242.566Z" fill="#F8CFCF"/>
<path fill-rule="evenodd" clip-rule="evenodd" d="M293.08 228.197C293.08 228.197 296.625 227.721 297.189 228.812C297.67 229.741 294.725 232.378 294.725 233.12C294.725 233.861 294.767 239.471 295.004 239.522C295.241 239.573 298.555 230.367 297.849 228.419C297.267 226.821 293.08 228.197 293.08 228.197Z" fill="#F28585"/>
<path fill-rule="evenodd" clip-rule="evenodd" d="M246.546 253.684C237.261 245.662 223.317 260.124 238.865 273.569C244.796 278.698 263.428 291.493 267.995 294.306C275.266 298.785 281.242 294.744 283.697 287.697C285.78 281.723 298.238 249.743 296.653 245.045C295.619 241.982 290.071 239.001 287.286 241.412C283.216 244.935 270.766 275.839 270.766 275.839C270.766 275.839 257.103 262.805 246.546 253.684Z" fill="#02B596"/>
<path fill-rule="evenodd" clip-rule="evenodd" d="M270.766 275.839C273.484 279.136 274.942 280.533 275.138 280.03C275.334 279.526 274.256 277.155 271.904 272.918L270.766 275.839Z" fill="black" fill-opacity="0.159856"/>
<path d="M286.204 243.394C289.444 241.894 292.983 243.748 294.934 246.724" stroke="#5386BF" stroke-linecap="round"/>
<path fill-rule="evenodd" clip-rule="evenodd" d="M206.741 244.432C206.741 244.432 212.08 243.203 212.265 234.628C212.45 226.053 212.32 223.126 212.32 223.126L224.976 222.918C224.976 222.918 225.104 232.475 225.106 235.932C225.111 243.457 230.812 245.49 230.812 245.49C230.812 245.49 230.338 253.719 219.683 254.306C211.364 254.765 206.741 244.432 206.741 244.432Z" fill="#F8C5C5"/>
<path fill-rule="evenodd" clip-rule="evenodd" d="M236.251 213.882L235.968 221.986C238.36 219.23 239.975 215.814 240.454 211.433L236.251 213.882Z" fill="url(#paint6_linear_533_357)"/>
<path fill-rule="evenodd" clip-rule="evenodd" d="M211.158 218.791C205.913 218.592 206.768 226.121 212.217 226.11C212.217 226.11 218.074 237.654 227.268 237.684C231.696 237.698 233.142 233.831 234.47 231.116C235.797 228.401 236.772 224.34 236.853 221.854C236.94 219.203 236.951 210.493 236.951 210.493L210.954 210.481L211.158 218.791Z" fill="#F8CFCF"/>
<path fill-rule="evenodd" clip-rule="evenodd" d="M236.951 214.489H218.668C218.476 217.728 217.378 220.418 214.592 222.402C214.671 227.146 216.29 230.601 219.098 233.023C221.542 226.155 236.495 228.034 235.407 232.515C233.122 241.929 211.707 242.142 213.006 220.476C212.152 219.334 209.097 219.121 208.091 220.263C206.373 215.529 207.106 208.833 212.074 207.864C208.174 197.777 261.196 195.643 236.951 214.489Z" fill="#424242"/>
<path d="M225.236 232.1C225.236 232.1 227.618 233.815 230.754 231.939" stroke="#CC6969" stroke-linecap="round"/>
<path d="M211.976 223.089C212.03 221.881 211.654 220.922 210.398 220.729" stroke="#DE6767" stroke-linecap="round"/>
<path fill-rule="evenodd" clip-rule="evenodd" d="M209.089 243L224.192 252.796L231.001 244.887C231.001 244.887 245.348 249.327 248.01 254.518C251.85 262.008 246.79 322.022 248.996 325.643C253.696 333.36 247.447 338.658 226.757 340.604C206.067 342.55 187.711 340.957 191.042 330.658C194.374 320.359 181.519 253.147 192.852 249.445C196.393 248.288 209.089 243 209.089 243Z" fill="#02B596"/>
<path fill-rule="evenodd" clip-rule="evenodd" d="M198.897 261.529C199.811 263.144 199.34 268.737 197.482 278.309C195.9 286.464 197.709 294.899 202.487 301.705L202.755 302.081C204.371 304.311 205.86 307.247 207.224 310.889C210.567 319.82 202.855 327.266 208.765 341.239L208.05 341.205C196.455 340.606 188.79 337.623 191.042 330.658C193.774 322.214 185.624 275.51 188.847 256.921C194.426 258.015 197.776 259.551 198.897 261.529Z" fill="black" fill-opacity="0.159856"/>
<path fill-rule="evenodd" clip-rule="evenodd" d="M209.089 243L222.598 251.795C220.618 254.093 219.556 256.766 219.155 259.709C213.963 255.656 208.566 249.992 206.894 243.902L209.089 243Z" fill="#009B76"/>
<path fill-rule="evenodd" clip-rule="evenodd" d="M225.259 251.566C227.544 253.108 229.366 255.839 230.849 258.944C232.628 255.376 233.309 250.664 233.309 245.639L231.078 244.759L225.259 251.566Z" fill="#009B76"/>
<path fill-rule="evenodd" clip-rule="evenodd" d="M222.598 251.795L222.775 251.893C223.584 252.344 224.594 252.212 225.259 251.566C230.352 270.207 233.934 290.724 235.018 311.576L229.702 320.39L223.485 312.141C224.295 290.47 224.289 269.339 222.598 251.795Z" fill="#CBC6FF"/>
<path d="M238.889 296.81L251.195 298.609C252.503 298.8 253.427 299.99 253.289 301.305L251.081 322.318C250.938 323.672 249.726 324.654 248.372 324.511C248.339 324.508 248.306 324.504 248.274 324.499L235.968 322.7C234.66 322.509 233.735 321.319 233.874 320.004L236.082 298.991C236.225 297.637 237.437 296.655 238.79 296.798C238.823 296.801 238.856 296.805 238.889 296.81Z" fill="#02B596"/>
<path fill-rule="evenodd" clip-rule="evenodd" d="M240.473 296.406L253.34 298.93L262.145 298.783C263.505 298.76 264.627 299.844 264.65 301.205C264.651 301.305 264.647 301.405 264.636 301.504L262.431 322.485C262.301 323.724 261.267 324.671 260.022 324.691L250.616 324.849L237.317 322.241C236.065 321.995 235.207 320.834 235.341 319.565L237.548 298.567C237.69 297.213 238.903 296.232 240.256 296.374C240.329 296.381 240.401 296.392 240.473 296.406Z" fill="#96EFFA"/>
<path d="M241.752 302.08L247.657 303.161C248.48 303.311 249.048 304.07 248.961 304.902L248.709 307.296C248.617 308.175 247.829 308.813 246.951 308.72C246.91 308.716 246.87 308.71 246.83 308.703L240.924 307.622C240.102 307.472 239.534 306.713 239.621 305.881L239.873 303.487C239.965 302.608 240.752 301.97 241.631 302.063C241.672 302.067 241.712 302.073 241.752 302.08Z" fill="#74CFDB"/>
<path d="M253.236 298.92L253.753 298.974C254.192 299.02 254.511 299.414 254.465 299.853L251.917 324.097C251.87 324.536 251.477 324.855 251.037 324.809L250.52 324.755C250.081 324.708 249.762 324.315 249.808 323.875L252.357 299.632C252.403 299.192 252.796 298.873 253.236 298.92Z" fill="#EAEFFF"/>
<path d="M253.939 298.993L254.456 299.047C254.895 299.093 255.214 299.487 255.168 299.926L252.62 324.17C252.573 324.61 252.18 324.928 251.74 324.882L251.223 324.828C250.784 324.782 250.465 324.388 250.511 323.949L253.059 299.705C253.106 299.265 253.499 298.947 253.939 298.993Z" fill="#7AD2DD"/>
<path fill-rule="evenodd" clip-rule="evenodd" d="M222.89 308.414C222.89 308.414 227.476 307.497 229.354 306.033C231.23 304.569 236.915 303.534 236.915 303.534L235.096 307.34C235.096 307.34 249.029 306.04 249.358 307.406C249.689 308.771 245.659 310.256 245.659 310.256C245.659 310.256 243.672 313.944 241.748 316.082C239.928 318.105 230.884 317.864 227.714 316.601C224.975 315.511 221.996 316.056 221.996 316.056L222.89 308.414Z" fill="#F8CFCF"/>
<path fill-rule="evenodd" clip-rule="evenodd" d="M186.002 255.239C190.984 244.542 208.042 251.749 203.743 263.209C199.579 274.31 189.489 300.23 189.489 300.23C189.489 300.23 221.462 304.263 223.954 306.144C227.279 308.653 225.224 315.813 222.398 317.088C220.007 318.166 202.245 318.796 184.866 317.435C176.269 316.762 169.911 313.092 169.024 303.559C168.402 296.883 181.202 265.544 186.002 255.239Z" fill="#02B596"/>
<path fill-rule="evenodd" clip-rule="evenodd" d="M189.501 300.224C187.73 303.57 187.097 305.277 187.604 305.345C188.11 305.413 189.65 303.829 192.224 300.591L189.501 300.224Z" fill="black" fill-opacity="0.159856"/>
<path d="M221.704 305.598C222.689 308.727 221.997 312.395 220.629 314.987" stroke="#5386BF" stroke-linecap="round"/>
<path fill-rule="evenodd" clip-rule="evenodd" d="M86.3634 445.346C94.5924 441.651 104.259 445.326 107.954 453.555C107.968 453.587 107.982 453.619 107.996 453.65L110.859 460.135C102.63 463.83 92.9635 460.155 89.2682 451.926C89.2541 451.894 89.24 451.863 89.226 451.831L86.3634 445.346Z" fill="#02D3AF"/>
<path fill-rule="evenodd" clip-rule="evenodd" d="M98.1744 449.302C106.424 455.172 111.773 461.714 114.238 468.926C116.715 476.173 117.73 488.321 117.269 505.347C117.262 505.611 117.468 505.83 117.73 505.838C117.991 505.845 118.209 505.637 118.216 505.373C118.68 488.241 117.657 475.997 115.133 468.614C112.598 461.197 107.122 454.5 98.7204 448.521C98.5067 448.369 98.2113 448.421 98.0605 448.636C97.9098 448.852 97.9608 449.15 98.1744 449.302Z" fill="#02B596"/>
<path fill-rule="evenodd" clip-rule="evenodd" d="M156.489 441.32C148.392 437.511 138.74 440.988 134.932 449.086C134.917 449.118 134.902 449.15 134.887 449.182L131.673 456.133C139.77 459.942 149.422 456.465 153.23 448.367C153.245 448.335 153.26 448.303 153.275 448.271L156.489 441.32Z" fill="#02D3AF"/>
<path fill-rule="evenodd" clip-rule="evenodd" d="M91.4976 425.385C99.3415 423.718 107.052 428.725 108.719 436.569L110.069 442.919C102.225 444.586 94.5146 439.579 92.8473 431.735L91.4976 425.385Z" fill="#02D3AF"/>
<path fill-rule="evenodd" clip-rule="evenodd" d="M97.266 430.452C103.311 434.672 107.401 439.223 109.546 444.099L109.678 444.406L109.81 444.729C112.009 450.185 115.647 464.475 120.706 487.545C120.763 487.803 121.016 487.966 121.271 487.91C121.527 487.854 121.688 487.6 121.631 487.342L121.005 484.496L120.272 481.202C115.701 460.761 112.42 448.281 110.412 443.715C108.189 438.662 103.983 433.981 97.8036 429.667C97.5882 429.517 97.2933 429.571 97.1448 429.787C96.9964 430.004 97.0506 430.301 97.266 430.452Z" fill="#02B596"/>
<path fill-rule="evenodd" clip-rule="evenodd" d="M144.624 420.561C135.98 420.408 128.85 427.292 128.698 435.935C128.698 435.937 128.698 435.938 128.698 435.94L128.564 443.653C137.208 443.805 144.338 436.922 144.49 428.278C144.49 428.277 144.49 428.275 144.49 428.274L144.624 420.561Z" fill="#02D3AF"/>
<path fill-rule="evenodd" clip-rule="evenodd" d="M138.951 423.662C133.389 431.822 129.326 439.699 126.762 447.293C124.203 454.874 121.65 466.581 119.1 482.424C119.058 482.684 119.233 482.93 119.491 482.972C119.749 483.014 119.993 482.837 120.034 482.577L120.348 480.651L120.563 479.353C122.929 465.186 125.296 454.6 127.659 447.601C130.193 440.095 134.217 432.295 139.731 424.203C139.879 423.985 139.824 423.688 139.609 423.539C139.393 423.389 139.099 423.444 138.951 423.662Z" fill="#02B596"/>
<path fill-rule="evenodd" clip-rule="evenodd" d="M126.905 418.316C123.898 426.881 121.731 437.472 120.402 450.089C119.073 462.705 118.796 475.322 119.571 487.938L121.772 488.138C120.984 473.413 121.063 460.758 122.01 450.172C122.956 439.587 124.955 429.002 128.005 418.416L126.905 418.316Z" fill="#02B596"/>
<path fill-rule="evenodd" clip-rule="evenodd" d="M126.521 422.761C130.412 423.739 134.352 421.352 135.322 417.428C136.292 413.504 133.429 401.531 131.867 401.138C130.305 400.745 122.203 409.961 121.233 413.885C120.263 417.809 122.631 421.783 126.521 422.761Z" fill="#C2FFF4"/>
<path fill-rule="evenodd" clip-rule="evenodd" d="M127.601 419.672C130.307 420.352 133.063 418.632 133.756 415.829C134.449 413.027 131.874 405.773 130.788 405.5C129.701 405.227 124.648 410.562 123.955 413.365C123.262 416.167 124.894 418.991 127.601 419.672Z" fill="#02D3AF"/>
<path fill-rule="evenodd" clip-rule="evenodd" d="M128.726 419.005L132.783 406.341C133.025 405.588 132.615 404.78 131.869 404.537C131.122 404.294 130.321 404.707 130.08 405.46L126.022 418.124C125.781 418.877 126.191 419.684 126.937 419.928C127.684 420.171 128.484 419.758 128.726 419.005Z" fill="url(#paint7_linear_533_357)"/>
<path fill-rule="evenodd" clip-rule="evenodd" d="M104.951 405.586C108.836 413.79 112.099 424.096 114.74 436.505C117.38 448.913 118.974 461.432 119.522 474.06L117.354 474.489C116.598 459.762 115.197 447.184 113.149 436.756C111.101 426.328 108.007 416.009 103.867 405.801L104.951 405.586Z" fill="#02B596"/>
<path fill-rule="evenodd" clip-rule="evenodd" d="M105.797 409.967C102.03 411.347 97.8617 409.384 96.4869 405.583C95.112 401.782 96.7078 389.575 98.2205 389.021C99.7332 388.467 108.753 396.786 110.128 400.587C111.503 404.388 109.564 408.588 105.797 409.967Z" fill="#C2FFF4"/>
<path fill-rule="evenodd" clip-rule="evenodd" d="M104.4 407.008C101.78 407.968 98.8595 406.545 97.8774 403.83C96.8954 401.115 98.6973 393.632 99.7496 393.247C100.802 392.861 106.385 397.639 107.367 400.354C108.349 403.069 107.021 406.048 104.4 407.008Z" fill="#02D3AF"/>
<path fill-rule="evenodd" clip-rule="evenodd" d="M103.212 406.462L97.853 394.291C97.5344 393.568 97.8573 392.722 98.5743 392.402C99.2912 392.082 100.131 392.409 100.449 393.132L105.809 405.303C106.127 406.026 105.804 406.872 105.087 407.192C104.37 407.512 103.531 407.185 103.212 406.462Z" fill="url(#paint8_linear_533_357)"/>
<path fill-rule="evenodd" clip-rule="evenodd" d="M152.02 443.348C140.792 447.742 132.963 452.819 128.537 458.599C124.111 464.378 121.186 473.342 119.743 485.49C119.712 485.752 119.898 485.99 120.157 486.021C120.417 486.053 120.653 485.866 120.684 485.604C122.108 473.611 124.982 464.804 129.286 459.183C133.591 453.563 141.281 448.575 152.362 444.239C152.606 444.143 152.727 443.867 152.632 443.621C152.538 443.375 152.263 443.253 152.02 443.348Z" fill="#02B596"/>
<path fill-rule="evenodd" clip-rule="evenodd" d="M121.929 478.595C118.376 465.93 109.581 461.451 95.5466 465.157C106.054 468.591 113.988 473.07 119.346 478.595H121.929Z" fill="#02B596"/>
<path fill-rule="evenodd" clip-rule="evenodd" d="M121.875 475.677C125.429 463.012 133.129 457.605 144.975 459.457C137.78 465.371 130.941 470.778 124.458 475.677H121.875Z" fill="#02B596"/>
<path fill-rule="evenodd" clip-rule="evenodd" d="M121.836 479.452C118.659 468.217 120.776 457.763 128.187 448.092C127.811 461.398 126.335 471.442 123.76 478.222L121.836 479.452Z" fill="#02B596"/>
<path fill-rule="evenodd" clip-rule="evenodd" d="M117.173 475.677C115.066 469.587 112.97 461.082 111.399 452.837C119.162 455.959 121.656 468.397 119.162 475.677H117.173Z" fill="#02D3AF"/>
<mask id="mask1_533_357" style="mask-type:alpha" maskUnits="userSpaceOnUse" x="102" y="469" width="35" height="73">
<path d="M104.031 469.571H134.682C135.796 469.571 136.698 470.473 136.698 471.587C136.698 471.645 136.696 471.704 136.691 471.762L130.784 539.355C130.693 540.397 129.821 541.196 128.776 541.196H109.937C108.892 541.196 108.02 540.397 107.929 539.355L102.022 471.762C101.925 470.653 102.746 469.675 103.855 469.578C103.913 469.573 103.972 469.571 104.031 469.571Z" fill="white"/>
</mask>
<g mask="url(#mask1_533_357)">
<path d="M104.031 469.571H134.682C135.796 469.571 136.698 470.473 136.698 471.587C136.698 471.645 136.696 471.704 136.691 471.762L130.784 539.355C130.693 540.397 129.821 541.196 128.776 541.196H109.937C108.892 541.196 108.02 540.397 107.929 539.355L102.022 471.762C101.925 470.653 102.746 469.675 103.855 469.578C103.913 469.573 103.972 469.571 104.031 469.571Z" fill="#02B596"/>
<path fill-rule="evenodd" clip-rule="evenodd" d="M97.4094 465.099H110.354C102.332 495.552 126.48 516.488 110.354 546.941H97.4094V465.099Z" fill="#009B76"/>
</g>
<path fill-rule="evenodd" clip-rule="evenodd" d="M679.746 451.882L668.303 542.29L674.303 542.21L685.746 452.728L679.746 451.882Z" fill="#91D6FF"/>
<path fill-rule="evenodd" clip-rule="evenodd" d="M646.447 451.882L635.004 542.29L641.004 542.21L652.447 452.728L646.447 451.882Z" fill="#91D6FF"/>
<path fill-rule="evenodd" clip-rule="evenodd" d="M719.495 451.882L730.938 542.29L724.938 542.21L713.495 452.728L719.495 451.882Z" fill="#BFE7FF"/>
<path fill-rule="evenodd" clip-rule="evenodd" d="M632.626 456.648C632.626 451.431 636.855 447.203 642.071 447.203H679.834C685.555 447.203 690.337 442.849 690.873 437.153L696.911 372.96C697.446 367.263 702.228 362.91 707.95 362.91H731.65C737.774 362.91 742.738 367.874 742.738 373.998C742.738 374.282 742.727 374.565 742.706 374.848L736.481 455.854C736.037 461.632 731.22 466.093 725.426 466.093H642.071C636.855 466.093 632.626 461.864 632.626 456.648Z" fill="#91D6FF"/>
<path fill-rule="evenodd" clip-rule="evenodd" d="M731.396 362.91C731.971 362.91 732.536 362.954 733.087 363.038C733.176 363.6 733.222 364.176 733.222 364.762C733.222 365.046 733.211 365.331 733.189 365.614L726.969 446.332C726.524 452.108 721.707 456.568 715.914 456.568H632.784L632.628 456.567C632.627 456.506 632.626 456.445 632.626 456.384C632.626 451.181 636.844 446.963 642.047 446.963H679.697C685.417 446.963 690.198 442.611 690.736 436.916L696.769 372.957C697.306 367.262 702.087 362.91 707.808 362.91H731.396Z" fill="#BFE7FF"/>
<path fill-rule="evenodd" clip-rule="evenodd" d="M644.109 513.415C644.109 513.415 649.355 524.01 645.055 527.349C640.748 530.688 629.371 536.946 629.371 536.946L659.511 535.052L652.812 511.944L644.109 513.415Z" fill="url(#paint9_linear_533_357)"/>
<path fill-rule="evenodd" clip-rule="evenodd" d="M656.526 523.002C655.577 523.455 657.137 527.712 653.8 527.413C650.464 527.115 648.369 522.714 645.909 523C643.447 523.285 641.886 527.716 637.201 530.803C632.517 533.89 625.572 537.572 626.038 540.675C626.503 543.779 637.432 544.61 642.969 543.582C648.505 542.556 651.09 540.33 654.682 540.507C658.274 540.685 660.531 540.245 661.658 537.939C662.783 535.632 657.62 522.48 656.526 523.002Z" fill="#EEDFE8"/>
<path fill-rule="evenodd" clip-rule="evenodd" d="M656.259 537.167L655.952 537.149C651.5 536.774 648.446 539.573 644.209 540.363C639.971 541.153 628.795 541.426 627.011 538.775C626.926 538.65 626.847 538.521 626.775 538.39C626.175 539.128 625.893 539.916 626.038 540.835C626.503 543.789 637.433 544.58 642.97 543.602C648.507 542.625 651.092 540.507 654.684 540.676L655.323 540.7C658.546 540.787 660.602 540.293 661.66 538.231C661.918 537.729 661.86 536.648 661.601 535.283C660.099 536.311 658.203 537.226 656.259 537.167Z" fill="#EC7AA5"/>
<path fill-rule="evenodd" clip-rule="evenodd" d="M689.512 420.031C680.387 420.439 629.602 431.671 620.375 433.58C611.148 435.488 603.348 445.814 610.384 457.771C618.286 471.194 638.676 509.313 643.626 517.906C646.076 522.16 658.438 519.775 655.534 512.636C650.121 499.328 647.607 465.898 633.807 453.709C633.807 453.709 680.217 461.786 700.264 452.534C714.834 445.808 711.538 419.046 689.512 420.031Z" fill="#413C75"/>
<path fill-rule="evenodd" clip-rule="evenodd" d="M625.86 363.074C625.86 363.074 625.963 357.649 623.366 353.769C620.769 349.889 620.666 345.768 618.7 345.903C616.735 346.038 618.681 355.617 618.681 355.617C618.681 355.617 616.187 354.665 614.395 353.459C612.604 352.254 607.171 346.313 605.902 347.366C603.749 349.16 607.216 359.278 609.104 361.301C610.999 363.325 620.349 368.979 620.349 368.979L647.883 396.719L652 381.993L625.86 363.074Z" fill="url(#paint10_linear_533_357)"/>
<path fill-rule="evenodd" clip-rule="evenodd" d="M680.934 360.625C676.689 370.47 668.917 388.555 665.713 393.951C661.698 400.708 655.366 403.685 647.953 398.671C646.919 397.972 644.917 396.399 641.948 393.953C642.607 387.531 645.006 382.164 649.142 377.848C651.014 379.397 651.951 380.172 651.951 380.172C651.951 380.172 659.916 359.752 666.325 347.923C671.874 337.689 687.395 345.658 680.934 360.625Z" fill="#EA5455"/>
<path fill-rule="evenodd" clip-rule="evenodd" d="M651.868 380.182C650.442 385.02 649.562 387.298 649.229 387.018C648.895 386.738 649.022 383.827 649.611 378.285L651.868 380.182Z" fill="black" fill-opacity="0.159856"/>
<path fill-rule="evenodd" clip-rule="evenodd" d="M699.278 322.411V331.122L705.675 325.972C705.675 325.972 707.642 317.626 709.241 311.427C710.244 307.539 712.687 294.383 702.851 295C694.793 280.796 671.327 289.587 671.14 306.94C670.916 327.811 671.099 335.937 671.099 335.937C684.369 336.698 691.837 334.78 699.278 322.411Z" fill="#422851"/>
<path fill-rule="evenodd" clip-rule="evenodd" d="M705.814 338.997C705.814 338.997 699.863 337.6 699.656 327.849C699.45 318.098 699.595 314.77 699.595 314.77L686.487 314.533C686.487 314.533 686.344 325.4 686.342 329.331C686.336 338.888 679.308 339.672 679.308 339.672C679.308 339.672 680.51 347.557 692.387 348.225C701.661 348.747 705.814 338.997 705.814 338.997Z" fill="url(#paint11_linear_533_357)"/>
<path fill-rule="evenodd" clip-rule="evenodd" d="M702.65 309.901C708.498 309.675 707.544 318.235 701.47 318.224C701.47 318.224 697.942 330.384 685.692 330.384C675.744 330.384 675.097 316.211 675.007 313.384C674.91 310.369 674.898 300.465 674.898 300.465L702.878 300.452L702.65 309.901Z" fill="url(#paint12_linear_533_357)"/>
<path fill-rule="evenodd" clip-rule="evenodd" d="M703.103 309.845C700.68 310.245 700.974 311.849 700.315 311.709C696.969 310.997 683.425 311.936 681.681 304.488C679.511 309.141 678.98 310.285 674.202 311.534V297.899L704.424 295C704.424 295 703.955 309.704 703.103 309.845Z" fill="#422851"/>
<path d="M688.054 322.215C688.054 322.215 685.136 324.685 681.757 322.372" stroke="#F77B7B" stroke-width="1.5" stroke-linecap="round"/>
<path d="M686.128 325.075C685.22 325.494 684.347 325.525 683.566 325.107" stroke="#F49494" stroke-linecap="round"/>
<path d="M702.055 314.505C701.994 313.132 702.413 312.041 703.814 311.822" stroke="#F77B7B" stroke-linecap="round"/>
<path fill-rule="evenodd" clip-rule="evenodd" d="M704.484 337.999C697.016 342.573 688.383 344.25 680.346 339.283C667.23 365.144 663.961 396.001 667.116 430.105C686.242 437.677 702.316 436.188 716 427.534L704.484 337.999Z" fill="#FFE4F4"/>
<path fill-rule="evenodd" clip-rule="evenodd" d="M611.416 513.84C611.416 513.84 611.574 526.31 601.298 530.973C591.029 535.635 583.712 535.354 584.643 538.959C585.575 542.563 612.305 542.417 614.801 539.598C616.928 537.201 621.555 514.871 622.829 516.579L611.416 513.84Z" fill="url(#paint13_linear_533_357)"/>
<path fill-rule="evenodd" clip-rule="evenodd" d="M618.879 531.451C617.305 530.318 615.98 536.853 611.703 535.035C607.425 533.219 610.799 527.213 608.107 526.105C605.415 524.997 600.216 530.953 593.313 532.4C586.409 533.847 580.803 535.114 579.21 537.801C577.838 540.11 579.21 540.849 579.21 540.849C579.21 540.849 585.856 544.168 589.986 544.898C595.986 545.959 613.326 546.666 615.225 544.731C616.392 543.544 619.667 532.019 618.879 531.451Z" fill="#EEDFE8"/>
<path fill-rule="evenodd" clip-rule="evenodd" d="M578.836 538.072C577.534 540.195 579.588 541.299 579.834 541.422L580.824 541.843C582.705 542.625 586.946 544.301 590.081 544.9C595.829 545.999 613.629 546.65 615.544 544.761C615.88 544.429 616.295 543.216 616.698 541.64L615.476 541.773C609.599 542.396 596.478 543.523 590.002 541.997C584.255 540.643 581.109 538.416 579.674 537.116C579.325 537.415 579.043 537.733 578.836 538.072Z" fill="#EC7AA5"/>
<path fill-rule="evenodd" clip-rule="evenodd" d="M718.102 416.176C726.946 434.853 725.154 447.398 712.725 453.811C694.697 463.114 640.725 452.111 640.725 452.111C640.725 452.111 641.689 459.876 640.725 466.801C638.206 484.888 626.226 515.022 623.692 518.809C620.187 524.045 609.51 520.096 609.309 515.736C609.108 511.376 617.358 455.692 618.612 445.074C619.86 434.455 623.801 432.912 635.309 430.01C637.953 429.343 669.22 421.572 672.084 421.799C688.492 423.096 703.831 421.222 718.102 416.176Z" fill="#524D87"/>
<path fill-rule="evenodd" clip-rule="evenodd" d="M703.56 450.92C685.711 452.92 638.457 448.797 636.559 450.671C634.747 452.459 635.049 483.575 630.984 501.584L631.603 499.884C635.425 489.267 639.394 476.354 640.725 466.801C641.689 459.876 640.725 452.111 640.725 452.111L642.901 452.532C653.16 454.46 696.86 461.998 712.725 453.811C721.322 449.375 724.83 442.006 723.249 431.703C720.528 443.348 713.965 449.754 703.56 450.92Z" fill="white" fill-opacity="0.056108"/>
<path fill-rule="evenodd" clip-rule="evenodd" d="M704.158 338.02C691.789 378.537 684.372 435.978 723 425.985C702.481 388.205 730.376 371.201 724.053 351.675C721.891 344.999 704.319 337.496 704.158 338.02Z" fill="#EA5455"/>
<path fill-rule="evenodd" clip-rule="evenodd" d="M718.108 354.845C704.129 356.955 715.652 381.362 711.038 385.039C706.424 388.716 698.392 389.113 697.526 391.359C695.786 395.874 704.199 407.271 722.768 425.55L723 425.986C705.126 393.075 723.988 375.93 724.969 359.151C722.898 355.902 720.611 354.467 718.108 354.845Z" fill="black" fill-opacity="0.159856"/>
<path fill-rule="evenodd" clip-rule="evenodd" d="M681 338.999C676.28 350.837 674.012 360.126 671.895 377.502C670.718 387.15 670.424 401.929 671.013 421.839L665.18 422.986C662.4 392.226 661.475 374.866 662.404 370.906C664.744 360.937 666.329 355.112 669.418 345.999C671.12 340.997 681 338.999 681 338.999Z" fill="#EA5455"/>
<path fill-rule="evenodd" clip-rule="evenodd" d="M701.56 384.016C701.56 384.016 693.945 376.391 691.307 375.506C688.67 374.621 674.223 373.558 674.321 375.558C674.431 377.7 683.728 377.577 684.587 378.631C685.447 379.684 686.642 387.887 689.892 388.696C693.135 389.505 699.858 391.899 699.858 391.899L729.782 407.36L726.594 391.9L701.56 384.016Z" fill="url(#paint14_linear_533_357)"/>
<path fill-rule="evenodd" clip-rule="evenodd" d="M724.481 351.731C733.558 364.542 741.308 384.055 744.283 391.663C747.257 399.271 744.257 410.746 731.176 408.494C730.138 408.315 728.774 407.897 727.085 407.24C722.276 400.647 721.432 394.986 723.227 389.946C724.355 390.422 724.919 390.66 724.919 390.66C724.919 390.66 711.918 367.616 708.743 361.439C703.44 351.122 716.486 340.443 724.481 351.731Z" fill="#EA5455"/>
<path fill-rule="evenodd" clip-rule="evenodd" d="M724.919 390.661C729.321 392.811 731.245 393.414 730.692 392.468C730.138 391.522 727.375 389.426 722.403 386.182L724.919 390.661Z" fill="black" fill-opacity="0.159856"/>
<path fill-rule="evenodd" clip-rule="evenodd" d="M588.762 345.057L612.232 339.206C613.552 338.876 614.889 339.68 615.219 341L623.741 375.18C624.07 376.501 623.266 377.838 621.946 378.167L598.477 384.019C597.156 384.348 595.819 383.545 595.49 382.224L586.968 348.044C586.638 346.724 587.442 345.386 588.762 345.057Z" fill="url(#paint15_linear_533_357)"/>
<path fill-rule="evenodd" clip-rule="evenodd" d="M589.678 345.608L613.147 339.756C614.468 339.427 615.805 340.231 616.134 341.551L624.656 375.731C624.985 377.052 624.182 378.389 622.862 378.718L599.392 384.57C598.072 384.899 596.734 384.095 596.405 382.775L587.883 348.595C587.554 347.275 588.358 345.937 589.678 345.608Z" fill="#518DF8"/>
<path d="M590.499 346.208L612.571 340.704C613.76 340.408 614.963 341.131 615.26 342.32L622.965 373.223C623.261 374.411 622.538 375.614 621.349 375.911L599.277 381.414C598.089 381.71 596.885 380.987 596.589 379.799L588.884 348.896C588.588 347.708 589.311 346.504 590.499 346.208Z" fill="white"/>
<path fill-rule="evenodd" clip-rule="evenodd" d="M384.205 397.871H395.621V542.75H384.205V397.871Z" fill="#E9E9E9"/>
<path fill-rule="evenodd" clip-rule="evenodd" d="M272.375 402.634H362.564V429.542H287.403V542.751H272.375V402.634Z" fill="#D3D3D3"/>
<path fill-rule="evenodd" clip-rule="evenodd" d="M271.792 402.634H279.792V542.751H271.792V402.634Z" fill="#DBDBDB"/>
<path fill-rule="evenodd" clip-rule="evenodd" d="M664.43 402.634H680.43V542.751H664.43V402.634Z" fill="#E9E9E9"/>
<path fill-rule="evenodd" clip-rule="evenodd" d="M664.43 397.871H674.43V542.75H664.43V397.871Z" fill="#DBDBDB"/>
<path fill-rule="evenodd" clip-rule="evenodd" d="M532.007 402.634H671.007V429.19H550.714V542.751H532.007V402.634Z" fill="#D3D3D3"/>
<path fill-rule="evenodd" clip-rule="evenodd" d="M283.59 397.871L532.479 397.871V438.101H283.59V397.871Z" fill="#DBDBDB"/>
<path fill-rule="evenodd" clip-rule="evenodd" d="M526.771 402.634H538.188V438.101H526.771V402.634Z" fill="#E9E9E9"/>
<path fill-rule="evenodd" clip-rule="evenodd" d="M532.042 402.634H541.042V542.751H532.042V402.634Z" fill="#DBDBDB"/>
<path fill-rule="evenodd" clip-rule="evenodd" d="M540.62 397.871H685.745C689.69 397.871 692.889 401.069 692.889 405.015C692.889 408.96 689.69 412.158 685.745 412.158H540.62C536.674 412.158 533.476 408.96 533.476 405.015C533.476 401.069 536.674 397.871 540.62 397.871Z" fill="#E9E9E9"/>
<path fill-rule="evenodd" clip-rule="evenodd" d="M280.736 400.729H529.625V415.015H280.736V400.729Z" fill="#E9E9E9"/>
<path fill-rule="evenodd" clip-rule="evenodd" d="M266.948 397.871H543.413C547.358 397.871 550.556 401.069 550.556 405.015C550.556 408.96 547.358 412.158 543.413 412.158H266.948C263.003 412.158 259.805 408.96 259.805 405.015C259.805 401.069 263.003 397.871 266.948 397.871Z" fill="#DBDBDB"/>
<path fill-rule="evenodd" clip-rule="evenodd" d="M304.388 507.18L296.49 532.823L313.058 533.424C313.058 533.424 311.187 524.652 313.858 516.43C316 509.828 317.748 506.534 317.748 506.534L304.388 507.18Z" fill="#92691F"/>
<path fill-rule="evenodd" clip-rule="evenodd" d="M312.623 526.377C316.839 530.284 320.974 532.962 325.027 534.409C331.108 536.58 333.436 536.604 333.87 537.421L333.948 537.576C335.199 540.159 334.441 543.589 320.58 543.779C317.21 543.825 313.708 541.868 304.409 539.797L303.738 543.417C298.534 543.348 295.497 542.528 294.628 540.956C293.319 538.605 295.545 527.01 297.08 526.791C298.616 526.571 298.919 531.286 303.042 531.39C307.171 531.493 312.623 526.377 312.623 526.377Z" fill="#391B0B"/>
<path fill-rule="evenodd" clip-rule="evenodd" d="M312.624 526.377C316.722 530.176 320.744 532.811 324.689 534.285C323.572 535.344 322.032 535.649 320.068 535.201C317.666 534.652 314.591 532.086 310.843 527.502L311.027 527.723C312.005 526.958 312.624 526.377 312.624 526.377Z" fill="#81411E"/>
<path fill-rule="evenodd" clip-rule="evenodd" d="M266.631 426.913C310.493 430.42 335.446 432.267 341.489 432.454C350.554 432.735 357.48 445.674 350.46 457.617C342.576 471.024 321.155 509.621 316.967 518.545C313.425 526.09 297.327 522.998 300.224 511.473C303.682 497.679 310.128 466.733 323.897 454.558C323.897 454.558 290.41 466.698 271.548 454.924C264.374 450.445 262.735 441.108 266.631 426.913Z" fill="#7A3636"/>
<path fill-rule="evenodd" clip-rule="evenodd" d="M350.46 457.617L349.435 459.375C345.444 466.271 339.001 477.922 332.85 489.27L333.174 488.23C337.931 473.091 345.322 455.258 348.482 449.816C349.59 447.909 351.098 445.965 353.007 443.985C353.816 448.139 353.201 452.954 350.46 457.617Z" fill="white" fill-opacity="0.192499"/>
<path fill-rule="evenodd" clip-rule="evenodd" d="M375.987 507.479C375.987 507.479 380.385 527.038 386.11 529.13C388.315 529.936 369.219 532.237 369.219 532.237L364.425 513.473L375.987 507.479Z" fill="#92691F"/>
<path fill-rule="evenodd" clip-rule="evenodd" d="M366.46 525.631L366.141 542.142L372.723 542.191L372.791 538.479C372.791 538.479 377.92 541.556 381.394 542.638C386.067 544.097 404.525 543.332 406.61 541.109C408.697 538.876 408.741 535.324 404.459 534.887C400.178 534.45 393.098 533.15 390.05 530.818C386.364 528.006 384.961 523.546 383.889 523.542C382.25 523.537 382.123 528.783 373.804 528.858C370.637 528.886 366.46 525.631 366.46 525.631Z" fill="#391B0B"/>
<path fill-rule="evenodd" clip-rule="evenodd" d="M382.186 525.015C382.186 525.015 386.431 531.639 388.955 532.598C391.479 533.547 393.512 532.481 393.512 532.481C393.512 532.481 389.161 530.747 387.48 527.721C383.673 520.867 382.911 524.354 382.186 525.015Z" fill="#81411E"/>
<path fill-rule="evenodd" clip-rule="evenodd" d="M272.075 432.227C272.013 446.241 276.691 455.009 286.107 458.531C300.23 463.814 346.22 461.826 346.22 461.826C346.22 461.826 360.815 515.525 364.312 520.755C367.809 525.985 384.391 526.526 383.494 514.48C382.59 502.434 376.119 457.712 374.867 447.106C373.622 436.499 369.691 433.96 358.208 432.059C354.172 431.391 355.885 430.321 329.941 429.106C324.369 428.845 315.02 430.931 306.429 431.876C300.701 432.506 289.25 432.623 272.075 432.227Z" fill="#7A3636"/>
<path fill-rule="evenodd" clip-rule="evenodd" d="M317.978 432.681V430.24L319.128 430.067C323.31 429.446 327.112 428.974 329.941 429.106L332.924 429.251C355.757 430.406 354.334 431.418 358.208 432.059L358.954 432.186C369.617 434.033 373.475 436.613 374.781 446.418L375.147 449.369C376.875 462.961 382.645 503.157 383.494 514.48C383.561 515.387 383.53 516.222 383.412 516.989L380.051 500.062C375.097 474.966 372.321 460.096 371.723 455.451L371.598 454.486C370.479 446.243 367.551 436.015 358.102 436.682L357.286 436.751C350.633 437.257 338.017 435.981 319.437 432.923L317.978 432.681Z" fill="white" fill-opacity="0.192499"/>
<path d="M383.833 455.356C385.864 455.825 388.178 453.32 388.999 449.761C389.821 446.202 388.84 442.936 386.808 442.467C384.776 441.998 382.463 444.503 381.642 448.062C380.82 451.621 381.801 454.887 383.833 455.356Z" fill="white" fill-opacity="0.192499"/>
<path fill-rule="evenodd" clip-rule="evenodd" d="M282.263 404.315C282.263 404.315 297.654 407.878 297.498 409.276C297.345 410.682 290.569 410.898 290.569 410.898C290.569 410.898 303.095 418.987 302.098 420.565C301.101 422.143 292.934 423.921 289.545 422.648C286.154 421.375 277.367 412.112 277.367 412.112L282.263 404.315Z" fill="url(#paint16_linear_533_357)"/>
<path fill-rule="evenodd" clip-rule="evenodd" d="M282.403 358.716C277.247 365.078 259.67 384.512 259.67 384.512C259.67 384.512 277.247 397.032 281.674 399.68C288.932 404.021 281.551 415.536 276.228 414.257C269.014 412.52 250.807 399.958 242.251 394.875C233.696 389.792 236.969 381.584 243.299 374.095C248.161 368.342 258.732 356.557 266.169 346.211C273.569 335.917 292.406 346.37 282.403 358.716Z" fill="#EA5455"/>
<path fill-rule="evenodd" clip-rule="evenodd" d="M259.669 384.513C256.37 387.692 254.892 389.404 255.235 389.65C255.578 389.896 257.737 388.672 261.713 385.979L259.669 384.513Z" fill="black" fill-opacity="0.159856"/>
<path fill-rule="evenodd" clip-rule="evenodd" d="M313.095 312.006C317.418 312.48 317.111 320.088 311.849 320.485C310.773 327.82 306.937 331.314 302.261 331.719L302.52 342.812L281.835 342.8C281.835 342.8 287.66 334.963 287.37 324.234C287.079 313.505 287.564 303.426 287.564 303.426L314.357 303.907L313.095 312.006Z" fill="url(#paint17_linear_533_357)"/>
<path fill-rule="evenodd" clip-rule="evenodd" d="M304.633 291.313C320.569 295.335 313.995 312.328 313.995 312.328C309.18 311.671 304.546 317.513 302.788 323.244C297.707 328.466 291.127 328.458 286.75 325.415C282.736 313 281.386 304.726 282.699 300.591C284.669 294.39 290.107 287.647 304.633 291.313Z" fill="#2C272E"/>
<path fill-rule="evenodd" clip-rule="evenodd" d="M266.958 345.287C265.527 347.723 264.502 357.535 266.958 396.408C268.229 416.537 262.82 436.376 264.218 445.109C265.15 450.931 268.818 454.19 275.224 454.886L280.827 436.657L283.463 454.886C309.952 452.409 324.357 448.155 326.678 442.125C330.168 433.06 325.786 411.75 324.744 391.683C323.697 371.537 324.482 350.858 322.557 347.723C318.714 341.468 308.822 338.545 302.682 337.61C294.891 336.422 284.834 336.377 278.855 338.273C272.875 340.168 268.388 342.851 266.958 345.287Z" fill="#EA5455"/>
<path fill-rule="evenodd" clip-rule="evenodd" d="M307.387 359.131C310.522 382.265 314.715 398.498 319.966 407.83C322.137 411.688 324.342 413.279 326.582 412.602L326.05 407.475C325.519 402.287 325.017 396.943 324.744 391.684C324.553 388.016 324.423 384.331 324.327 380.737L307.387 359.131Z" fill="black" fill-opacity="0.159856"/>
<path fill-rule="evenodd" clip-rule="evenodd" d="M278.854 338.273C278.492 338.388 278.141 338.507 277.802 338.631C286.387 342.374 300.562 341.874 308.268 338.824C306.26 338.258 304.335 337.862 302.682 337.61C294.891 336.422 284.834 336.377 278.854 338.273Z" fill="#E5AA41"/>
<path fill-rule="evenodd" clip-rule="evenodd" d="M384.155 379.168C384.155 379.168 396.939 370.633 399.199 368.919C401.451 367.212 404.277 354.268 402.525 352.452C401.679 351.573 395.283 357.486 394.142 358.277C393.009 359.062 387.209 362.556 387.209 362.556C387.209 362.556 388.85 352.648 387.437 351.849C386.392 351.268 384.302 353.818 384.022 356.512C383.743 359.207 380.835 362.723 380.46 366.812C380.291 368.599 378.532 372.013 378.532 372.013L384.155 379.168Z" fill="url(#paint18_linear_533_357)"/>
<path fill-rule="evenodd" clip-rule="evenodd" d="M308.015 362.801C312.913 372.98 321.234 387.863 325.804 396.589C331.211 406.915 337.655 411.29 350.653 403.628C361.537 397.211 377.234 386.89 385.344 381.281C392.891 376.061 383.97 363.175 376.84 367.529C367.381 373.297 343.194 384.728 343.194 384.728C343.194 384.728 330.747 361.991 325.579 351.075C319.004 337.201 298.534 343.101 308.015 362.801Z" fill="#EA5455"/>
<path fill-rule="evenodd" clip-rule="evenodd" d="M343.194 384.728C344.711 390.072 345.649 392.639 346.007 392.428C346.365 392.216 346.239 389.267 345.63 383.579L343.194 384.728Z" fill="black" fill-opacity="0.159856"/>
<path fill-rule="evenodd" clip-rule="evenodd" d="M292.768 463.22L281.325 544.179L287.324 544.099L298.767 464.067L292.768 463.22Z" fill="#BFE7FF"/>
<path fill-rule="evenodd" clip-rule="evenodd" d="M330.93 463.22L342.373 544.179L336.374 544.099L324.931 464.067L330.93 463.22Z" fill="#91D6FF"/>
<path fill-rule="evenodd" clip-rule="evenodd" d="M257.883 463.22L246.44 544.179L252.439 544.099L263.882 464.067L257.883 463.22Z" fill="#BFE7FF"/>
<path fill-rule="evenodd" clip-rule="evenodd" d="M344.751 458.537C344.751 453.321 340.523 449.092 335.306 449.092H297.544C291.822 449.092 287.04 444.739 286.505 439.043L280.467 374.849C279.931 369.153 275.149 364.8 269.427 364.8H245.727C239.604 364.8 234.639 369.764 234.639 375.888C234.639 376.171 234.65 376.455 234.672 376.737L240.896 457.744C241.34 463.521 246.157 467.983 251.952 467.983H335.306C340.523 467.983 344.751 463.754 344.751 458.537Z" fill="#BFE7FF"/>
<path fill-rule="evenodd" clip-rule="evenodd" d="M275.248 366.363L281.555 448.222C282 453.998 286.817 458.458 292.611 458.458H344.594L344.75 458.456C344.751 458.395 344.751 458.334 344.751 458.273C344.751 453.071 340.534 448.853 335.331 448.853H297.681C291.961 448.853 287.179 444.501 286.642 438.806L280.609 374.847C280.266 371.21 278.192 368.121 275.248 366.363Z" fill="#91D6FF"/>
<path fill-rule="evenodd" clip-rule="evenodd" d="M558.235 395.796H474.099C473.687 395.796 473.352 396.13 473.352 396.542V397.639C473.352 398.051 473.687 398.386 474.099 398.386H558.235C558.647 398.386 558.982 398.051 558.982 397.639V396.542C558.982 396.13 558.647 395.796 558.235 395.796Z" fill="url(#paint19_linear_533_357)"/>
<path fill-rule="evenodd" clip-rule="evenodd" d="M558.243 395.796H525.916C525.504 395.796 525.17 396.13 525.17 396.542V397.639C525.17 398.051 525.504 398.386 525.916 398.386H558.243C558.655 398.386 558.99 398.051 558.99 397.639V396.542C558.99 396.13 558.655 395.796 558.243 395.796Z" fill="#518DF8"/>
<path fill-rule="evenodd" clip-rule="evenodd" d="M561.522 356.296H505.711C503.899 356.296 502.37 357.642 502.14 359.439L497.989 391.852C497.737 393.824 499.131 395.627 501.103 395.88C501.254 395.899 501.407 395.909 501.56 395.909H557.371C559.183 395.909 560.712 394.563 560.942 392.766L565.093 360.353C565.346 358.381 563.952 356.578 561.979 356.325C561.828 356.306 561.675 356.296 561.522 356.296Z" fill="#518DF8"/>
<path fill-rule="evenodd" clip-rule="evenodd" d="M559.823 356.296H505.192C503.38 356.296 501.851 357.642 501.621 359.439L497.47 391.852C497.217 393.824 498.611 395.627 500.583 395.88C500.735 395.899 500.888 395.909 501.041 395.909H555.672C557.484 395.909 559.013 394.563 559.243 392.766L563.394 360.353C563.647 358.381 562.253 356.578 560.28 356.325C560.129 356.306 559.976 356.296 559.823 356.296Z" fill="url(#paint20_linear_533_357)"/>
<path d="M558.232 358.17H506.473C504.843 358.17 503.466 359.382 503.259 360.999L499.519 390.236C499.292 392.011 500.547 393.634 502.322 393.861C502.458 393.878 502.595 393.887 502.733 393.887H554.491C556.122 393.887 557.498 392.675 557.705 391.058L561.445 361.821C561.672 360.046 560.418 358.423 558.643 358.196C558.506 358.179 558.369 358.17 558.232 358.17Z" fill="white"/>
<path fill-rule="evenodd" clip-rule="evenodd" d="M424.645 406.22C424.645 406.22 438.245 409.393 438.108 410.638C437.973 411.89 431.984 412.082 431.984 412.082C431.984 412.082 443.054 419.285 442.173 420.69C441.292 422.095 434.075 423.678 431.079 422.545C428.083 421.412 420.318 413.164 420.318 413.164L398.531 401.463L405.813 391.859L424.645 406.22Z" fill="url(#paint21_linear_533_357)"/>
<path fill-rule="evenodd" clip-rule="evenodd" d="M424.768 365.617C420.212 371.282 404.678 388.587 404.678 388.587C404.678 388.587 405.701 389.354 407.745 390.888L397.772 402.985C393.527 400.384 390.698 398.66 389.286 397.815C381.725 393.288 384.618 385.98 390.212 379.311C394.508 374.189 403.85 363.695 410.422 354.482C416.961 345.316 433.608 354.623 424.768 365.617Z" fill="#FFB66F"/>
<path fill-rule="evenodd" clip-rule="evenodd" d="M404.678 388.588C401.763 391.418 400.457 392.943 400.76 393.162C401.063 393.382 402.971 392.292 406.484 389.893L404.678 388.588Z" fill="black" fill-opacity="0.159856"/>
<path fill-rule="evenodd" clip-rule="evenodd" d="M407.127 389.623L394.129 402.491L400.628 406.744L409.556 391.459L407.127 389.623Z" fill="#FFEDC2"/>
<path fill-rule="evenodd" clip-rule="evenodd" d="M448.635 505.233L441.604 527.882L453.422 528.412C453.422 528.412 451.756 520.665 454.134 513.403C456.041 507.572 457.598 504.663 457.598 504.663L448.635 505.233Z" fill="url(#paint22_linear_533_357)"/>
<path fill-rule="evenodd" clip-rule="evenodd" d="M453.518 521.78C453.518 521.78 453.271 527.546 455.285 529.369C457.298 531.19 467.978 537.917 468.873 539.272C469.768 540.628 468.455 542.283 468.455 542.283C468.455 542.283 457.551 543.993 452.407 541.354C448.694 539.448 446.041 537.891 446.041 537.891L444.901 540.82L438.947 539.965C438.947 539.965 437.112 535.316 437.9 533.004C438.689 530.692 442.758 519.889 442.758 519.889C442.758 519.889 446.345 520.519 453.518 521.78Z" fill="#391B0B"/>
<path fill-rule="evenodd" clip-rule="evenodd" d="M414.248 428.031C423.137 428.898 466.921 439.326 475.936 441.178C484.951 443.03 492.573 453.051 485.698 464.654C480.551 473.338 470.701 491.172 456.15 518.158C456.015 518.191 455.883 518.249 455.747 518.249C451.307 518.249 447.349 517.641 443.538 514.985C447.398 486.688 453.823 468.597 462.812 460.712C462.812 460.712 427.994 473.231 410.582 459.571C400.31 451.513 404.452 427.075 414.248 428.031Z" fill="#33373E"/>
<path fill-rule="evenodd" clip-rule="evenodd" d="M485.699 464.654C484.303 467.009 482.508 470.146 480.477 473.756L482.81 444.442C488.055 448.685 490.675 456.255 485.699 464.654Z" fill="white" fill-opacity="0.192499"/>
<path fill-rule="evenodd" clip-rule="evenodd" d="M514.095 503.444C514.095 503.444 517.972 520.714 523.018 522.562C524.961 523.273 511.032 525.305 511.032 525.305L506.807 508.737L514.095 503.444Z" fill="url(#paint23_linear_533_357)"/>
<path fill-rule="evenodd" clip-rule="evenodd" d="M509.257 520.544L512.935 542.165L519.311 541.157L518.524 535.811C518.524 535.811 521.32 540.468 524.439 540.267C527.567 540.065 543.209 537.707 543.209 537.707C543.209 537.707 543.561 532.529 536.366 531.346C530.381 530.363 520.176 518.809 520.176 518.809L509.257 520.544Z" fill="#391B0B"/>
<path fill-rule="evenodd" clip-rule="evenodd" d="M421.705 425.171C413.151 443.29 414.884 455.461 426.906 461.682C444.346 470.708 490.749 459.063 490.749 459.063C490.749 459.063 489.816 466.596 490.749 473.314C493.186 490.861 505.168 512.449 506.258 516.007C506.807 517.799 520.171 515.151 520.171 513.026C520.171 510.901 513.352 462.537 512.139 452.236C510.931 441.934 507.12 440.438 495.987 437.622C493.43 436.975 460.284 429.437 457.513 429.656C441.642 430.915 429.706 429.42 421.705 425.171Z" fill="#42474F"/>
<path fill-rule="evenodd" clip-rule="evenodd" d="M457.513 429.657C460.284 429.437 493.43 436.975 495.987 437.622L497.815 438.091C507.31 440.575 510.83 442.429 512.052 451.547L512.381 454.165C513.384 461.805 516.092 479.769 518.234 494.725C515.816 489.229 513.816 483.129 512.231 476.427C508.54 460.808 509.33 447.983 508.338 445.737C507.347 443.491 458.859 436.32 450.527 434.841C446.901 434.197 444.855 432.599 444.39 430.048C448.417 430.162 452.791 430.031 457.513 429.657Z" fill="white" fill-opacity="0.192499"/>
<path fill-rule="evenodd" clip-rule="evenodd" d="M451.203 320.877C455.055 321.299 454.782 328.079 450.093 328.433C449.134 334.97 445.716 338.084 441.549 338.444L441.78 348.331L423.348 348.32C423.348 348.32 428.539 341.336 428.28 331.774C428.021 322.213 428.454 313.23 428.454 313.23L452.328 313.659L451.203 320.877Z" fill="url(#paint24_linear_533_357)"/>
<path fill-rule="evenodd" clip-rule="evenodd" d="M452.041 321.385C447.555 319.609 444.241 327.257 440.808 332.573C437.375 337.888 428.481 336.985 427.255 332.573C422.615 322.908 418.615 309.769 424.031 308.691C424.793 294.723 461.308 298.021 452.041 321.385Z" fill="#9E5229"/>
<path fill-rule="evenodd" clip-rule="evenodd" d="M426.712 303.404C425.149 304.735 424.15 306.5 424.031 308.69C418.615 309.769 422.615 322.908 427.255 332.572C428.395 336.675 436.164 337.744 440.009 333.601C443.516 323.086 442.019 311.328 434.93 303.406L426.712 303.404Z" fill="black" fill-opacity="0.199355"/>
<path d="M431.868 307.812C429.437 307.812 427.467 305.84 427.467 303.406C427.467 300.973 429.437 299 431.868 299C434.298 299 436.269 300.973 436.269 303.406C436.269 305.84 434.298 307.812 431.868 307.812Z" fill="#FB9934"/>
<path fill-rule="evenodd" clip-rule="evenodd" d="M455.709 350.002C459.79 355.988 466.591 376.304 466.977 380.874C467.411 386.146 461.751 394.544 461.658 402.177C461.575 409.81 465.88 428.916 464.586 431.063C463.303 433.209 420.69 445.622 418.29 444.602C415.889 443.582 407.602 432.582 409.495 428.111C411.399 423.641 419.265 413.5 418.365 407.409C417.475 401.319 412.308 378.837 409.742 371.185C407.186 363.533 408.038 355.499 412.808 352.207C415.168 350.578 421.467 345.949 432.682 345.97C443.898 345.992 455.393 349.538 455.709 350.002Z" fill="#FF9F43"/>
<path fill-rule="evenodd" clip-rule="evenodd" d="M464.858 375.967L445.303 361.916L445.308 364.484C445.381 380.33 446.378 388.725 462.976 414.695L462.592 412.049C462.051 408.207 461.632 404.609 461.658 402.176C461.717 397.361 463.991 392.241 465.553 387.794L464.858 375.967Z" fill="black" fill-opacity="0.159856"/>
<path fill-rule="evenodd" clip-rule="evenodd" d="M443.045 345.532C443.36 347.248 442.828 348.106 441.451 348.106C439.384 348.106 425.524 348.562 423.647 347.748C422.396 347.206 421.958 346.467 422.334 345.532H443.045Z" fill="#FFF6E1"/>
<path fill-rule="evenodd" clip-rule="evenodd" d="M512.125 380.86C512.125 380.86 523.411 373.328 525.406 371.815C527.394 370.309 529.889 358.885 528.343 357.282C527.595 356.507 521.949 361.725 520.942 362.424C519.941 363.116 514.821 366.2 514.821 366.2C514.821 366.2 516.27 357.456 515.023 356.75C514.1 356.238 512.255 358.488 512.008 360.866C511.761 363.244 509.194 366.347 508.863 369.956C508.713 371.533 508.129 373.576 508.129 373.576L476.814 387.025L480.09 401.648L512.125 380.86Z" fill="url(#paint25_linear_533_357)"/>
<path fill-rule="evenodd" clip-rule="evenodd" d="M444.907 366.416C449.232 375.4 456.577 388.534 460.612 396.236C465.385 405.349 471.074 409.21 482.549 402.448C483.444 401.92 484.86 401.068 486.796 399.892L479.693 384.12C477.207 385.218 475.964 385.768 475.964 385.768C475.964 385.768 464.976 365.702 460.413 356.068C454.609 343.823 436.537 349.03 444.907 366.416Z" fill="#FFB66F"/>
<path fill-rule="evenodd" clip-rule="evenodd" d="M475.964 385.768C477.303 390.484 478.131 392.749 478.447 392.563C478.763 392.377 478.652 389.774 478.114 384.754L475.964 385.768Z" fill="black" fill-opacity="0.159856"/>
<path fill-rule="evenodd" clip-rule="evenodd" d="M479.592 383.424L484.54 403.058L491.901 399.078L482.241 381.895L479.592 383.424Z" fill="#FFEDC2"/>
<path fill-rule="evenodd" clip-rule="evenodd" d="M432.34 300.15C432.34 300.15 428.191 294.84 423.401 296.233C418.61 297.626 414.277 306.165 416.335 314.191C418.382 322.219 416.693 326.797 414.21 332.207C407.539 346.76 430.636 356 430.636 356C429.435 348.811 430.003 343.046 432.34 338.705C435.95 331.999 438 323.399 438 318.137C438 308.986 432.34 300.15 432.34 300.15Z" fill="#9E5229"/>
<path fill-rule="evenodd" clip-rule="evenodd" d="M431.658 463.22L443.101 544.179L437.101 544.099L425.658 464.067L431.658 463.22Z" fill="#91D6FF"/>
<path fill-rule="evenodd" clip-rule="evenodd" d="M464.957 463.22L476.4 544.179L470.401 544.099L458.958 464.067L464.957 463.22Z" fill="#91D6FF"/>
<path fill-rule="evenodd" clip-rule="evenodd" d="M391.91 463.22L380.467 544.179L386.466 544.099L397.909 464.067L391.91 463.22Z" fill="#BFE7FF"/>
<path fill-rule="evenodd" clip-rule="evenodd" d="M478.778 458.537C478.778 453.321 474.55 449.092 469.333 449.092H431.571C425.849 449.092 421.067 444.739 420.531 439.043L414.494 374.849C413.958 369.153 409.176 364.8 403.454 364.8H379.754C373.63 364.8 368.666 369.764 368.666 375.888C368.666 376.171 368.677 376.455 368.699 376.737L374.923 457.744C375.367 463.521 380.184 467.983 385.979 467.983H469.333C474.55 467.983 478.778 463.754 478.778 458.537Z" fill="#BFE7FF"/>
<path fill-rule="evenodd" clip-rule="evenodd" d="M409.275 366.363L415.582 448.222C416.027 453.998 420.844 458.458 426.637 458.458H478.62L478.777 458.456C478.778 458.395 478.778 458.334 478.778 458.273C478.778 453.071 474.561 448.853 469.358 448.853H431.708C425.987 448.853 421.206 444.501 420.669 438.806L414.636 374.847C414.293 371.21 412.219 368.121 409.275 366.363Z" fill="#91D6FF"/>
<defs>
<filter id="filter0_dd_533_357" x="70.8557" y="85.0078" width="191.801" height="107.428" filterUnits="userSpaceOnUse" color-interpolation-filters="sRGB">
<feFlood flood-opacity="0" result="BackgroundImageFix"/>
<feColorMatrix in="SourceAlpha" type="matrix" values="0 0 0 0 0 0 0 0 0 0 0 0 0 0 0 0 0 0 127 0" result="hardAlpha"/>
<feOffset dx="8" dy="9"/>
<feGaussianBlur stdDeviation="14"/>
<feColorMatrix type="matrix" values="0 0 0 0 0.0755213 0 0 0 0 0.582569 0 0 0 0 0.878793 0 0 0 0.229458 0"/>
<feBlend mode="normal" in2="BackgroundImageFix" result="effect1_dropShadow_533_357"/>
<feColorMatrix in="SourceAlpha" type="matrix" values="0 0 0 0 0 0 0 0 0 0 0 0 0 0 0 0 0 0 127 0" result="hardAlpha"/>
<feOffset dy="2"/>
<feGaussianBlur stdDeviation="7.5"/>
<feColorMatrix type="matrix" values="0 0 0 0 0.503982 0 0 0 0 0.700178 0 0 0 0 1 0 0 0 0.233829 0"/>
<feBlend mode="normal" in2="effect1_dropShadow_533_357" result="effect2_dropShadow_533_357"/>
<feBlend mode="normal" in="SourceGraphic" in2="effect2_dropShadow_533_357" result="shape"/>
</filter>
<filter id="filter1_dd_533_357" x="70.8557" y="143.592" width="224.949" height="198.68" filterUnits="userSpaceOnUse" color-interpolation-filters="sRGB">
<feFlood flood-opacity="0" result="BackgroundImageFix"/>
<feColorMatrix in="SourceAlpha" type="matrix" values="0 0 0 0 0 0 0 0 0 0 0 0 0 0 0 0 0 0 127 0" result="hardAlpha"/>
<feOffset dx="8" dy="9"/>
<feGaussianBlur stdDeviation="14"/>
<feColorMatrix type="matrix" values="0 0 0 0 0.0755213 0 0 0 0 0.582569 0 0 0 0 0.878793 0 0 0 0.229458 0"/>
<feBlend mode="normal" in2="BackgroundImageFix" result="effect1_dropShadow_533_357"/>
<feColorMatrix in="SourceAlpha" type="matrix" values="0 0 0 0 0 0 0 0 0 0 0 0 0 0 0 0 0 0 127 0" result="hardAlpha"/>
<feOffset dy="2"/>
<feGaussianBlur stdDeviation="7.5"/>
<feColorMatrix type="matrix" values="0 0 0 0 0.503982 0 0 0 0 0.700178 0 0 0 0 1 0 0 0 0.233829 0"/>
<feBlend mode="normal" in2="effect1_dropShadow_533_357" result="effect2_dropShadow_533_357"/>
<feBlend mode="normal" in="SourceGraphic" in2="effect2_dropShadow_533_357" result="shape"/>
</filter>
<filter id="filter2_f_533_357" x="106.008" y="201.392" width="142.42" height="78.3086" filterUnits="userSpaceOnUse" color-interpolation-filters="sRGB">
<feFlood flood-opacity="0" result="BackgroundImageFix"/>
<feBlend mode="normal" in="SourceGraphic" in2="BackgroundImageFix" result="shape"/>
<feGaussianBlur stdDeviation="3.75" result="effect1_foregroundBlur_533_357"/>
</filter>
<filter id="filter3_d_533_357" x="276.233" y="107.236" width="272.181" height="197.484" filterUnits="userSpaceOnUse" color-interpolation-filters="sRGB">
<feFlood flood-opacity="0" result="BackgroundImageFix"/>
<feColorMatrix in="SourceAlpha" type="matrix" values="0 0 0 0 0 0 0 0 0 0 0 0 0 0 0 0 0 0 127 0" result="hardAlpha"/>
<feOffset dx="6" dy="6"/>
<feGaussianBlur stdDeviation="8"/>
<feColorMatrix type="matrix" values="0 0 0 0 0.70188 0 0 0 0 0.70188 0 0 0 0 0.70188 0 0 0 0.208725 0"/>
<feBlend mode="normal" in2="BackgroundImageFix" result="effect1_dropShadow_533_357"/>
<feBlend mode="normal" in="SourceGraphic" in2="effect1_dropShadow_533_357" result="shape"/>
</filter>
<linearGradient id="paint0_linear_533_357" x1="534.047" y1="309.453" x2="526.961" y2="359.449" gradientUnits="userSpaceOnUse">
<stop stop-color="#FFAFAF"/>
<stop offset="1" stop-color="#F07777"/>
</linearGradient>
<linearGradient id="paint1_linear_533_357" x1="536.86" y1="303.029" x2="530.204" y2="332.144" gradientUnits="userSpaceOnUse">
<stop stop-color="#FDC6C6"/>
<stop offset="1" stop-color="#FAB2B2"/>
</linearGradient>
<linearGradient id="paint2_linear_533_357" x1="489.045" y1="512.461" x2="487.45" y2="533.005" gradientUnits="userSpaceOnUse">
<stop stop-color="#FDC6C6"/>
<stop offset="1" stop-color="#FAB2B2"/>
</linearGradient>
<linearGradient id="paint3_linear_533_357" x1="522.392" y1="520.124" x2="474.305" y2="430.327" gradientUnits="userSpaceOnUse">
<stop stop-color="#28324F"/>
<stop offset="1" stop-color="#222735"/>
</linearGradient>
<linearGradient id="paint4_linear_533_357" x1="458.08" y1="341.991" x2="456.5" y2="370.614" gradientUnits="userSpaceOnUse">
<stop stop-color="#FDC6C6"/>
<stop offset="1" stop-color="#FAB2B2"/>
</linearGradient>
<linearGradient id="paint5_linear_533_357" x1="532.35" y1="380.553" x2="531.698" y2="385.913" gradientUnits="userSpaceOnUse">
<stop stop-color="#FDC6C6"/>
<stop offset="1" stop-color="#FAB2B2"/>
</linearGradient>
<linearGradient id="paint6_linear_533_357" x1="239.145" y1="215.462" x2="235.778" y2="217.205" gradientUnits="userSpaceOnUse">
<stop stop-color="#4D63A0"/>
<stop offset="1" stop-color="#222735"/>
</linearGradient>
<linearGradient id="paint7_linear_533_357" x1="130.691" y1="403.432" x2="130.691" y2="419.997" gradientUnits="userSpaceOnUse">
<stop stop-color="#FE62BE"/>
<stop offset="1" stop-color="#FDB3A8"/>
</linearGradient>
<linearGradient id="paint8_linear_533_357" x1="99.6299" y1="391.18" x2="101.361" y2="407.654" gradientUnits="userSpaceOnUse">
<stop stop-color="#FE62BE"/>
<stop offset="1" stop-color="#FDB3A8"/>
</linearGradient>
<linearGradient id="paint9_linear_533_357" x1="646.758" y1="510.994" x2="645.159" y2="531.564" gradientUnits="userSpaceOnUse">
<stop stop-color="#FDC6C6"/>
<stop offset="1" stop-color="#FAB2B2"/>
</linearGradient>
<linearGradient id="paint10_linear_533_357" x1="631.657" y1="331.576" x2="628.063" y2="392.138" gradientUnits="userSpaceOnUse">
<stop stop-color="#FDC6C6"/>
<stop offset="1" stop-color="#FAB2B2"/>
</linearGradient>
<linearGradient id="paint11_linear_533_357" x1="693.82" y1="305.031" x2="686.802" y2="355.138" gradientUnits="userSpaceOnUse">
<stop stop-color="#FFAFAF"/>
<stop offset="1" stop-color="#F07777"/>
</linearGradient>
<linearGradient id="paint12_linear_533_357" x1="696.523" y1="298.613" x2="689.855" y2="327.765" gradientUnits="userSpaceOnUse">
<stop stop-color="#FDC6C6"/>
<stop offset="1" stop-color="#FAB2B2"/>
</linearGradient>
<linearGradient id="paint13_linear_533_357" x1="606.637" y1="516.23" x2="605.068" y2="533.943" gradientUnits="userSpaceOnUse">
<stop stop-color="#FDC6C6"/>
<stop offset="1" stop-color="#FAB2B2"/>
</linearGradient>
<linearGradient id="paint14_linear_533_357" x1="706.314" y1="381.804" x2="704.778" y2="395.956" gradientUnits="userSpaceOnUse">
<stop stop-color="#FDC6C6"/>
<stop offset="1" stop-color="#FAB2B2"/>
</linearGradient>
<linearGradient id="paint15_linear_533_357" x1="603.561" y1="331.951" x2="615.486" y2="379.778" gradientUnits="userSpaceOnUse">
<stop stop-color="#9FF6EC"/>
<stop offset="1" stop-color="#7D9DFF"/>
</linearGradient>
<linearGradient id="paint16_linear_533_357" x1="281.088" y1="397.238" x2="293.61" y2="422.981" gradientUnits="userSpaceOnUse">
<stop stop-color="#FDC6C6"/>
<stop offset="1" stop-color="#A47070"/>
</linearGradient>
<linearGradient id="paint17_linear_533_357" x1="300.954" y1="292.324" x2="298.323" y2="339.252" gradientUnits="userSpaceOnUse">
<stop stop-color="#FDC6C6"/>
<stop offset="1" stop-color="#A47070"/>
</linearGradient>
<linearGradient id="paint18_linear_533_357" x1="392.314" y1="344.042" x2="390.43" y2="376.694" gradientUnits="userSpaceOnUse">
<stop stop-color="#FDC6C6"/>
<stop offset="1" stop-color="#A47070"/>
</linearGradient>
<linearGradient id="paint19_linear_533_357" x1="500.18" y1="395.207" x2="500.18" y2="398.386" gradientUnits="userSpaceOnUse">
<stop stop-color="#9FF6EC"/>
<stop offset="1" stop-color="#7D9DFF"/>
</linearGradient>
<linearGradient id="paint20_linear_533_357" x1="518.113" y1="347.282" x2="518.113" y2="395.909" gradientUnits="userSpaceOnUse">
<stop stop-color="#9FF6EC"/>
<stop offset="1" stop-color="#7D9DFF"/>
</linearGradient>
<linearGradient id="paint21_linear_533_357" x1="404.582" y1="378.705" x2="427.261" y2="424.658" gradientUnits="userSpaceOnUse">
<stop stop-color="#FDC6C6"/>
<stop offset="1" stop-color="#FFCCA1"/>
</linearGradient>
<linearGradient id="paint22_linear_533_357" x1="450.158" y1="497.968" x2="448.93" y2="526.258" gradientUnits="userSpaceOnUse">
<stop stop-color="#FDC6C6"/>
<stop offset="1" stop-color="#FAB2B2"/>
</linearGradient>
<linearGradient id="paint23_linear_533_357" x1="515.714" y1="497.283" x2="514.455" y2="523.322" gradientUnits="userSpaceOnUse">
<stop stop-color="#FDC6C6"/>
<stop offset="1" stop-color="#FAB2B2"/>
</linearGradient>
<linearGradient id="paint24_linear_533_357" x1="440.384" y1="303.337" x2="438.04" y2="345.157" gradientUnits="userSpaceOnUse">
<stop stop-color="#FDC6C6"/>
<stop offset="1" stop-color="#FFCCA1"/>
</linearGradient>
<linearGradient id="paint25_linear_533_357" x1="506.817" y1="352.876" x2="503.823" y2="393.039" gradientUnits="userSpaceOnUse">
<stop stop-color="#FDC6C6"/>
<stop offset="1" stop-color="#FFCCA1"/>
</linearGradient>
</defs>
</svg>
