<svg width="747" height="547" viewBox="0 0 747 547" fill="none" xmlns="http://www.w3.org/2000/svg">
<path d="M486.551 43.8584C431.556 44.5476 389.157 77.477 342.081 98.3068C270.996 129.759 179.698 136.148 119.654 178.169C78.554 206.974 58.2655 250.34 64.0025 291.77C69.7394 333.2 100.815 372.037 145.754 397.57C174.409 413.838 208.039 424.811 242.356 433.399C277.137 442.085 313.351 448.529 350.103 448.868C401.034 449.339 451.068 438.059 497.143 422.142C529.189 411.081 560.085 397.56 585.289 379.323C609.103 362.103 627.36 340.945 639.865 318.212C670.776 262.024 665.86 197.62 639.058 140.305C616.887 92.9024 562.685 42.8957 486.551 43.8584Z" fill="#02B596"/>
<path opacity="0.7" d="M486.551 43.8584C431.556 44.5476 389.157 77.477 342.081 98.3068C270.996 129.759 179.698 136.148 119.654 178.169C78.554 206.974 58.2655 250.34 64.0025 291.77C69.7394 333.2 100.815 372.037 145.754 397.57C174.409 413.838 208.039 424.811 242.356 433.399C277.137 442.085 313.351 448.529 350.103 448.868C401.034 449.339 451.068 438.059 497.143 422.142C529.189 411.081 560.085 397.56 585.289 379.323C609.103 362.103 627.36 340.945 639.865 318.212C670.776 262.024 665.86 197.62 639.058 140.305C616.887 92.9024 562.685 42.8957 486.551 43.8584Z" fill="white"/>
<path opacity="0.1" d="M520.645 275.743C520.257 267.506 519.524 258.721 518.314 249.63C516.686 231.469 513.578 214.512 507.946 203.846C476.931 199.196 315.803 207.861 315.683 207.861L314.682 204.579L314.279 203.277L313.562 200.99L313.367 200.465C312.322 197.38 311.141 194.328 309.767 191.298C309.767 191.298 187.617 183.311 147.1 191.057C147.1 191.319 147.1 191.571 147.1 191.834L147.22 199.153C147.339 213.32 146.891 226.612 147.892 241.206V241.315C147.698 241.302 147.503 241.302 147.309 241.315C145.737 241.467 144.253 241.935 143.021 242.667C141.79 243.399 140.859 244.366 140.332 245.462C139.93 246.311 139.783 247.214 139.899 248.109L140.437 252.715C140.437 252.791 140.437 252.857 140.437 252.934C141.931 264.552 143.425 276.061 143.425 276.061C143.425 276.061 144.202 276.115 145.472 276.159L152.18 276.509C137.897 277.472 122.3 291.278 122.987 303.148C123.674 315.018 108.047 337.368 111.946 350.19C114.934 360.211 130.308 376.326 137.793 388.568L137.21 390.996L103.789 440.139C106.03 437.732 126.199 501.95 219.873 488.351L286.52 408.839C293.954 404.734 300.757 400.05 306.809 394.869C309.363 393.011 311.488 390.86 313.098 388.502C315.478 385.718 317.295 382.696 318.492 379.531C318.791 378.7 319.104 377.879 319.433 377.037C324.871 366.896 332.132 353.056 337.451 343.473C407.669 341.941 481.398 338.802 518.419 332.424H518.494C522.079 314.591 522.154 294.582 520.645 275.743ZM160.038 320.674C159.459 317.712 159.109 314.728 158.992 311.736C159.814 314.887 160.71 318.027 161.652 321.177C161.114 321.002 160.576 320.827 160.038 320.674Z" fill="black"/>
<path d="M96.1543 436.998C96.1543 436.998 126.154 501.949 219.872 488.351C219.872 488.351 240.669 416.858 258.089 406.301C269.324 399.518 294.139 387.353 299.443 378.546C304.747 369.739 326.051 327.916 330.174 322.883C334.298 317.851 285.474 259.945 285.474 259.945L182.627 298.804L125.407 373.196C125.407 373.196 114.426 421.332 96.1543 436.998Z" fill="white"/>
<path d="M124.405 378.995C124.405 378.995 117.07 419.156 92.8223 440.139" stroke="#263238" stroke-linecap="round" stroke-linejoin="round"/>
<path d="M219.871 488.351C219.871 488.351 240.548 419.178 258.088 406.301C258.088 406.301 297.708 389.432 304.85 369.576C309.795 355.824 318.789 339.972 323.092 332.773" stroke="#263238" stroke-linecap="round" stroke-linejoin="round"/>
<path d="M228.208 334.994C226.714 334.294 252.186 349.216 253.172 369.609" stroke="#263238" stroke-linecap="round" stroke-linejoin="round"/>
<path d="M504.852 322.49C422.264 336.712 156.272 334.841 156.272 334.841C154.031 331.384 151.327 322.676 148.713 312.589C143.484 292.339 138.598 266.532 138.598 266.532L129.799 266.083C129.799 266.083 128.305 254.574 126.811 242.956C125.317 231.338 134.281 231.348 134.281 231.348L133.638 191.133L133.474 181.09C173.991 173.345 296.141 181.331 296.141 181.331L299.95 191.024L302.072 197.894L494.32 193.923C511.949 227.301 504.852 322.49 504.852 322.49Z" fill="#02B596"/>
<path d="M472.913 224.932L346.819 229.549C341.629 229.739 337.632 232.973 337.892 236.774L339.173 255.536C339.432 259.336 343.85 262.263 349.04 262.073L475.134 257.456C480.324 257.266 484.32 254.032 484.061 250.231L482.78 231.469C482.52 227.669 478.103 224.742 472.913 224.932Z" fill="#263238"/>
<path d="M483.368 269.715L483.771 272.833L338.584 276.946L338.465 274.146L483.368 269.715Z" fill="#263238"/>
<path d="M484.086 280.557L484.22 283.357L339.049 287.285L338.914 284.495L484.086 280.557Z" fill="#263238"/>
<path opacity="0.3" d="M494.29 193.923C494.29 193.923 515.714 268.315 504.853 322.49C504.853 322.49 369.377 334.13 322.988 332.248L321.091 314.142L324.975 313.705C324.975 313.705 306.27 210.366 302.027 197.894C302.027 197.894 463.364 189.262 494.29 193.923Z" fill="black"/>
<path opacity="0.8" d="M316.623 313.88L318.222 327.566C318.222 327.566 181.67 331.942 169.658 328.758C157.647 325.575 170.301 320.499 202.063 318.672C233.826 316.845 316.623 313.88 316.623 313.88Z" fill="white"/>
<path d="M235.096 255.832C241.986 255.832 247.571 252.129 247.571 247.562C247.571 242.994 241.986 239.291 235.096 239.291C228.206 239.291 222.621 242.994 222.621 247.562C222.621 252.129 228.206 255.832 235.096 255.832Z" fill="#263238"/>
<path d="M138.598 266.521C141.412 289.663 147.327 312.547 156.257 334.841C214.179 334.48 272.087 334.01 329.994 332.653C387.901 331.297 447.407 328.43 504.792 322.49C504.792 322.49 515.071 256.019 494.229 193.923C471.192 190.411 302.609 197.873 302.609 197.873" stroke="#263238" stroke-linecap="round" stroke-linejoin="round"/>
<path d="M316.622 313.879L318.221 327.565L188.243 329.753C182.88 330.093 174.528 330.607 169.598 328.758C167.357 327.916 165.743 325.859 166.804 324.174C167.76 322.664 170.27 322.128 172.511 321.8C188.407 319.404 204.632 318.398 220.812 317.522C255.453 315.641 290.149 314.368 324.899 313.704C324.167 313.704 315.696 262.516 314.755 257.79C311.08 239.302 307.584 220.736 303.042 202.346C301.403 195.226 299.061 188.203 296.035 181.33C242.49 178.53 186.57 175.937 133.354 181.09C133.847 198.452 132.965 213.91 134.175 231.348" stroke="#263238" stroke-linecap="round" stroke-linejoin="round"/>
<path d="M154.271 329.688C153.951 328.98 153.76 328.244 153.703 327.5" stroke="#263238" stroke-linecap="round" stroke-linejoin="round"/>
<path d="M154.568 323.354C156.555 319.711 162.516 315.597 178.726 314.284C208.293 311.878 272.744 307.545 310.557 306.495" stroke="#263238" stroke-linecap="round" stroke-linejoin="round" stroke-dasharray="3.91 3.91"/>
<path d="M313.486 306.419L316.474 306.342L316.071 304.154" stroke="#263238" stroke-linecap="round" stroke-linejoin="round"/>
<path d="M315.235 299.964C308.437 264.158 300.907 228.614 292.287 193.004" stroke="#263238" stroke-linecap="round" stroke-linejoin="round" stroke-dasharray="3.88 3.88"/>
<path d="M291.809 190.914L291.271 188.726L288.283 188.573" stroke="#263238" stroke-linecap="round" stroke-linejoin="round"/>
<path d="M282.247 188.289C257.402 187.074 186.751 184.044 139.615 186.407" stroke="#263238" stroke-linecap="round" stroke-linejoin="round" stroke-dasharray="4.07 4.07"/>
<path d="M136.566 186.571L133.578 186.746" stroke="#263238" stroke-linecap="round" stroke-linejoin="round"/>
<path d="M129.798 266.083L126.228 238.186C126.119 237.348 126.243 236.503 126.591 235.701C126.939 234.899 127.504 234.157 128.253 233.518C129.002 232.88 129.919 232.359 130.95 231.986C131.98 231.613 133.103 231.396 134.25 231.349C156.212 230.419 213.014 228.231 234.811 229.511C245.269 230.123 256.639 232.585 261.703 239.915C265.917 245.954 266.544 255.012 259.477 259.979C248.721 267.527 228.313 266.947 214.448 267.308C188.632 268.031 129.813 266.247 129.798 266.083Z" stroke="#263238" stroke-linecap="round" stroke-linejoin="round"/>
<path d="M264.856 249.028C264.856 248.251 270.294 265.055 250.424 270.602C230.553 276.148 138.598 274.398 138.598 274.398V266.521C138.598 266.521 203.646 267.528 214.478 267.309C225.309 267.09 263.69 269.726 264.856 249.028Z" fill="#263238"/>
<path d="M245.748 342.893C245.748 342.893 262.003 349.861 268.083 362.957" stroke="#263238" stroke-linecap="round" stroke-linejoin="round"/>
<path d="M126.676 235.538C126.676 235.538 206.396 232.792 226.684 233.285C246.973 233.777 256.908 237.048 258.925 246.358C260.942 255.668 248.646 261.466 238.845 262.56C229.045 263.654 129.783 263.971 129.783 263.971" stroke="#263238" stroke-linecap="round" stroke-linejoin="round" stroke-dasharray="4 4"/>
<path d="M181.461 348.319C181.461 348.319 169.121 316.932 146.412 310.751C146.412 310.751 141.93 289.33 151.611 288.149C161.292 286.967 188.632 273.773 181.491 257.309C174.35 240.844 152.911 265.568 138.628 266.52C124.345 267.472 108.748 281.289 109.391 293.17C110.033 305.051 94.4505 327.401 98.3499 340.212C102.249 353.023 126.288 375.876 128.23 387.768" fill="white"/>
<path d="M181.461 348.319C181.461 348.319 169.121 316.932 146.412 310.751C146.412 310.751 141.93 289.33 151.611 288.149C161.292 286.967 188.632 273.773 181.491 257.309C174.35 240.844 152.911 265.568 138.628 266.52C124.345 267.472 108.748 281.289 109.391 293.17C110.033 305.051 94.4505 327.401 98.3499 340.212C102.249 353.023 126.288 375.876 128.23 387.768" stroke="#263238" stroke-linecap="round" stroke-linejoin="round"/>
<path d="M151.566 261.696C151.566 261.696 168.673 263.972 177.965 256.018C187.258 248.065 176.561 247.562 176.561 247.562L151.566 261.696Z" fill="white" stroke="#263238" stroke-linecap="round" stroke-linejoin="round"/>
<path d="M121.014 279.419C124.136 279.576 127.156 280.302 129.798 281.53" stroke="#263238" stroke-linecap="round" stroke-linejoin="round"/>
<path d="M120.49 283.97C123.601 284.186 126.564 285.043 129.036 286.442" stroke="#263238" stroke-linecap="round" stroke-linejoin="round"/>
<path d="M166.67 326.012C166.67 326.012 239.876 323.244 259.149 324.054" stroke="#263238" stroke-linecap="round" stroke-linejoin="round"/>
<path d="M241.326 319.963C241.326 319.963 259.747 318.869 271.206 319.963" stroke="#263238" stroke-linecap="round" stroke-linejoin="round"/>
<path d="M287.998 323.901H317.803" stroke="#263238" stroke-linecap="round" stroke-linejoin="round"/>
<path d="M306.031 204.02C306.031 204.02 436.95 195.454 489.554 200.344C489.554 200.344 503.747 219.456 500.655 317.402C441.531 322.952 382.045 326.191 322.45 327.106" stroke="#263238" stroke-linecap="round" stroke-linejoin="round" stroke-dasharray="4 4"/>
<g opacity="0.1">
<path d="M660.437 339.567C656.717 327.982 651.264 323.628 645.796 320.28C645.796 320.28 645.676 313.716 638.669 309.974C636.798 308.767 634.8 307.67 632.693 306.692C626.12 303.082 618.874 299.034 618.874 299.034C615.468 291.814 610.851 283.073 605.861 274.474L606.115 276.432C601.006 267.297 596.001 258.206 594.596 255.187V255.121C596.09 258.031 597.584 260.843 599.228 263.436L580.523 215.026C580.075 213.079 579.612 211.164 579.149 209.316C578.252 203.846 575.817 193.54 569.945 192.807C569.727 192.796 569.507 192.796 569.288 192.807C569.288 192.807 562.371 190.619 562.371 199.601C554.139 201.614 550.957 206.165 550.165 211.514C549.737 213.211 549.686 214.948 550.016 216.656C550.165 218.636 550.479 220.66 550.897 222.673L524.393 197.161L521.839 194.732L489.15 163.225L445.211 120.778C443.577 119.202 441.534 117.878 439.2 116.881C436.866 115.883 434.286 115.232 431.608 114.965C428.931 114.698 426.207 114.82 423.594 115.323C420.98 115.827 418.528 116.703 416.377 117.901L361.831 148.237L340.542 160.075C324.212 166.299 328.47 178.596 332.997 182.961L428.12 274.649C427.625 274.603 427.125 274.585 426.626 274.594C426.626 274.594 423.907 269.901 417.184 270.645C415.752 270.694 414.367 271.031 413.18 271.619C412.096 272.037 411.175 272.65 410.506 273.402C409.761 274.061 409.091 274.763 408.504 275.503C405.083 279.791 408.25 290.282 413.195 303.093C413.509 303.925 413.822 304.723 414.121 305.467V305.587L415.391 308.793C420.232 321.089 429.285 345.234 430.959 357.071C431.078 358.165 431.153 359.336 431.183 360.43C431.287 374.061 423.025 396.882 426.581 406.312C427.044 407.548 427.522 408.73 428.001 409.9C430.645 416.202 433.005 422.164 437.159 428.083C442.208 435.303 448.229 442.228 453.862 449.219C464.2 462.062 474.897 474.753 485.953 487.29C491.047 493.044 497.008 498.296 502.775 503.7C505.42 506.183 511.186 509.914 512.187 513.097C512.187 513.097 563.327 516.193 591.952 502.879L589.263 473.079L608.461 392.287C613.944 386.193 630.871 374.291 634.247 370.527C635.995 368.657 637.698 366.797 639.357 364.981C651.981 356.349 658.301 349.665 661.079 341.886C661.139 341.908 660.945 341.022 660.437 339.567ZM483.398 357.213L483.144 356.863C488.368 358.595 493.901 359.774 499.578 360.364C493.617 359.861 486.879 359.161 483.398 357.213ZM504.971 360.834L507.72 360.977C506.801 360.974 505.882 360.927 504.971 360.834ZM482.86 356.393L479.424 351.404C474.643 341.361 463.842 317.687 463.797 317.589C461.682 310.767 458.855 304.074 455.341 297.568C457.882 298.225 460.607 298.408 463.269 298.103C465.932 297.797 468.449 297.012 470.594 295.818L496.739 281.279C499.444 282.471 502.207 283.543 504.912 284.484L529.398 298.498L509.976 356.951L482.86 356.393ZM581.972 221.765C584.004 228.745 587.216 238.788 591.474 248.514C587.341 239.795 584.153 230.851 581.942 221.765H581.972Z" fill="black"/>
<path d="M470.982 502.639L471.132 503.164C471.132 503.164 471.087 502.967 470.982 502.639Z" fill="black"/>
</g>
<path d="M561.743 223.909C563.237 223.187 585.139 214.457 596.105 240.637C607.071 266.816 619.934 311.364 619.934 311.364L593.879 315.073C593.879 315.073 569.736 305.664 548.103 282.099C548.103 282.099 517.775 276.345 504.568 262.67C492.616 250.242 529.488 204.611 529.488 204.611L561.743 223.909Z" fill="white"/>
<path d="M552.377 256.488C558.831 263.577 571.052 278.489 587.546 283.193" stroke="#263238" stroke-linecap="round" stroke-linejoin="round"/>
<path d="M534.119 264.113C537.107 264.999 544.577 268.15 548.103 268.27C548.103 268.27 563.327 290.336 588.441 297.502" stroke="#263238" stroke-linecap="round" stroke-linejoin="round"/>
<path d="M520.15 272.242C529.488 277.964 540.618 281.869 548.103 282.088C548.103 282.088 563.327 304.154 588.441 311.32" stroke="#263238" stroke-linecap="round" stroke-linejoin="round"/>
<path d="M441.569 112.344L358.956 158.295C351.781 162.286 350.383 169.781 355.833 175.035L470.574 285.647C476.024 290.901 486.259 291.925 493.434 287.935L576.047 241.984C583.222 237.993 584.62 230.498 579.17 225.244L464.429 114.631C458.979 109.377 448.744 108.354 441.569 112.344Z" fill="#263238"/>
<path d="M573.696 239.586L497.891 281.76C495.74 282.96 493.288 283.838 490.673 284.342C488.058 284.847 485.334 284.968 482.655 284.7C479.976 284.432 477.396 283.779 475.062 282.779C472.729 281.778 470.688 280.451 469.057 278.872L359.472 173.235C357.686 171.529 356.432 169.558 355.796 167.459C354.913 164.641 355.161 161.696 356.51 158.979C357.859 156.261 360.252 153.888 363.401 152.143L384.705 140.306L439.236 109.958C441.388 108.761 443.841 107.886 446.455 107.383C449.069 106.88 451.793 106.759 454.471 107.028C457.148 107.296 459.728 107.948 462.061 108.946C464.395 109.945 466.437 111.27 468.071 112.847L512.039 155.228L544.728 186.735L577.596 218.461C579.236 220.035 580.436 221.831 581.127 223.745C581.819 225.659 581.988 227.654 581.626 229.616C581.264 231.578 580.377 233.468 579.017 235.179C577.656 236.89 575.848 238.388 573.696 239.586Z" fill="#02B596"/>
<path opacity="0.1" d="M511.979 155.228L384.66 140.295L439.236 109.958C441.388 108.761 443.841 107.886 446.455 107.383C449.069 106.88 451.793 106.759 454.47 107.028C457.148 107.296 459.727 107.948 462.061 108.946C464.394 109.945 466.436 111.27 468.07 112.847L511.979 155.228Z" fill="black"/>
<path opacity="0.1" d="M573.695 239.586L497.889 281.76C495.739 282.96 493.286 283.838 490.671 284.342C488.057 284.847 485.332 284.968 482.653 284.7C479.974 284.432 477.394 283.779 475.061 282.778C472.727 281.778 470.686 280.451 469.055 278.872L359.47 173.235C357.685 171.529 356.43 169.558 355.795 167.459L547.236 189.262L577.594 218.527C580.878 221.702 582.311 225.699 581.58 229.646C580.85 233.592 578.014 237.166 573.695 239.586Z" fill="black"/>
<path d="M449.994 120.684L436.61 128.128C433.929 129.619 433.407 132.419 435.443 134.383L451.646 150.003C453.682 151.966 457.506 152.348 460.187 150.857L473.571 143.413C476.252 141.922 476.774 139.121 474.738 137.158L458.535 121.538C456.499 119.575 452.675 119.193 449.994 120.684Z" fill="white" stroke="#263238" stroke-linecap="round" stroke-linejoin="round"/>
<path d="M443.582 124.235L466.694 147.231" stroke="#263238" stroke-linecap="round" stroke-linejoin="round"/>
<path d="M443.582 142.231L466.694 129.398" stroke="#263238" stroke-linecap="round" stroke-linejoin="round"/>
<path d="M488.343 274.879L484.399 277.001L436.277 230.615L440.192 228.449L488.343 274.879Z" fill="#263238"/>
<path d="M495.022 271.257L491.078 273.402L442.896 226.94L446.781 224.773L495.022 271.257Z" fill="#263238"/>
<path d="M501.685 267.658L497.756 269.781L449.5 223.275L453.399 221.098L501.685 267.658Z" fill="#263238"/>
<path d="M508.363 264.037L504.418 266.159L456.805 220.266L460.689 218.089L508.363 264.037Z" fill="#263238"/>
<path d="M515.564 260.143L511.62 262.276L463.932 216.306L467.831 214.129L515.564 260.143Z" fill="#263238"/>
<path d="M515.564 206.056L511.62 208.178L463.932 162.208L467.831 160.042L515.564 206.056Z" fill="#263238"/>
<path d="M411.705 125.392L405.602 128.787L539.98 258.331L546.083 254.936L411.705 125.392Z" fill="#263238"/>
<path d="M573.696 239.586L497.891 281.76C495.74 282.96 493.288 283.838 490.673 284.342C488.058 284.847 485.334 284.968 482.655 284.7C479.976 284.432 477.396 283.779 475.062 282.779C472.729 281.778 470.688 280.451 469.057 278.872L359.472 173.235C357.686 171.529 356.432 169.558 355.796 167.459C354.913 164.641 355.161 161.696 356.51 158.979C357.859 156.261 360.252 153.888 363.401 152.143L384.705 140.306L439.236 109.958C441.388 108.761 443.841 107.886 446.455 107.383C449.069 106.88 451.793 106.759 454.471 107.028C457.148 107.296 459.728 107.948 462.061 108.946C464.395 109.945 466.437 111.27 468.071 112.847L512.039 155.228L544.728 186.735L577.596 218.461C579.236 220.035 580.436 221.831 581.127 223.745C581.819 225.659 581.988 227.654 581.626 229.616C581.264 231.578 580.377 233.468 579.017 235.179C577.656 236.89 575.848 238.388 573.696 239.586Z" stroke="#263238" stroke-linecap="round" stroke-linejoin="round"/>
<path d="M512.246 513.086C512.246 513.086 600.482 536.06 627.18 486.021C627.18 486.021 585.422 448.825 608.221 418.434C622.563 399.289 662.229 357.027 662.229 357.027C662.229 357.027 678.797 345.507 683.952 333.933C683.952 333.933 681.113 321.035 668.623 312.305C668.623 312.305 668.489 305.741 661.482 301.999C654.475 298.258 641.627 291.059 641.627 291.059C641.627 291.059 620.502 253.951 617.364 247.244C614.227 240.538 607.922 227.859 604.77 213.856C601.617 199.852 598.704 184.777 592.011 184.821C592.011 184.821 585.109 182.633 585.109 191.614C585.109 191.614 570.617 197.084 572.753 208.659C574.89 220.234 576.862 226.218 576.294 232.727C575.726 239.236 578.58 261.838 585.721 268.927C585.721 268.927 588.112 300.653 591.697 308.913C591.817 309.165 591.921 309.395 592.026 309.602C595.791 316.593 558.172 343.516 537.809 350.802C537.809 350.802 535.672 353.712 527.769 352.914C519.866 352.115 506.494 351.743 504.194 347.444C501.893 343.144 486.579 309.602 486.579 309.602C486.579 309.602 474.194 266.608 449.453 266.619C449.453 266.619 445.703 260.055 436.007 263.643C426.311 267.232 432.661 286.792 436.949 297.492C441.236 308.191 452.098 336.318 453.861 349.26C455.624 362.202 445.614 388.13 449.379 398.326C453.144 408.522 457.327 415.403 469.339 432.098C481.35 448.792 507.958 498.569 512.246 513.086Z" fill="white"/>
<path d="M512.247 513.087C512.247 513.087 493.363 461.034 465.605 427.372C437.846 393.709 454.175 381.807 454.175 353.789C454.175 325.772 422.996 278.074 431.407 267.56C439.818 257.047 451.292 265.46 456.088 275.273C460.884 285.086 454.175 290.698 440.729 291.398" stroke="#263238" stroke-linecap="round" stroke-linejoin="round"/>
<path d="M449.455 266.663C449.455 266.663 465.575 265.941 475.481 284.812C485.386 303.684 501.252 351.546 517.776 366.107" stroke="#263238" stroke-linecap="round" stroke-linejoin="round"/>
<path d="M504.732 348.429C504.822 348.582 527.815 357.968 563.491 349.742" stroke="#263238" stroke-linecap="round" stroke-linejoin="round"/>
<path d="M452.518 322.052C454.31 320.446 456.648 319.214 459.296 318.478C461.945 317.743 464.811 317.53 467.607 317.862" stroke="#263238" stroke-linecap="round" stroke-linejoin="round"/>
<path d="M455.58 327.993C457.129 326.636 459.168 325.627 461.464 325.079C463.76 324.532 466.22 324.468 468.563 324.897" stroke="#263238" stroke-linecap="round" stroke-linejoin="round"/>
<path d="M585.109 191.582C561.654 197.304 579.133 223.242 576.295 232.706C573.456 242.169 580.777 260.285 586.409 270.109C586.409 281.629 592.012 309.581 592.012 309.581C588.546 318.475 559.622 344.687 531.52 352.892" stroke="#263238" stroke-linecap="round" stroke-linejoin="round"/>
<path d="M602.32 204.644C602.32 204.644 600.572 184.788 592.011 184.788C583.45 184.788 583.973 198.168 587.529 208.101C591.085 218.035 604.919 216.613 602.32 204.644Z" stroke="#263238" stroke-linecap="round" stroke-linejoin="round"/>
<path d="M602.32 204.644C602.32 204.644 609.611 235.855 621.966 255.46" stroke="#263238" stroke-linecap="round" stroke-linejoin="round"/>
<path d="M636.532 328.561C642.508 321.472 645.153 314.766 647.364 306.233C646.811 300.883 638.4 283.423 628.629 266.51" stroke="#263238" stroke-linecap="round" stroke-linejoin="round"/>
<path d="M642.42 292.711C652.116 298.05 668.983 302.152 667.041 311.364C664.898 320.579 660.494 329.433 654.043 337.499" stroke="#263238" stroke-linecap="round" stroke-linejoin="round"/>
<path d="M629.332 488.351C629.332 488.351 595.552 454.01 602.32 430.292C607.295 412.843 639.282 382.331 662.23 357.06C674.869 348.428 681.188 341.744 683.952 333.965C679.904 319.36 673.33 315.105 667.01 311.363" stroke="#263238" stroke-linecap="round" stroke-linejoin="round"/>
<path d="M638.341 298.378C634.578 297.603 630.638 297.403 626.766 297.788C622.893 298.174 619.169 299.138 615.826 300.621" stroke="#263238" stroke-linecap="round" stroke-linejoin="round"/>
<path d="M636.444 304.253C631.855 303.744 627.165 304.347 623.088 305.97" stroke="#263238" stroke-linecap="round" stroke-linejoin="round"/>
</svg>
