<svg width="728" height="580" viewBox="0 0 728 580" fill="none" xmlns="http://www.w3.org/2000/svg">
<path opacity="0.150019" fill-rule="evenodd" clip-rule="evenodd" d="M524.946 223.92L615.438 133.65C619.341 129.756 625.66 129.756 629.563 133.65L720.055 223.92C723.965 227.821 723.973 234.152 720.073 238.062C720.067 238.068 720.061 238.074 720.055 238.08L629.563 328.35C625.66 332.244 619.341 332.244 615.438 328.35L524.946 238.08C521.036 234.179 521.028 227.848 524.929 223.938C524.934 223.932 524.94 223.926 524.946 223.92Z" fill="#BFE7FF"/>
<g opacity="0.0375744" filter="url(#filter0_f_538_215)">
<path fill-rule="evenodd" clip-rule="evenodd" d="M215.965 59.9964L266.385 9.69933C270.289 5.80567 276.607 5.80567 280.51 9.69933L330.931 59.9964C334.841 63.8969 334.849 70.2285 330.948 74.1385C330.943 74.1443 330.937 74.1501 330.931 74.1559L280.51 124.453C276.607 128.347 270.289 128.347 266.385 124.453L215.965 74.1559C212.054 70.2555 212.047 63.9238 215.947 60.0138C215.953 60.008 215.959 60.0022 215.965 59.9964Z" fill="#28C76F"/>
</g>
<path opacity="0.0659412" fill-rule="evenodd" clip-rule="evenodd" d="M268.439 228.99L456.478 41.4125C460.381 37.5189 466.699 37.5189 470.602 41.4126L658.641 228.99C662.551 232.89 662.559 239.222 658.658 243.132C658.653 243.138 658.647 243.143 658.641 243.149L470.602 430.726C466.699 434.62 460.381 434.62 456.478 430.726L268.439 243.149C264.529 239.249 264.521 232.917 268.422 229.007C268.428 229.001 268.433 228.995 268.439 228.99Z" fill="#28C76F"/>
<path opacity="0.0895647" d="M128.387 238.987C132.633 234.741 139.509 234.733 143.744 238.968L263.385 358.609C267.621 362.845 267.612 369.72 263.366 373.966L143.431 493.901C139.185 498.147 132.309 498.156 128.074 493.92L8.43296 374.28C4.19734 370.044 4.20577 363.168 8.45182 358.922L128.387 238.987ZM135.999 292.728L62.1931 366.535L135.818 440.16L209.624 366.353L135.999 292.728Z" fill="#28C76F"/>
<path fill-rule="evenodd" clip-rule="evenodd" d="M201.293 345L201.292 488.767L201.439 488.625L201.405 495.757L284.073 577.951H273.053L201.292 506.567L201.293 577.912H192.588L192.588 509.289L123.608 577.951H111.5L192.588 497.308L192.588 345H201.293Z" fill="url(#paint0_linear_538_215)"/>
<path fill-rule="evenodd" clip-rule="evenodd" d="M212.613 485.4H182.355C179.594 485.4 177.355 487.639 177.355 490.4V497.814C177.355 500.576 179.594 502.814 182.355 502.814H212.613C215.375 502.814 217.613 500.576 217.613 497.814V490.4C217.613 487.639 215.375 485.4 212.613 485.4Z" fill="#C8DAFF"/>
<path fill-rule="evenodd" clip-rule="evenodd" d="M129.25 142H281.801C284.655 142 286.967 144.304 286.967 147.146V401.6C286.967 404.363 284.781 406.618 282.038 406.741L281.781 406.747L129.23 406.156C126.385 406.145 124.084 403.844 124.084 401.009V147.146C124.084 144.304 126.397 142 129.25 142Z" fill="#AFA7FF"/>
<path fill-rule="evenodd" clip-rule="evenodd" d="M121.778 142H274.33C277.183 142 279.496 144.304 279.496 147.146V401.6C279.496 404.363 277.31 406.618 274.566 406.741L274.31 406.747L121.758 406.156C118.913 406.145 116.612 403.844 116.612 401.009V147.146C116.612 144.304 118.925 142 121.778 142Z" fill="#D5D1FF"/>
<path fill-rule="evenodd" clip-rule="evenodd" d="M129.142 147.316H266.756C270.02 147.316 272.666 149.952 272.666 153.204V393.436C272.666 396.687 270.02 399.323 266.756 399.323H129.142C125.877 399.323 123.231 396.687 123.231 393.436V153.204C123.231 149.952 125.877 147.316 129.142 147.316Z" fill="white"/>
<path fill-rule="evenodd" clip-rule="evenodd" d="M172.331 391.88H213.959C216.317 391.88 218.229 393.784 218.229 396.133V409.956H172.331C169.973 409.956 168.062 408.052 168.062 405.703V396.133C168.062 393.784 169.973 391.88 172.331 391.88Z" fill="#A7C3FF"/>
<path fill-rule="evenodd" clip-rule="evenodd" d="M217.161 405.703H221.431V409.956H217.161V405.703Z" fill="#A7C3FF"/>
<path fill-rule="evenodd" clip-rule="evenodd" d="M170.196 391.88H211.824C214.182 391.88 216.094 393.784 216.094 396.133V405.703C216.094 408.052 214.182 409.956 211.824 409.956H170.196C167.838 409.956 165.927 408.052 165.927 405.703V396.133C165.927 393.784 167.838 391.88 170.196 391.88Z" fill="#C8DAFF"/>
<path d="M417.425 173H349.771V250.75H417.425V173Z" fill="#91D6FF"/>
<path d="M412.153 173H344.5V250.75H412.153V173Z" fill="#E3F4FF"/>
<path fill-rule="evenodd" clip-rule="evenodd" d="M356.407 182.173H400.246C402.455 182.173 404.246 183.964 404.246 186.173V238.014C404.246 240.224 402.455 242.014 400.246 242.014H356.407C354.198 242.014 352.407 240.224 352.407 238.014V186.173C352.407 183.964 354.198 182.173 356.407 182.173Z" fill="white"/>
<path fill-rule="evenodd" clip-rule="evenodd" d="M356.407 182.173H357.679V242.014H356.407C354.198 242.014 352.407 240.224 352.407 238.014V186.173C352.407 183.964 354.198 182.173 356.407 182.173Z" fill="#91D6FF"/>
<path fill-rule="evenodd" clip-rule="evenodd" d="M395.113 225.275L377.805 195.118C377.694 194.924 377.448 194.858 377.254 194.969C377.19 195.005 377.138 195.059 377.102 195.124L360.501 225.281C360.394 225.476 360.465 225.722 360.66 225.829C360.72 225.862 360.786 225.879 360.854 225.879H394.763C394.986 225.879 395.166 225.699 395.166 225.476C395.166 225.405 395.148 225.336 395.113 225.275Z" fill="#83F2D5"/>
<path opacity="0.44687" fill-rule="evenodd" clip-rule="evenodd" d="M397.29 213.53L387.905 197.28C387.794 197.087 387.547 197.021 387.354 197.132C387.291 197.169 387.239 197.222 387.203 197.286L378.202 213.536C378.094 213.731 378.164 213.976 378.359 214.084C378.419 214.117 378.486 214.135 378.555 214.135H396.941C397.163 214.135 397.344 213.954 397.344 213.731C397.344 213.661 397.325 213.591 397.29 213.53Z" fill="#63CBE8"/>
<path d="M514.425 173H446.771V250.75H514.425V173Z" fill="#91D6FF"/>
<path d="M509.153 173H441.5V250.75H509.153V173Z" fill="#E3F4FF"/>
<path fill-rule="evenodd" clip-rule="evenodd" d="M453.407 182.173H497.246C499.455 182.173 501.246 183.964 501.246 186.173V238.014C501.246 240.224 499.455 242.014 497.246 242.014H453.407C451.198 242.014 449.407 240.224 449.407 238.014V186.173C449.407 183.964 451.198 182.173 453.407 182.173Z" fill="white"/>
<path d="M487.627 201.829H461.708V227.6H487.627V201.829Z" fill="#83F2D5"/>
<path opacity="0.44687" d="M495.534 191.782H475.766V211.438H495.534V191.782Z" fill="#63CBE8"/>
<path fill-rule="evenodd" clip-rule="evenodd" d="M453.407 182.173H454.679V242.014H453.407C451.198 242.014 449.407 240.224 449.407 238.014V186.173C449.407 183.964 451.198 182.173 453.407 182.173Z" fill="#91D6FF"/>
<path d="M610.425 173H542.771V250.75H610.425V173Z" fill="#91D6FF"/>
<path d="M605.153 173H537.5V250.75H605.153V173Z" fill="#E3F4FF"/>
<path fill-rule="evenodd" clip-rule="evenodd" d="M549.407 182.173H593.246C595.455 182.173 597.246 183.964 597.246 186.173V238.014C597.246 240.224 595.455 242.014 593.246 242.014H549.407C547.198 242.014 545.407 240.224 545.407 238.014V186.173C545.407 183.964 547.198 182.173 549.407 182.173Z" fill="white"/>
<path d="M571.985 232.841C582.054 232.841 590.216 224.725 590.216 214.714C590.216 204.703 582.054 196.587 571.985 196.587C561.916 196.587 553.754 204.703 553.754 214.714C553.754 224.725 561.916 232.841 571.985 232.841Z" fill="#83F2D5"/>
<path opacity="0.44687" d="M580.772 209.692C585.989 209.692 590.217 205.487 590.217 200.3C590.217 195.114 585.989 190.909 580.772 190.909C575.556 190.909 571.327 195.114 571.327 200.3C571.327 205.487 575.556 209.692 580.772 209.692Z" fill="#63CBE8"/>
<path fill-rule="evenodd" clip-rule="evenodd" d="M549.407 182.173H550.679V242.014H549.407C547.198 242.014 545.407 240.224 545.407 238.014V186.173C545.407 183.964 547.198 182.173 549.407 182.173Z" fill="#91D6FF"/>
<g filter="url(#filter1_dd_538_215)">
<path d="M108.889 312H254.981C257.957 312 260.369 314.413 260.369 317.389V364.9C260.369 367.876 257.957 370.289 254.981 370.289H108.889C105.913 370.289 103.5 367.876 103.5 364.9V317.389C103.5 314.413 105.913 312 108.889 312Z" fill="black"/>
</g>
<path d="M108.889 312H254.981C257.957 312 260.369 314.413 260.369 317.389V364.9C260.369 367.876 257.957 370.289 254.981 370.289H108.889C105.913 370.289 103.5 367.876 103.5 364.9V317.389C103.5 314.413 105.913 312 108.889 312Z" fill="white"/>
<path opacity="0.465472" d="M156.381 344.383H185.749C186.725 344.383 187.516 345.174 187.516 346.149C187.516 347.125 186.725 347.915 185.749 347.915H156.381C155.405 347.915 154.614 347.125 154.614 346.149C154.614 345.174 155.405 344.383 156.381 344.383Z" fill="#FFBF29"/>
<path d="M156.381 334.373H173.999C174.974 334.373 175.765 335.164 175.765 336.139C175.765 337.115 174.974 337.906 173.999 337.906H156.381C155.405 337.906 154.614 337.115 154.614 336.139C154.614 335.164 155.405 334.373 156.381 334.373Z" fill="#FFBF29"/>
<path d="M212.343 334.534C212.847 333.425 214.154 332.935 215.261 333.441C215.627 333.608 215.94 333.872 216.166 334.203L216.247 334.331L220.567 341.694C220.609 341.764 220.699 341.788 220.769 341.746L220.787 341.733L220.804 341.717L223.103 339.112C223.909 338.199 225.302 338.113 226.213 338.921C226.273 338.974 226.33 339.031 226.384 339.09L226.462 339.181L229.834 343.33C229.885 343.393 229.977 343.403 230.04 343.352L230.058 343.335L230.072 343.315L235.398 334.69C236.038 333.654 237.396 333.333 238.431 333.975C238.591 334.074 238.738 334.194 238.867 334.33L238.961 334.436L241.442 337.408C241.807 337.844 241.749 338.494 241.313 338.859C240.902 339.204 240.301 339.171 239.928 338.799L239.865 338.73L237.384 335.758C237.374 335.746 237.362 335.735 237.349 335.727C237.291 335.691 237.219 335.7 237.172 335.744L237.147 335.775L231.821 344.399C231.692 344.608 231.529 344.794 231.339 344.949C230.428 345.693 229.102 345.586 228.321 344.726L228.239 344.632L224.867 340.482C224.862 340.476 224.857 340.47 224.851 340.465C224.8 340.42 224.727 340.416 224.673 340.452L224.643 340.478L222.344 343.082C222.191 343.256 222.011 343.405 221.811 343.523C220.797 344.12 219.501 343.812 218.859 342.842L218.795 342.739L214.474 335.375C214.459 335.349 214.436 335.328 214.408 335.316C214.347 335.288 214.276 335.306 214.235 335.355L214.214 335.389L210.004 344.646C209.847 344.991 209.605 345.289 209.301 345.513L209.184 345.593L204.192 348.782C203.714 349.088 203.078 348.947 202.773 348.467C202.484 348.014 202.594 347.42 203.01 347.098L203.087 347.044L208.078 343.855C208.094 343.845 208.108 343.832 208.119 343.816L208.133 343.792L212.343 334.534Z" fill="#FFBF29"/>
<path d="M132.582 353.803C139.234 353.803 144.627 348.399 144.627 341.733C144.627 335.067 139.234 329.663 132.582 329.663C125.93 329.663 120.538 335.067 120.538 341.733C120.538 348.399 125.93 353.803 132.582 353.803Z" fill="#FFBF29"/>
<mask id="mask0_538_215" style="mask-type:alpha" maskUnits="userSpaceOnUse" x="103" y="161" width="157" height="133">
<path d="M111.5 161H251.977C256.395 161 259.977 164.582 259.977 169V285.215C259.977 289.633 256.395 293.215 251.977 293.215H111.5C107.082 293.215 103.5 289.633 103.5 285.215V169C103.5 164.582 107.082 161 111.5 161Z" fill="white"/>
</mask>
<g mask="url(#mask0_538_215)">
<g filter="url(#filter2_dd_538_215)">
<path d="M111.5 161H251.977C256.395 161 259.977 164.582 259.977 169V285.215C259.977 289.633 256.395 293.215 251.977 293.215H111.5C107.082 293.215 103.5 289.633 103.5 285.215V169C103.5 164.582 107.082 161 111.5 161Z" fill="black"/>
</g>
<path d="M111.5 161H251.977C256.395 161 259.977 164.582 259.977 169V285.215C259.977 289.633 256.395 293.215 251.977 293.215H111.5C107.082 293.215 103.5 289.633 103.5 285.215V169C103.5 164.582 107.082 161 111.5 161Z" fill="white"/>
<path opacity="0.414737" fill-rule="evenodd" clip-rule="evenodd" d="M124.434 261.043C136.807 257.505 145.722 252.125 151.178 244.904C159.362 234.073 162.121 223.574 176.197 223.574C190.273 223.574 192.077 239.654 207.293 239.654C222.509 239.654 223.341 219.147 228.399 211.005C231.77 205.576 236.365 202.862 242.184 202.862V272.617C242.184 273.589 241.396 274.377 240.424 274.377H126.194C125.222 274.377 124.434 273.589 124.434 272.617V261.043Z" fill="#FFE3B5"/>
<g filter="url(#filter3_f_538_215)">
<path d="M124.434 262.167C136.807 258.614 145.722 253.211 151.178 245.959C159.362 235.08 162.121 224.535 176.197 224.535C190.273 224.535 192.077 240.685 207.293 240.685C222.509 240.685 223.341 220.09 228.399 211.912C231.77 206.46 236.365 203.734 242.184 203.734" fill="black"/>
</g>
<path d="M124.434 262.167C136.807 258.614 145.722 253.211 151.178 245.959C159.362 235.08 162.121 224.535 176.197 224.535C190.273 224.535 192.077 240.685 207.293 240.685C222.509 240.685 223.341 220.09 228.399 211.912C231.77 206.46 236.365 203.734 242.184 203.734" stroke="#FFBF29" stroke-width="2.64" stroke-linecap="round"/>
<path d="M164.555 174.082H115.711V179.315H164.555V174.082Z" fill="#FFBF29"/>
<path opacity="0.465472" d="M118.327 187.164H135.772C137.217 187.164 138.389 188.335 138.389 189.78C138.389 191.225 137.217 192.397 135.772 192.397H118.327C116.882 192.397 115.711 191.225 115.711 189.78C115.711 188.335 116.882 187.164 118.327 187.164Z" fill="#FFBF29"/>
<path fill-rule="evenodd" clip-rule="evenodd" d="M229.536 180.187C231.222 180.187 232.589 178.82 232.589 177.134C232.589 175.449 231.222 174.082 229.536 174.082C227.85 174.082 226.483 175.449 226.483 177.134C226.483 178.82 227.85 180.187 229.536 180.187Z" fill="white"/>
<path fill-rule="evenodd" clip-rule="evenodd" d="M238.258 180.187C239.944 180.187 241.311 178.82 241.311 177.134C241.311 175.449 239.944 174.082 238.258 174.082C236.572 174.082 235.205 175.449 235.205 177.134C235.205 178.82 236.572 180.187 238.258 180.187Z" fill="white"/>
<path fill-rule="evenodd" clip-rule="evenodd" d="M246.981 180.187C248.667 180.187 250.033 178.82 250.033 177.134C250.033 175.449 248.667 174.082 246.981 174.082C245.295 174.082 243.928 175.449 243.928 177.134C243.928 178.82 245.295 180.187 246.981 180.187Z" fill="white"/>
</g>
<path fill-rule="evenodd" clip-rule="evenodd" d="M468.48 563.307L428.454 561.108H416.18L375.993 563.307C375.102 563.356 374.404 564.092 374.404 564.985V567.965H470.067V564.984C470.067 564.092 469.37 563.356 468.48 563.307Z" fill="#BFE7FF"/>
<path fill-rule="evenodd" clip-rule="evenodd" d="M426.792 492.996H417.681V561.565H426.792V492.996Z" fill="#BFE7FF"/>
<path d="M415.403 551.966H429.069V567.965H415.403V551.966Z" fill="#91D6FF"/>
<path fill-rule="evenodd" clip-rule="evenodd" d="M432.785 487.968H411.688C411.224 487.968 410.848 488.344 410.848 488.808V496.085C410.848 496.428 411.057 496.737 411.375 496.865L416.392 498.878C416.491 498.918 416.597 498.939 416.705 498.939H427.768C427.876 498.939 427.982 498.918 428.081 498.878L433.098 496.865C433.416 496.737 433.625 496.428 433.625 496.085V488.808C433.625 488.344 433.249 487.968 432.785 487.968Z" fill="#91D6FF"/>
<path d="M463.235 567.965H472.346V577.107H463.235V567.965Z" fill="#91D6FF"/>
<path d="M372.127 567.965H381.237V577.107H372.127V567.965Z" fill="#91D6FF"/>
<path d="M417.681 567.965H426.792V577.107H417.681V567.965Z" fill="#91D6FF"/>
<path fill-rule="evenodd" clip-rule="evenodd" d="M425.855 475.168H368.508C364.468 475.168 361.194 478.443 361.194 482.482C361.194 486.521 364.468 489.796 368.508 489.796H425.855C429.894 489.796 433.169 486.521 433.169 482.482C433.169 478.443 429.894 475.168 425.855 475.168Z" fill="#BFE7FF"/>
<path fill-rule="evenodd" clip-rule="evenodd" d="M468.701 407.514H455.946C455.946 419.704 455.946 431.894 455.946 444.084C455.946 456.274 449.113 468.464 435.447 480.654H452.302C463.235 470.273 468.701 458.083 468.701 444.084C468.701 431.894 468.701 419.704 468.701 407.514Z" fill="#91D6FF"/>
<path fill-rule="evenodd" clip-rule="evenodd" d="M463.234 407.514H450.479C450.479 419.704 450.479 431.894 450.479 444.084C450.479 456.274 443.646 468.464 429.98 480.654H445.013C457.161 470.558 463.234 458.368 463.234 444.084C463.234 431.894 463.234 419.704 463.234 407.514Z" fill="#BFE7FF"/>
<path fill-rule="evenodd" clip-rule="evenodd" d="M492.189 381H426.505C421.866 381 418.105 384.761 418.105 389.4V426.415C418.105 431.054 421.866 434.815 426.505 434.815H492.189C496.828 434.815 500.589 431.054 500.589 426.415V389.4C500.589 384.761 496.828 381 492.189 381Z" fill="#BFE7FF"/>
<path fill-rule="evenodd" clip-rule="evenodd" d="M495.076 381C491.814 381 489.169 383.645 489.169 386.907V428.909C489.169 432.171 491.814 434.815 495.076 434.815C498.338 434.815 500.982 432.171 500.982 428.909V386.907C500.982 383.645 498.338 381 495.076 381Z" fill="#91D6FF"/>
<path fill-rule="evenodd" clip-rule="evenodd" d="M470.497 475.168H414.973C410.933 475.168 407.659 478.443 407.659 482.482C407.659 486.521 410.933 489.796 414.973 489.796H470.497C474.537 489.796 477.812 486.521 477.812 482.482C477.812 478.443 474.537 475.168 470.497 475.168Z" fill="#91D6FF"/>
<path fill-rule="evenodd" clip-rule="evenodd" d="M377.61 532.415C377.61 532.415 382.856 543.01 378.555 546.349C374.248 549.688 362.872 555.946 362.872 555.946L393.012 554.052L386.312 530.944L377.61 532.415Z" fill="url(#paint1_linear_538_215)"/>
<path fill-rule="evenodd" clip-rule="evenodd" d="M390.026 542.002C389.077 542.455 390.637 546.712 387.3 546.412C383.964 546.114 381.869 541.714 379.409 542C376.948 542.285 375.386 546.716 370.701 549.802C366.018 552.89 359.073 556.571 359.538 559.675C360.003 562.778 370.932 563.609 376.469 562.582C382.006 561.555 384.59 559.33 388.182 559.507C391.774 559.684 394.032 559.245 395.158 556.938C396.283 554.631 391.12 541.479 390.026 542.002Z" fill="#EEDFE8"/>
<path fill-rule="evenodd" clip-rule="evenodd" d="M389.759 556.167L389.452 556.15C385 555.774 381.946 558.574 377.709 559.363C373.471 560.153 362.296 560.426 360.511 557.776C360.426 557.65 360.348 557.521 360.275 557.391C359.675 558.129 359.393 558.917 359.538 559.836C360.003 562.789 370.933 563.58 376.47 562.603C382.007 561.626 384.592 559.508 388.184 559.676L388.823 559.7C392.046 559.788 394.102 559.294 395.161 557.232C395.418 556.729 395.36 555.649 395.102 554.283C393.599 555.311 391.703 556.226 389.759 556.167Z" fill="#EC7AA5"/>
<path fill-rule="evenodd" clip-rule="evenodd" d="M423.012 439.031C413.888 439.439 363.102 450.671 353.876 452.58C344.649 454.488 336.848 464.814 343.884 476.771C351.786 490.194 372.176 528.313 377.127 536.906C379.577 541.16 391.938 538.775 389.034 531.636C383.622 518.328 381.108 484.898 367.308 472.709C367.308 472.709 413.718 480.786 433.765 471.534C448.334 464.808 445.038 438.046 423.012 439.031Z" fill="#413C75"/>
<path fill-rule="evenodd" clip-rule="evenodd" d="M359.359 382.074C359.359 382.074 359.463 376.649 356.865 372.769C354.268 368.889 354.165 364.768 352.2 364.903C350.234 365.038 352.18 374.617 352.18 374.617C352.18 374.617 349.687 373.665 347.895 372.459C346.104 371.254 340.671 365.313 339.401 366.366C337.249 368.16 340.716 378.278 342.604 380.301C344.499 382.325 353.848 387.979 353.848 387.979L381.383 415.719L385.5 400.993L359.359 382.074Z" fill="url(#paint2_linear_538_215)"/>
<path fill-rule="evenodd" clip-rule="evenodd" d="M414.434 379.625C410.189 389.47 402.417 407.555 399.213 412.951C395.198 419.708 388.866 422.685 381.453 417.671C380.419 416.972 378.417 415.399 375.448 412.953C376.107 406.531 378.506 401.164 382.642 396.848C384.515 398.397 385.451 399.172 385.451 399.172C385.451 399.172 393.417 378.752 399.825 366.923C405.374 356.689 420.895 364.658 414.434 379.625Z" fill="#28C76F"/>
<path fill-rule="evenodd" clip-rule="evenodd" d="M385.368 399.182C383.942 404.02 383.062 406.298 382.729 406.018C382.395 405.738 382.522 402.827 383.111 397.285L385.368 399.182Z" fill="black" fill-opacity="0.159856"/>
<path fill-rule="evenodd" clip-rule="evenodd" d="M432.778 341.411V350.122L439.175 344.972C439.175 344.972 441.142 336.626 442.741 330.427C443.744 326.539 446.187 313.383 436.351 314C428.293 299.796 404.827 308.587 404.64 325.94C404.416 346.811 404.599 354.937 404.599 354.937C417.869 355.698 425.337 353.78 432.778 341.411Z" fill="#422851"/>
<path fill-rule="evenodd" clip-rule="evenodd" d="M439.313 357.997C439.313 357.997 433.363 356.6 433.156 346.849C432.95 337.098 433.095 333.77 433.095 333.77L419.987 333.533C419.987 333.533 419.844 344.4 419.842 348.331C419.836 357.888 412.808 358.672 412.808 358.672C412.808 358.672 414.009 366.557 425.887 367.225C435.16 367.747 439.313 357.997 439.313 357.997Z" fill="url(#paint3_linear_538_215)"/>
<path fill-rule="evenodd" clip-rule="evenodd" d="M436.15 328.901C441.998 328.675 441.044 337.235 434.97 337.224C434.97 337.224 431.442 349.384 419.192 349.384C409.244 349.384 408.597 335.211 408.507 332.384C408.41 329.369 408.398 319.465 408.398 319.465L436.378 319.452L436.15 328.901Z" fill="url(#paint4_linear_538_215)"/>
<path fill-rule="evenodd" clip-rule="evenodd" d="M436.603 328.845C434.18 329.245 434.474 330.849 433.815 330.709C430.469 329.997 416.925 330.936 415.181 323.488C413.011 328.141 412.48 329.285 407.702 330.534V316.899L437.924 314C437.924 314 437.455 328.704 436.603 328.845Z" fill="#422851"/>
<path d="M421.554 341.215C421.554 341.215 418.636 343.685 415.257 341.372" stroke="#F77B7B" stroke-width="1.5" stroke-linecap="round"/>
<path d="M419.628 344.075C418.72 344.494 417.846 344.525 417.066 344.107" stroke="#F49494" stroke-linecap="round"/>
<path d="M435.554 333.505C435.494 332.132 435.913 331.041 437.313 330.822" stroke="#F77B7B" stroke-linecap="round"/>
<path fill-rule="evenodd" clip-rule="evenodd" d="M437.984 356.999C430.516 361.573 421.882 363.25 413.845 358.283C400.73 384.144 397.461 415.001 400.616 449.105C419.741 456.677 435.815 455.188 449.5 446.534L437.984 356.999Z" fill="#FFE4F4"/>
<path fill-rule="evenodd" clip-rule="evenodd" d="M344.916 532.84C344.916 532.84 345.074 545.31 334.798 549.973C324.529 554.635 317.212 554.354 318.144 557.959C319.075 561.563 345.805 561.417 348.301 558.598C350.429 556.201 355.055 533.871 356.329 535.579L344.916 532.84Z" fill="url(#paint5_linear_538_215)"/>
<path fill-rule="evenodd" clip-rule="evenodd" d="M352.379 550.451C350.804 549.317 349.48 555.852 345.203 554.035C340.925 552.218 344.298 546.212 341.606 545.104C338.914 543.997 333.716 549.952 326.812 551.4C319.908 552.846 314.303 554.113 312.71 556.8C311.338 559.11 312.71 559.848 312.71 559.848C312.71 559.848 319.356 563.167 323.486 563.898C329.486 564.959 346.825 565.666 348.725 563.731C349.892 562.544 353.167 551.018 352.379 550.451Z" fill="#EEDFE8"/>
<path fill-rule="evenodd" clip-rule="evenodd" d="M312.335 557.073C311.033 559.195 313.087 560.299 313.333 560.422L314.324 560.844C316.204 561.625 320.446 563.302 323.581 563.901C329.329 565 347.128 565.651 349.043 563.761C349.379 563.43 349.795 562.217 350.197 560.641L348.976 560.774C343.098 561.396 329.977 562.523 323.502 560.998C317.754 559.644 314.608 557.416 313.173 556.116C312.824 556.415 312.542 556.733 312.335 557.073Z" fill="#EC7AA5"/>
<path fill-rule="evenodd" clip-rule="evenodd" d="M451.602 435.176C460.446 453.853 458.654 466.398 446.225 472.811C428.196 482.114 374.224 471.111 374.224 471.111C374.224 471.111 375.189 478.876 374.224 485.801C371.706 503.888 359.726 534.022 357.192 537.809C353.687 543.045 343.01 539.096 342.808 534.736C342.607 530.376 350.857 474.692 352.112 464.074C353.36 453.455 357.3 451.912 368.809 449.01C371.453 448.343 402.72 440.572 405.584 440.799C421.992 442.096 437.331 440.222 451.602 435.176Z" fill="#524D87"/>
<path fill-rule="evenodd" clip-rule="evenodd" d="M437.06 469.919C419.211 471.919 371.956 467.797 370.058 469.67C368.246 471.459 368.549 502.574 364.484 520.584L365.102 518.883C368.925 508.266 372.894 495.353 374.224 485.801C375.189 478.875 374.224 471.111 374.224 471.111L376.401 471.532C386.66 473.459 430.36 480.998 446.225 472.811C454.822 468.375 458.33 461.005 456.749 450.702C454.027 462.348 447.464 468.754 437.06 469.919Z" fill="white" fill-opacity="0.056108"/>
<path fill-rule="evenodd" clip-rule="evenodd" d="M437.658 357.02C425.289 397.537 417.872 454.978 456.5 444.985C435.981 407.205 463.876 390.201 457.553 370.675C455.391 363.999 437.819 356.496 437.658 357.02Z" fill="#28C76F"/>
<path fill-rule="evenodd" clip-rule="evenodd" d="M451.608 373.845C437.629 375.955 449.153 400.362 444.538 404.039C439.924 407.716 431.892 408.113 431.026 410.359C429.286 414.874 437.7 426.271 456.268 444.55L456.501 444.986C438.626 412.075 457.489 394.93 458.47 378.151C456.399 374.902 454.111 373.467 451.608 373.845Z" fill="black" fill-opacity="0.159856"/>
<path fill-rule="evenodd" clip-rule="evenodd" d="M414.5 357.999C409.78 369.837 407.511 379.126 405.394 396.502C404.218 406.15 403.924 420.929 404.513 440.839L398.68 441.986C395.9 411.226 394.975 393.866 395.904 389.906C398.244 379.937 399.829 374.112 402.918 364.999C404.62 359.997 414.5 357.999 414.5 357.999Z" fill="#28C76F"/>
<path fill-rule="evenodd" clip-rule="evenodd" d="M435.06 403.016C435.06 403.016 427.445 395.391 424.807 394.506C422.17 393.621 407.723 392.558 407.821 394.558C407.932 396.7 417.228 396.577 418.088 397.631C418.947 398.684 420.143 406.887 423.392 407.696C426.635 408.505 433.358 410.899 433.358 410.899L463.282 426.36L460.094 410.9L435.06 403.016Z" fill="url(#paint6_linear_538_215)"/>
<path fill-rule="evenodd" clip-rule="evenodd" d="M457.981 370.731C467.058 383.542 474.808 403.055 477.783 410.663C480.757 418.271 477.757 429.746 464.676 427.494C463.638 427.315 462.274 426.897 460.585 426.24C455.776 419.647 454.932 413.986 456.727 408.946C457.855 409.422 458.419 409.66 458.419 409.66C458.419 409.66 445.418 386.616 442.243 380.439C436.94 370.122 449.986 359.443 457.981 370.731Z" fill="#28C76F"/>
<path fill-rule="evenodd" clip-rule="evenodd" d="M458.418 409.661C462.821 411.811 464.745 412.414 464.191 411.468C463.638 410.522 460.875 408.426 455.903 405.182L458.418 409.661Z" fill="black" fill-opacity="0.159856"/>
<path fill-rule="evenodd" clip-rule="evenodd" d="M288.638 430.555H300.638V578.134H288.638V430.555Z" fill="#DBDBDB"/>
<path fill-rule="evenodd" clip-rule="evenodd" d="M286.638 430.555H294.638V578.134H286.638V430.555Z" fill="#EFEFEF"/>
<path fill-rule="evenodd" clip-rule="evenodd" d="M211.475 430.555H223.475V578.134H211.475V430.555Z" fill="#DBDBDB"/>
<path fill-rule="evenodd" clip-rule="evenodd" d="M209.475 430.555H217.475V578.134H209.475V430.555Z" fill="#EFEFEF"/>
<path fill-rule="evenodd" clip-rule="evenodd" d="M493.133 430.555H505.133V578.134H493.133V430.555Z" fill="#DBDBDB"/>
<path fill-rule="evenodd" clip-rule="evenodd" d="M491.133 430.555H499.133V578.134H491.133V430.555Z" fill="#EFEFEF"/>
<path fill-rule="evenodd" clip-rule="evenodd" d="M410.97 430.555H422.97V578.134H410.97V430.555Z" fill="#DBDBDB"/>
<path fill-rule="evenodd" clip-rule="evenodd" d="M408.97 430.555H416.97V578.134H408.97V430.555Z" fill="#EFEFEF"/>
<path fill-rule="evenodd" clip-rule="evenodd" d="M293.949 426H506.952C507.88 426 508.632 426.752 508.632 427.68V443.32C508.632 444.248 507.88 445 506.952 445H293.949C293.021 445 292.269 444.248 292.269 443.32V427.68C292.269 426.752 293.021 426 293.949 426Z" fill="#DBDBDB"/>
<path fill-rule="evenodd" clip-rule="evenodd" d="M202.656 426H414.746C415.674 426 416.426 426.752 416.426 427.68V443.32C416.426 444.248 415.674 445 414.746 445H202.656C201.728 445 200.976 444.248 200.976 443.32V427.68C200.976 426.752 201.728 426 202.656 426Z" fill="#DBDBDB"/>
<path d="M520.5 426H182.5V435.761H520.5V426Z" fill="#EFEFEF"/>
<path fill-rule="evenodd" clip-rule="evenodd" d="M258.854 394.47V390.281L264.138 390.281L264.138 388.06C264.138 386.833 265.124 385.839 266.339 385.839C267.555 385.839 268.541 386.833 268.541 388.06V392.693C268.541 393.674 267.752 394.47 266.78 394.47H258.854Z" fill="#02B596"/>
<path fill-rule="evenodd" clip-rule="evenodd" d="M244.199 396.881V392.883C244.199 391.656 245.185 390.662 246.401 390.662C247.617 390.662 248.602 391.656 248.602 392.883L248.602 395.103H251.243L251.244 384.887C251.244 382.188 253.412 380 256.087 380C258.762 380 260.93 382.188 260.93 384.887V410.208H251.244L251.243 399.545L246.841 399.546C245.382 399.546 244.199 398.353 244.199 396.881Z" fill="#02D3AF"/>
<path fill-rule="evenodd" clip-rule="evenodd" d="M244.618 403.27H266.982L265.383 424.79C265.339 425.379 264.853 425.834 264.268 425.834H247.333C246.748 425.834 246.262 425.379 246.218 424.79L244.618 403.27Z" fill="url(#paint7_linear_538_215)"/>
<path fill-rule="evenodd" clip-rule="evenodd" d="M244.618 403.27H266.982C267.6 403.27 268.101 403.775 268.101 404.398V408.911C268.101 409.534 267.6 410.039 266.982 410.039H244.618C244.001 410.039 243.5 409.534 243.5 408.911V404.398C243.5 403.775 244.001 403.27 244.618 403.27Z" fill="#FFB3A4"/>
<path fill-rule="evenodd" clip-rule="evenodd" d="M318.681 423.52H423.938C424.77 423.52 425.445 424.194 425.445 425.027C425.445 425.86 424.77 426.535 423.938 426.535H318.681C317.849 426.535 317.174 425.86 317.174 425.027C317.174 424.194 317.849 423.52 318.681 423.52Z" fill="#28C76F"/>
<path fill-rule="evenodd" clip-rule="evenodd" d="M390.004 423.52H423.937C424.77 423.52 425.445 424.194 425.445 425.027C425.445 425.86 424.77 426.535 423.937 426.535H390.004C389.171 426.535 388.496 425.86 388.496 425.027C388.496 424.194 389.171 423.52 390.004 423.52Z" fill="#28C76F"/>
<path fill-rule="evenodd" clip-rule="evenodd" d="M315.59 378H381.858C383.67 378 385.199 379.346 385.429 381.144L390.344 419.593C390.596 421.565 389.202 423.369 387.229 423.621C387.078 423.64 386.926 423.65 386.773 423.65H320.505C318.693 423.65 317.164 422.303 316.934 420.506L312.019 382.056C311.767 380.084 313.161 378.281 315.133 378.029C315.285 378.01 315.437 378 315.59 378Z" fill="#28C76F"/>
<path d="M351.87 405.605C353.92 404.06 354.214 400.993 352.528 398.754C350.841 396.516 347.811 395.954 345.761 397.498C343.711 399.043 343.416 402.111 345.103 404.349C346.79 406.587 349.819 407.15 351.87 405.605Z" fill="white"/>
<path fill-rule="evenodd" clip-rule="evenodd" d="M439.5 415H485C488.038 415 490.5 417.462 490.5 420.5C490.5 423.538 488.038 426 485 426H439.5C438.948 426 438.5 425.552 438.5 425V416C438.5 415.448 438.948 415 439.5 415Z" fill="#F16B79"/>
<path d="M439.5 417.2H465.533C467.356 417.2 468.833 418.678 468.833 420.5C468.833 422.323 467.356 423.8 465.533 423.8H439.5C438.948 423.8 438.5 423.352 438.5 422.8V418.2C438.5 417.648 438.948 417.2 439.5 417.2Z" fill="#EAEFFF"/>
<path d="M542.305 380H673.5V578.348H542.305V380Z" fill="#91D6FF"/>
<path d="M542.305 380H638.099V578.348H542.305V380Z" fill="#BFE7FF"/>
<path fill-rule="evenodd" clip-rule="evenodd" d="M622.089 513.624H558.315C554.073 513.624 550.635 517.062 550.635 521.304V562.316C550.635 566.558 554.073 569.996 558.315 569.996H622.089C626.33 569.996 629.769 566.558 629.769 562.316V521.304C629.769 517.062 626.33 513.624 622.089 513.624Z" fill="#E3F4FF"/>
<path fill-rule="evenodd" clip-rule="evenodd" d="M602.696 513.624H577.707V520.223C577.707 522.344 579.426 524.063 581.547 524.063H598.856C600.977 524.063 602.696 522.344 602.696 520.223V513.624Z" fill="#91D6FF"/>
<path fill-rule="evenodd" clip-rule="evenodd" d="M627.769 399.226H558.315C554.073 399.226 550.635 402.664 550.635 406.906V437.044C550.635 441.285 554.073 444.724 558.315 444.724H627.769C628.873 444.724 629.769 443.828 629.769 442.724V401.226C629.769 400.121 628.873 399.226 627.769 399.226Z" fill="#91D6FF"/>
<path fill-rule="evenodd" clip-rule="evenodd" d="M604.734 388.352H540.961C536.719 388.352 533.281 391.79 533.281 396.032V437.044C533.281 441.286 536.719 444.724 540.961 444.724H604.734C608.976 444.724 612.414 441.286 612.414 437.044V396.032C612.414 391.79 608.976 388.352 604.734 388.352Z" fill="#E3F4FF"/>
<path fill-rule="evenodd" clip-rule="evenodd" d="M622.089 450.987H558.315C554.073 450.987 550.635 454.426 550.635 458.667V499.68C550.635 503.921 554.073 507.36 558.315 507.36H622.089C626.33 507.36 629.769 503.921 629.769 499.68V458.667C629.769 454.426 626.33 450.987 622.089 450.987Z" fill="#E3F4FF"/>
<path fill-rule="evenodd" clip-rule="evenodd" d="M602.696 450.987H577.707V457.587C577.707 459.707 579.426 461.427 581.547 461.427H598.856C600.977 461.427 602.696 459.707 602.696 457.587V450.987Z" fill="#91D6FF"/>
<path fill-rule="evenodd" clip-rule="evenodd" d="M585.343 388.352H560.353V394.951C560.353 397.072 562.072 398.791 564.193 398.791H581.503C583.624 398.791 585.343 397.072 585.343 394.951V388.352Z" fill="#91D6FF"/>
<path fill-rule="evenodd" clip-rule="evenodd" d="M612.862 358.677H619.902L627.501 379.354H620.461L612.862 358.677Z" fill="#28C76F"/>
<path fill-rule="evenodd" clip-rule="evenodd" d="M594.708 338H626.512C626.954 338 627.312 338.358 627.312 338.8C627.312 338.856 627.306 338.912 627.294 338.967L618.835 378.72C618.756 379.09 618.43 379.354 618.052 379.354H586.248C585.806 379.354 585.448 378.996 585.448 378.554C585.448 378.498 585.454 378.442 585.466 378.387L593.925 338.633C594.004 338.264 594.33 338 594.708 338Z" fill="#A7C3FF"/>
<path fill-rule="evenodd" clip-rule="evenodd" d="M592.948 338H624.752C625.194 338 625.552 338.358 625.552 338.8C625.552 338.856 625.546 338.912 625.535 338.967L617.075 378.72C616.997 379.09 616.67 379.354 616.293 379.354H584.488C584.047 379.354 583.688 378.996 583.688 378.554C583.688 378.498 583.694 378.442 583.706 378.387L592.166 338.633C592.244 338.264 592.57 338 592.948 338Z" fill="url(#paint8_linear_538_215)"/>
<mask id="mask1_538_215" style="mask-type:alpha" maskUnits="userSpaceOnUse" x="586" y="339" width="37" height="38">
<path d="M594.606 339.723H622.211C622.609 339.723 622.931 340.045 622.931 340.443C622.931 340.493 622.926 340.543 622.915 340.593L615.338 376.199C615.267 376.531 614.974 376.769 614.634 376.769H587.03C586.632 376.769 586.31 376.446 586.31 376.049C586.31 375.998 586.315 375.948 586.325 375.899L593.902 340.293C593.973 339.96 594.267 339.723 594.606 339.723Z" fill="white"/>
</mask>
<g mask="url(#mask1_538_215)">
<path d="M594.606 339.723H622.211C622.609 339.723 622.931 340.045 622.931 340.443C622.931 340.493 622.926 340.543 622.915 340.593L615.338 376.199C615.267 376.531 614.974 376.769 614.634 376.769H587.03C586.632 376.769 586.31 376.446 586.31 376.049C586.31 375.998 586.315 375.948 586.325 375.899L593.902 340.293C593.973 339.96 594.267 339.723 594.606 339.723Z" fill="#B3FFEB"/>
<path d="M602.75 354.154C604.877 354.154 606.6 352.466 606.6 350.384C606.6 348.303 604.877 346.615 602.75 346.615C600.624 346.615 598.9 348.303 598.9 350.384C598.9 352.466 600.624 354.154 602.75 354.154Z" fill="white"/>
<path d="M591.476 396.153C601.348 396.153 609.351 388.318 609.351 378.653C609.351 368.988 601.348 361.153 591.476 361.153C581.603 361.153 573.601 368.988 573.601 378.653C573.601 388.318 581.603 396.153 591.476 396.153Z" fill="#6DE9C9"/>
<path d="M619.526 394C631.22 394 640.701 384.839 640.701 373.539C640.701 362.238 631.22 353.077 619.526 353.077C607.831 353.077 598.351 362.238 598.351 373.539C598.351 384.839 607.831 394 619.526 394Z" fill="#83F2D5"/>
</g>
<path fill-rule="evenodd" clip-rule="evenodd" d="M114.116 295.293C102.393 292.58 101.621 276.588 110.534 271.041C101.342 251.892 122.598 232.879 137.159 244.605C146.704 240.544 154.637 256.389 145.755 268.695C149.479 289.826 141.899 295.287 128.236 295.519L114.116 295.293Z" fill="#422851"/>
<path fill-rule="evenodd" clip-rule="evenodd" d="M114.262 291.473C114.262 291.473 119.965 290.143 120.162 280.856C120.36 271.57 120.221 268.4 120.221 268.4L132.783 268.175C132.783 268.175 132.92 278.524 132.922 282.268C132.927 292.322 139.977 291.473 139.977 291.473C139.977 291.473 138.512 299.626 127.129 300.262C118.242 300.759 114.262 291.473 114.262 291.473Z" fill="url(#paint9_linear_538_215)"/>
<path fill-rule="evenodd" clip-rule="evenodd" d="M117.294 263.763C111.69 263.548 112.604 271.7 118.425 271.689C118.425 271.689 121.807 283.27 133.545 283.27C143.079 283.27 143.699 269.772 143.785 267.079C143.878 264.208 143.89 254.776 143.89 254.776L117.076 254.764L117.294 263.763Z" fill="url(#paint10_linear_538_215)"/>
<path d="M131.282 275.49C131.282 275.49 134.078 277.843 137.316 275.64" stroke="#F77B7B" stroke-width="1.5" stroke-linecap="round"/>
<path d="M133.127 278.215C133.997 278.614 134.834 278.643 135.582 278.245" stroke="#F49494" stroke-linecap="round"/>
<path d="M117.865 268.148C117.922 266.84 117.521 265.801 116.179 265.593" stroke="#F77B7B" stroke-linecap="round"/>
<path fill-rule="evenodd" clip-rule="evenodd" d="M116.407 262.756C116.407 262.756 119.478 266.852 120.1 266.874C120.722 266.895 120.94 261.547 120.94 261.547C124.708 261.261 134.244 259.374 136.581 254.978C138.216 258.856 141.341 260.579 143.394 260.249L143.783 268.489L144.741 251.922H115.655L116.407 262.756Z" fill="#422851"/>
<path fill-rule="evenodd" clip-rule="evenodd" d="M189.552 296.329C189.552 296.329 187.878 286.988 188.48 285.097C188.994 283.462 193.852 281.104 193.852 281.104C193.852 281.104 202.303 267.736 204.152 269.097C205.656 270.201 199.751 280.057 199.751 280.057C199.751 280.057 205.136 285.714 205.061 288.243C204.986 290.772 196.272 298.689 196.272 298.689L189.552 296.329Z" fill="url(#paint11_linear_538_215)"/>
<path fill-rule="evenodd" clip-rule="evenodd" d="M194.034 280.97C194.034 280.97 197.777 280.46 198.372 281.627C198.88 282.62 195.771 285.439 195.771 286.231C195.771 287.024 195.815 293.021 196.065 293.076C196.315 293.13 199.814 283.289 199.068 281.207C198.454 279.498 194.034 280.97 194.034 280.97Z" fill="#F28585"/>
<path fill-rule="evenodd" clip-rule="evenodd" d="M145.05 295.224C139.433 292.889 132.632 299.592 136.775 305.991C143.395 316.223 167.833 343.088 179.097 343.128C189.215 343.163 198.51 302.919 198.297 299.711C198.084 296.503 189.871 292.49 186.888 294.756C183.897 297.021 174.438 323.569 174.438 323.569C174.438 323.569 150.755 297.598 145.05 295.224Z" fill="#28C76F"/>
<path fill-rule="evenodd" clip-rule="evenodd" d="M174.438 323.569C176.569 327.237 177.733 328.797 177.929 328.249C178.126 327.7 177.348 325.062 175.597 320.333L174.438 323.569Z" fill="black" fill-opacity="0.302803"/>
<path fill-rule="evenodd" clip-rule="evenodd" d="M137.846 551.709C137.846 551.709 136.726 560.915 140.903 564.431C145.079 567.946 128.967 566.677 128.967 566.677L128.85 551.562L137.846 551.709Z" fill="url(#paint12_linear_538_215)"/>
<path fill-rule="evenodd" clip-rule="evenodd" d="M128.814 559.867C130.249 559.945 130.02 564.26 131.945 564.079C133.869 563.899 137.123 559.597 139.913 561.044C142.809 562.549 158.681 572.601 159.615 575.185C160.661 578.065 153.892 578.28 149.053 578.07C144.208 577.86 141.975 575.679 139.623 575.733C137.266 575.788 136.709 577.257 134.946 577.662C133.158 578.073 128.684 578.011 128.269 576.724C127.836 575.387 127.385 559.79 128.814 559.867Z" fill="#222D4E"/>
<path fill-rule="evenodd" clip-rule="evenodd" d="M112.5 364C112.5 364 122.13 456.719 122.916 465.191C123.702 473.663 122.13 479.797 121.486 488.548C120.841 497.298 123.943 552.332 123.943 552.332C128.503 555.086 133.93 555.627 140.829 552.415C140.829 552.415 147.165 483.856 147.103 468.241C147.066 458.926 148.031 365.046 148.031 365.046L112.5 364Z" fill="#009B76"/>
<path fill-rule="evenodd" clip-rule="evenodd" d="M127.888 465.952C128.679 471.817 126.554 482.927 121.513 499.283L121.45 496.593C121.378 493.038 121.375 490.265 121.473 488.726L121.485 488.547C122.108 480.089 123.598 474.075 122.987 466.03L122.854 464.544C122.524 461.115 121.498 451.058 120.212 438.553L120.918 440.596C124.823 452.002 127.146 460.454 127.888 465.952Z" fill="white" fill-opacity="0.0771689"/>
<path fill-rule="evenodd" clip-rule="evenodd" d="M141.594 562.068L140.947 563.056C140.644 563.518 140.773 564.138 141.235 564.441C141.248 564.449 141.261 564.457 141.275 564.465L150.841 570.116C151.134 570.289 151.496 570.301 151.8 570.147L153.077 569.503C149.357 566.797 145.63 564.376 141.594 562.068Z" fill="white" fill-opacity="0.540975"/>
<path fill-rule="evenodd" clip-rule="evenodd" d="M96.9589 553.204L97.7676 567.234L87.4004 567.509L89.349 553.204H96.9589Z" fill="url(#paint13_linear_538_215)"/>
<path fill-rule="evenodd" clip-rule="evenodd" d="M87.3035 562.368C94.6508 567.908 97.4701 560.976 98.0964 561.663C99.2881 562.97 101.544 575.991 100.316 577.816C99.2334 579.432 84.5004 579.459 83.6856 577.937C82.6155 575.921 86.4864 561.751 87.3035 562.368Z" fill="#222D4E"/>
<path fill-rule="evenodd" clip-rule="evenodd" d="M91.5642 565.967H93.6386C94.1285 565.967 94.5463 566.322 94.6255 566.805L95.2415 570.568C95.3307 571.113 94.9612 571.628 94.4162 571.717C94.3628 571.726 94.3087 571.73 94.2546 571.73H90.9482C90.396 571.73 89.9482 571.282 89.9482 570.73C89.9482 570.676 89.9526 570.622 89.9614 570.568L90.5774 566.805C90.6565 566.322 91.0743 565.967 91.5642 565.967Z" fill="white" fill-opacity="0.540975"/>
<path fill-rule="evenodd" clip-rule="evenodd" d="M106.591 361C106.591 361 96.2663 370.305 93.5556 383.673C89.0369 405.957 91.311 447.115 91.1772 456.14C91.0495 465.165 87.8042 470.611 86.0635 483.372C84.3229 496.132 86.0453 553.162 86.0453 553.162C90.6604 555.947 95.6646 556.146 101.167 552.995L133.485 363.977L106.591 361Z" fill="#02B596"/>
<path fill-rule="evenodd" clip-rule="evenodd" d="M99.713 369.305L103.746 369.86C100.203 376.638 98.4124 392.097 98.3755 416.235L98.3749 417C98.3749 453.496 91.7866 466.353 89.136 482.064L89.0569 482.541C87.4692 492.284 86.28 507.897 85.4891 529.38L85.4087 524.054C85.1886 507.824 85.1838 489.821 86.0635 483.372C87.8042 470.611 91.0495 465.165 91.1772 456.14L91.183 455.243C91.1807 444.663 89.1725 405.289 93.5556 383.673C94.7004 378.027 97.2033 373.106 99.713 369.305Z" fill="white" fill-opacity="0.0771689"/>
<path fill-rule="evenodd" clip-rule="evenodd" d="M95.5 298.703C95.5 298.703 105.388 331.837 105.681 338.109C105.973 344.381 97.5934 362.816 99.0202 367.475C102.31 378.243 144.309 382.879 148.814 368.395C150.739 362.209 147.038 355.576 148.833 347.617C150.621 339.657 155.875 327.828 151.799 316.708C147.722 305.587 148.814 295.299 145.898 293.354C142.982 291.409 136.166 289.344 136.166 289.344C132.852 294.226 121.662 294.155 116.322 289C116.322 289 103.058 291.575 95.5 298.703Z" fill="#28C76F"/>
<path fill-rule="evenodd" clip-rule="evenodd" d="M104.36 304.07C110.951 314.537 110.931 332.762 114.471 335.149C118.011 337.536 131.788 335.194 131.788 337.084C131.788 338.974 112.749 356.297 115.874 364.578C117.511 368.914 117.067 372.794 114.543 376.216L113.719 376.036C106.217 374.339 100.186 371.293 99.0198 367.476C97.593 362.816 105.973 344.381 105.68 338.109C105.432 332.802 98.3152 308.264 96.1309 300.838C98.0612 297.345 100.804 298.422 104.36 304.07Z" fill="black" fill-opacity="0.0564904"/>
<path fill-rule="evenodd" clip-rule="evenodd" d="M125.217 358.039C125.217 358.039 131.651 355.187 133.733 355.195C135.816 355.203 137.409 355.271 137.409 355.271L137.415 358.155C137.415 358.155 147.987 359.116 149.102 359.078C150.224 359.041 145.024 366.862 141.523 368.279C137.655 369.843 124.511 365.204 124.511 365.204L125.217 358.039Z" fill="url(#paint14_linear_538_215)"/>
<path fill-rule="evenodd" clip-rule="evenodd" d="M96.0645 297.761C87.9583 303.675 67.2651 354.417 77.0942 361.534C85.4731 367.602 121.071 368.394 123.705 366.458C125.899 364.841 127.132 359.922 125.068 357.235C122.329 353.652 91.4412 348.477 91.4412 348.477C91.4412 348.477 102.547 321.908 104.865 317.251C112.816 301.266 107.548 289.386 96.0645 297.761Z" fill="#28C76F"/>
<path fill-rule="evenodd" clip-rule="evenodd" d="M91.4844 348.445C89.1276 352.137 88.1918 354.029 88.677 354.121C89.1622 354.213 90.9863 352.489 94.1493 348.95L91.4844 348.445Z" fill="black" fill-opacity="0.302803"/>
<defs>
<filter id="filter0_f_538_215" x="207.027" y="0.779297" width="132.841" height="132.594" filterUnits="userSpaceOnUse" color-interpolation-filters="sRGB">
<feFlood flood-opacity="0" result="BackgroundImageFix"/>
<feBlend mode="normal" in="SourceGraphic" in2="BackgroundImageFix" result="shape"/>
<feGaussianBlur stdDeviation="3" result="effect1_foregroundBlur_538_215"/>
</filter>
<filter id="filter1_dd_538_215" x="85.5" y="295" width="206.869" height="108.288" filterUnits="userSpaceOnUse" color-interpolation-filters="sRGB">
<feFlood flood-opacity="0" result="BackgroundImageFix"/>
<feColorMatrix in="SourceAlpha" type="matrix" values="0 0 0 0 0 0 0 0 0 0 0 0 0 0 0 0 0 0 127 0" result="hardAlpha"/>
<feOffset dx="7" dy="8"/>
<feGaussianBlur stdDeviation="12.5"/>
<feColorMatrix type="matrix" values="0 0 0 0 0.0755213 0 0 0 0 0.582569 0 0 0 0 0.878793 0 0 0 0.229458 0"/>
<feBlend mode="normal" in2="BackgroundImageFix" result="effect1_dropShadow_538_215"/>
<feColorMatrix in="SourceAlpha" type="matrix" values="0 0 0 0 0 0 0 0 0 0 0 0 0 0 0 0 0 0 127 0" result="hardAlpha"/>
<feOffset dy="2"/>
<feGaussianBlur stdDeviation="7"/>
<feColorMatrix type="matrix" values="0 0 0 0 0.503982 0 0 0 0 0.700178 0 0 0 0 1 0 0 0 0.233829 0"/>
<feBlend mode="normal" in2="effect1_dropShadow_538_215" result="effect2_dropShadow_538_215"/>
<feBlend mode="normal" in="SourceGraphic" in2="effect2_dropShadow_538_215" result="shape"/>
</filter>
<filter id="filter2_dd_538_215" x="83.5" y="142" width="212.477" height="188.215" filterUnits="userSpaceOnUse" color-interpolation-filters="sRGB">
<feFlood flood-opacity="0" result="BackgroundImageFix"/>
<feColorMatrix in="SourceAlpha" type="matrix" values="0 0 0 0 0 0 0 0 0 0 0 0 0 0 0 0 0 0 127 0" result="hardAlpha"/>
<feOffset dx="8" dy="9"/>
<feGaussianBlur stdDeviation="14"/>
<feColorMatrix type="matrix" values="0 0 0 0 0.0755213 0 0 0 0 0.582569 0 0 0 0 0.878793 0 0 0 0.229458 0"/>
<feBlend mode="normal" in2="BackgroundImageFix" result="effect1_dropShadow_538_215"/>
<feColorMatrix in="SourceAlpha" type="matrix" values="0 0 0 0 0 0 0 0 0 0 0 0 0 0 0 0 0 0 127 0" result="hardAlpha"/>
<feOffset dy="2"/>
<feGaussianBlur stdDeviation="7.5"/>
<feColorMatrix type="matrix" values="0 0 0 0 0.503982 0 0 0 0 0.700178 0 0 0 0 1 0 0 0 0.233829 0"/>
<feBlend mode="normal" in2="effect1_dropShadow_538_215" result="effect2_dropShadow_538_215"/>
<feBlend mode="normal" in="SourceGraphic" in2="effect2_dropShadow_538_215" result="shape"/>
</filter>
<filter id="filter3_f_538_215" x="120.934" y="200.234" width="124.75" height="65.4326" filterUnits="userSpaceOnUse" color-interpolation-filters="sRGB">
<feFlood flood-opacity="0" result="BackgroundImageFix"/>
<feBlend mode="normal" in="SourceGraphic" in2="BackgroundImageFix" result="shape"/>
<feGaussianBlur stdDeviation="1.75" result="effect1_foregroundBlur_538_215"/>
</filter>
<linearGradient id="paint0_linear_538_215" x1="230.005" y1="155.402" x2="230.005" y2="577.951" gradientUnits="userSpaceOnUse">
<stop stop-color="#A2FFEA"/>
<stop offset="1" stop-color="#8CA5FF"/>
</linearGradient>
<linearGradient id="paint1_linear_538_215" x1="380.258" y1="529.994" x2="378.66" y2="550.564" gradientUnits="userSpaceOnUse">
<stop stop-color="#FDC6C6"/>
<stop offset="1" stop-color="#FAB2B2"/>
</linearGradient>
<linearGradient id="paint2_linear_538_215" x1="365.157" y1="350.576" x2="361.563" y2="411.138" gradientUnits="userSpaceOnUse">
<stop stop-color="#FDC6C6"/>
<stop offset="1" stop-color="#FAB2B2"/>
</linearGradient>
<linearGradient id="paint3_linear_538_215" x1="427.32" y1="324.031" x2="420.302" y2="374.138" gradientUnits="userSpaceOnUse">
<stop stop-color="#FFAFAF"/>
<stop offset="1" stop-color="#F07777"/>
</linearGradient>
<linearGradient id="paint4_linear_538_215" x1="430.023" y1="317.613" x2="423.355" y2="346.765" gradientUnits="userSpaceOnUse">
<stop stop-color="#FDC6C6"/>
<stop offset="1" stop-color="#FAB2B2"/>
</linearGradient>
<linearGradient id="paint5_linear_538_215" x1="340.137" y1="535.23" x2="338.569" y2="552.943" gradientUnits="userSpaceOnUse">
<stop stop-color="#FDC6C6"/>
<stop offset="1" stop-color="#FAB2B2"/>
</linearGradient>
<linearGradient id="paint6_linear_538_215" x1="439.814" y1="400.804" x2="438.278" y2="414.956" gradientUnits="userSpaceOnUse">
<stop stop-color="#FDC6C6"/>
<stop offset="1" stop-color="#FAB2B2"/>
</linearGradient>
<linearGradient id="paint7_linear_538_215" x1="268.738" y1="416.98" x2="247.712" y2="416.98" gradientUnits="userSpaceOnUse">
<stop stop-color="#F16B79"/>
<stop offset="1" stop-color="#F69D88"/>
</linearGradient>
<linearGradient id="paint8_linear_538_215" x1="612.436" y1="328.59" x2="612.436" y2="379.354" gradientUnits="userSpaceOnUse">
<stop stop-color="#9FF6EC"/>
<stop offset="1" stop-color="#7D9DFF"/>
</linearGradient>
<linearGradient id="paint9_linear_538_215" x1="125.852" y1="259.125" x2="132.662" y2="306.855" gradientUnits="userSpaceOnUse">
<stop stop-color="#FFAFAF"/>
<stop offset="1" stop-color="#F07777"/>
</linearGradient>
<linearGradient id="paint10_linear_538_215" x1="123.166" y1="253.21" x2="129.482" y2="280.652" gradientUnits="userSpaceOnUse">
<stop stop-color="#FDC6C6"/>
<stop offset="1" stop-color="#FAB2B2"/>
</linearGradient>
<linearGradient id="paint11_linear_538_215" x1="195.737" y1="265.185" x2="199.614" y2="297.043" gradientUnits="userSpaceOnUse">
<stop stop-color="#FDC6C6"/>
<stop offset="1" stop-color="#FAB2B2"/>
</linearGradient>
<linearGradient id="paint12_linear_538_215" x1="134.546" y1="547.239" x2="135.524" y2="565.511" gradientUnits="userSpaceOnUse">
<stop stop-color="#FDC6C6"/>
<stop offset="1" stop-color="#FAB2B2"/>
</linearGradient>
<linearGradient id="paint13_linear_538_215" x1="92.1655" y1="549.172" x2="92.9615" y2="566.211" gradientUnits="userSpaceOnUse">
<stop stop-color="#FDC6C6"/>
<stop offset="1" stop-color="#FAB2B2"/>
</linearGradient>
<linearGradient id="paint14_linear_538_215" x1="132.359" y1="359.426" x2="134.623" y2="365.1" gradientUnits="userSpaceOnUse">
<stop stop-color="#FDC6C6"/>
<stop offset="1" stop-color="#FAB2B2"/>
</linearGradient>
</defs>
</svg>
