<svg xmlns="http://www.w3.org/2000/svg" width="38" height="38" viewBox="0 0 38 38">
    <g fill="none" fill-rule="evenodd">
        <circle cx="19" cy="19" r="19" fill="#E9F4F5"/>
        <path fill="#FFF" d="M5.062 4.64h1.973v10.402c0 .33.132.654.36.886l1.848 1.882c.24.245.556.367.87.367.316 0 .631-.122.872-.367l1.847-1.882c.229-.232-.266-.556-.266-.886l.266-6.534c0-.348.073-.324-.266-.324-.34 0-.605-.024-.605.324v7.282l-1.847 1.69-2.489-1.987.322-10.853h23.226c.29 0 1.033.296 1.09.585.337 1.693.948 2.73 2.612 3.07.282.059 1.106.578 1.106.872l-.116 15.03c0 .298-.706.912-.99.966-1.686.323-2.294 1.591-2.611 3.308-.053.292-.8.422-1.09.422l-26.37-.149c-.293 0-.836-.449-.89-.738-.312-1.72-1.348-2.49-3.037-2.812-.289-.053-.66-.887-.66-1.186l.17-15.103c0-.294.694-.551.976-.61 1.638-.34 2.396-1.401 2.73-3.07.059-.289.68-.585.97-.585z"/>
        <path fill="#02647A" fill-rule="nonzero" stroke="#E9F4F5" stroke-width=".4" d="M9.927 1.265C8.587 1.265 7.5 2.31 7.5 3.596v1.165H5.556c-.858 0-1.605.587-1.778 1.393-.235 1.102-.963 1.803-2.11 2.028-.842.162-1.451.88-1.451 1.705v14.209c0 .84.623 1.559 1.481 1.713 1.183.21 1.869.868 2.087 2.003.151.792.85 1.368 1.683 1.411l22.26 5.727c.156.039.312.059.466.059.671 0 1.306-.357 1.62-.945.545-1.03 1.436-1.529 2.57-1.468.86.053 1.65-.489 1.872-1.288l1.62-5.801c.46-.321.756-.835.756-1.409V9.889c0-.826-.612-1.545-1.454-1.707-1.147-.223-1.875-.922-2.107-2.026-.17-.808-.92-1.395-1.78-1.395H14.782V3.596c0-1.286-1.088-2.33-2.428-2.33H9.927zm0 1.166h2.428c.669 0 1.214.523 1.214 1.165v1.165H8.714V3.596c0-.642.545-1.165 1.213-1.165zM5.556 5.927H7.5v9.663c0 .308.13.608.355.824l1.821 1.748c.237.228.548.342.858.342.31 0 .621-.114.859-.342l1.82-1.748c.226-.216.356-.516.356-.824V8.84c0-.323-.273-.583-.607-.583-.334 0-.607.26-.607.583v6.75l-1.82 1.748-1.821-1.748V5.927H31.29c.285 0 .534.195.59.464.333 1.573 1.418 2.615 3.059 2.931.277.055.479.294.479.567v14.209c0 .278-.204.514-.484.564-1.662.3-2.75 1.341-3.063 2.936-.052.271-.3.47-.588.47H5.568c-.29 0-.539-.196-.59-.465-.309-1.598-1.392-2.642-3.057-2.94-.284-.05-.49-.29-.49-.567V9.886c0-.272.201-.509.478-.564C3.524 9.006 4.64 7.94 4.968 6.39c.057-.269.303-.462.588-.462zm15.903 1.748c-.334 0-.607.259-.607.582 0 .323.273.583.607.583h1.214c.334 0 .607-.26.607-.583 0-.323-.273-.582-.607-.582h-1.214zm3.641 0c-.334 0-.607.259-.607.582v17.48c0 .323.273.582.607.582.335 0 .607-.26.607-.582V8.257c0-.323-.272-.582-.607-.582zm-3.641 2.913c-.334 0-.607.26-.607.582 0 .324.273.583.607.583h1.214c.334 0 .607-.26.607-.583 0-.323-.273-.582-.607-.582h-1.214zm0 2.913c-.334 0-.607.26-.607.583 0 .323.273.582.607.582h1.214c.334 0 .607-.26.607-.582 0-.324-.273-.583-.607-.583h-1.214zm0 2.913c-.334 0-.607.26-.607.583 0 .323.273.583.607.583h1.214c.334 0 .607-.26.607-.583 0-.323-.273-.583-.607-.583h-1.214zm0 2.914c-.334 0-.607.259-.607.582 0 .323.273.583.607.583h1.214c.334 0 .607-.26.607-.583 0-.323-.273-.582-.607-.582h-1.214zm0 2.913c-.334 0-.607.26-.607.582 0 .324.273.583.607.583h1.214c.334 0 .607-.26.607-.583 0-.323-.273-.582-.607-.582h-1.214zm0 2.913c-.334 0-.607.26-.607.583 0 .323.273.582.607.582h1.214c.334 0 .607-.26.607-.582 0-.324-.273-.583-.607-.583h-1.214zm13.02.854l-1.396 5c-.074.264-.327.448-.624.425-1.617-.1-2.968.667-3.727 2.101-.128.24-.417.357-.69.29l-17.851-4.591h21.09c.872 0 1.622-.597 1.785-1.42.173-.897.643-1.49 1.413-1.805z"/>
        <path stroke="#EF4050" stroke-linecap="round" d="M12.994 8.84v6.808l-2.417 2.49-2.546-2.278V3.237c.126-1.036 1.111-1.555 2.956-1.555 1.844 0 2.91.461 3.196 1.382v2.003"/>
        <path fill="#02647A" fill-opacity=".3" d="M8.03 28.893l23.533-.39.942-.655c.683-1.835 1.578-2.675 2.684-2.522l-1.62 6.251-2.006.576-1.864.94-1.27 1.533L8.421 29.62l-.391-.728z"/>
    </g>
</svg>
