<svg xmlns="http://www.w3.org/2000/svg" width="42" height="43" viewBox="0 0 42 43">
    <g fill="none" fill-rule="evenodd">
        <g>
            <g transform="translate(-967 -686) translate(967 686)">
                <circle cx="21" cy="22.332" r="20.344" fill="#E9F4F5"/>
                <path d="M0 1.253H42V41.344H0z"/>
                <path fill="#E9F4F5" d="M5.25 35.09v-3.696c2.832-2.275 6.432-4.093 10.799-5.453 0 0 2.657 3.219 5.804 2.63 2.098-.393 3.7-1.27 4.805-2.63 6.542 1.604 10.167 3.421 10.874 5.453.707 2.03.707 3.358 0 3.98H26.658L5.25 35.09z"/>
                <path fill="#FFF" d="M17.111 25.572v-3.026c-2.164-2.123-3.246-4.146-3.246-6.07-.215.198-.648.016-1.298-.544l-.755-2.344 1.113-.582 1.186.352c-.2-2.883 1.216-4.64 4.247-5.268 3.03-.63 5.32-1.022 6.869-1.177l.974-1.017c2.039.71 3.058 2.168 3.058 4.378s.14 3.12.42 2.732h1.371c.6.481.6 1.18 0 2.096-.6.915-1.057 1.373-1.37 1.373-.589 3.366-1.748 5.39-3.48 6.071.009-.073 0 3.55 0 3.55-1.198 1.6-2.752 2.33-4.66 2.186-1.908-.144-3.384-1.047-4.429-2.71z"/>
                <path fill="#A3C8D0" d="M11.829 13.313L11.045 10.059 10.13 7.592 9.188 6.863 12.746 4.025 16.551 1.708 19.813 1.179 23.296 1.708 25.32 2.863 26.669 3.664 29.367 4.401 30.716 6.005 31.5 8.138 31.5 10.059 30.716 13.758 29.367 14.15 29.367 10.361 28.018 8.138 25.994 6.863 23.971 7.664 21.273 8.757 19.249 8.757 17.225 9.149 15.202 10.059 13.853 11.118 13.178 12.941 13.178 14.15 11.829 13.758z"/>
                <path fill="#FFF" d="M16.858 40.091L15.75 38.849 15.75 33.332 16.406 32.464 18.424 32.464 19.408 31.837 22.969 31.837 23.824 32.755 25.594 32.755 26.25 34.091 26.25 39.103 25.349 40.091z"/>
                <path fill="#02647A" fill-rule="nonzero" stroke="#FFF" stroke-width=".2" d="M20.164 0c-3.176 0-6.032 1.561-8.103 3.08C9.99 4.6 8.67 6.123 8.67 6.123l-.592.681.925.245s.359.09.79.485c.428.394.886 1.067.886 2.34 0 1.652.282 2.985.423 3.55-.366.299-.602.722-.602 1.197 0 .382.128.71.233 1.03.052.16.103.31.136.423.033.113.041.223.041.138 0 .802.749 1.428 1.63 1.456.121 2.284 1.346 4.302 3.21 5.63v2.2c-.946.258-3.217.917-5.53 1.898-1.51.64-3.027 1.411-4.209 2.326-1.181.914-2.074 2.008-2.074 3.293v3.537h9.844v-1.179H5.25v-2.358c0-.778.584-1.6 1.618-2.4 1.033-.799 2.468-1.538 3.911-2.15.375-.16.749-.31 1.116-.452-.054.087-.082.186-.082.285 0 .325.294.59.656.59.361 0 .656-.265.656-.59 0-.262-.192-.492-.472-.564 1.41-.511 2.436-.813 3.13-1.004l.036.065s1.549 2.683 5.181 2.683 5.18-2.683 5.18-2.683l.037-.065c.715.2 1.825.532 3.13 1.004-.28.072-.472.302-.472.564 0 .325.295.59.656.59.362 0 .657-.265.657-.59 0-.099-.029-.198-.083-.285.367.143.741.292 1.116.451 1.443.613 2.878 1.352 3.911 2.151 1.034.8 1.618 1.622 1.618 2.4v2.358h-8.531v1.18h9.843v-3.538c0-1.285-.892-2.379-2.073-3.293-1.182-.915-2.7-1.686-4.21-2.326-2.312-.981-4.583-1.64-5.529-1.898v-2.197c1.864-1.329 3.089-3.346 3.21-5.633.881-.028 1.63-.654 1.63-1.456 0 .085.008-.025.04-.138.034-.113.085-.262.137-.424.105-.32.233-.647.233-1.03 0-.483-.244-.909-.618-1.21.12-.622.618-3.285.618-5.157 0-2.119-.882-3.636-2.071-4.578-1.07-.843-2.325-1.182-3.438-1.253-.18-.256-.497-.657-1.156-1.12C23.889.644 22.371 0 20.165 0zm0 1.18c1.928 0 3.125.536 3.86 1.054.74.518.983.974.983.974l.18.33h.407c.874 0 2.05.299 2.966 1.024.917.726 1.628 1.859 1.628 3.692 0 1.644-.436 4.044-.564 4.717h-.01c-.057 0-.047.011-.083.016v-1.785c0-2.018-.917-3.374-1.84-4.178-.923-.804-1.89-1.098-1.89-1.098l-.374-.113-.287.246s-.413.364-1.41.774c-.997.41-2.54.831-4.699.831-1.182 0-2.738.376-4.088 1.223-1.346.846-2.467 2.227-2.472 4.102-.036-.005-.028-.018-.084-.018-.016 0-.031.004-.046.004-.134-.569-.35-1.679-.35-3.1 0-1.543-.614-2.568-1.258-3.162-.274-.253-.336-.21-.574-.336.454-.479 1.297-1.329 2.733-2.381 1.95-1.43 4.586-2.817 7.272-2.817zm5.43 5.987c.159.055.574.173 1.184.702.718.627 1.44 1.626 1.44 3.333v3.717l.988-.52c.169-.088.325-.166.435-.217.013-.007.018-.007.031-.014.3.028.515.217.515.454 0 .044-.076.39-.176.698-.052.152-.103.306-.146.446-.044.14-.088.24-.088.447 0 .157-.143.295-.369.295h-1.19v.806c0 3.197-2.565 5.838-5.944 6.38l-.187.027-.141.118c-.256.21-.58.333-.946.333-.367 0-.69-.124-.946-.333l-.14-.118-.188-.028c-3.379-.54-5.945-3.182-5.945-6.379v-.806h-1.19c-.225 0-.368-.138-.368-.295 0-.207-.044-.306-.088-.447-.043-.14-.094-.294-.146-.446-.1-.309-.177-.654-.177-.698 0-.237.216-.426.516-.454.013.007.018.007.03.014.11.05.267.129.436.216l.987.52v-1.917c0-1.47.815-2.458 1.913-3.146 1.097-.689 2.491-1.011 3.337-1.011 2.351 0 4.089-.463 5.245-.938.859-.352 1.084-.569 1.318-.739zM17.39 14.15c-.544 0-.985.396-.985.884s.441.884.985.884c.543 0 .984-.396.984-.884s-.44-.884-.984-.884zm7.218 0c-.543 0-.984.396-.984.884s.44.884.984.884.985-.396.985-.884-.441-.884-.985-.884zm-7.547 9.919c.7.33 1.457.582 2.259.728.464.331 1.038.555 1.679.555.638 0 1.21-.224 1.671-.553.805-.143 1.564-.396 2.267-.728v2.276c-.08.142-1.118 1.952-3.938 1.952-2.82 0-3.858-1.81-3.938-1.952v-2.278zm-3.28 5.41c-.362 0-.657.264-.657.59 0 .324.295.589.656.589.362 0 .656-.265.656-.59 0-.325-.294-.59-.656-.59zm14.437 0c-.362 0-.657.264-.657.59 0 .324.295.589.657.589.361 0 .656-.265.656-.59 0-.325-.295-.59-.656-.59zm-13.125 1.768c-.362 0-.656.265-.656.59 0 .325.294.59.656.59.361 0 .656-.265.656-.59 0-.325-.295-.59-.656-.59zm4.265 0c-.412 0-.802.175-1.048.472l-.1.118h-1.148c-1.08 0-1.97.799-1.97 1.769v4.716c0 .97.89 1.769 1.97 1.769h7.875c1.079 0 1.968-.8 1.968-1.769v-4.716c0-.97-.89-1.77-1.968-1.77h-1.149l-.1-.117c-.246-.297-.636-.472-1.048-.472h-3.282zm7.547 0c-.361 0-.656.265-.656.59 0 .325.295.59.656.59.362 0 .657-.265.657-.59 0-.325-.295-.59-.657-.59zm-7.547 1.18h3.282l.492.589h1.805c.371 0 .656.256.656.59v4.716c0 .334-.285.59-.657.59h-7.875c-.371 0-.656-.256-.656-.59v-4.716c0-.334.285-.59.657-.59h1.804l.492-.59z"/>
                <path fill="#EF4050" d="M21.656 34.195c-1.087 0-1.968.792-1.968 1.769 0 .976.881 1.769 1.968 1.769s1.969-.793 1.969-1.77c0-.976-.882-1.768-1.969-1.768z"/>
            </g>
        </g>
    </g>
</svg>
